ISO-10303-21;
HEADER;
/* Generated by software containing ST-Developer
 * from STEP Tools, Inc. (www.steptools.com) 
 */
/* OPTION: using custom renumber hook */

FILE_DESCRIPTION(
/* description */ ('STEP AP242',
'CAx-IF Rec.Pracs.---Representation and Presentation of Product Manufa
cturing Information (PMI)---4.0---2014-10-13',
'CAx-IF Rec.Pracs.---3D Tessellated Geometry---0.4---2014-09-14','2;1'),

/* implementation_level */ '2;1');

FILE_NAME(
/* name */ '68b24f8b85d2a4155847ce32',
/* time_stamp */ '2025-08-30T01:10:36Z',
/* author */ (''),
/* organization */ (''),
/* preprocessor_version */ 'ST-DEVELOPER v20',
/* originating_system */ 'ONSHAPE BY PTC INC, 1.203',
/* authorisation */ '  ');

FILE_SCHEMA (('AP242_MANAGED_MODEL_BASED_3D_ENGINEERING_MIM_LF { 1 0 10303 442 1 1 4 }'));
ENDSEC;

DATA;
#10=SHAPE_REPRESENTATION_RELATIONSHIP('','',#819,#11);
#11=ADVANCED_BREP_SHAPE_REPRESENTATION('',(#817),#1233);
#12=DEGENERATE_TOROIDAL_SURFACE('',#874,0.00022,0.00023,.T.);
#13=DEGENERATE_TOROIDAL_SURFACE('',#875,0.00022,0.00023,.T.);
#14=DEGENERATE_TOROIDAL_SURFACE('',#876,0.00022,0.00023,.T.);
#15=DEGENERATE_TOROIDAL_SURFACE('',#877,0.00022,0.00023,.T.);
#16=DRAUGHTING_PRE_DEFINED_COLOUR('black');
#17=CIRCLE('',#823,0.00045);
#18=CIRCLE('',#824,0.00045);
#19=CIRCLE('',#826,0.00022);
#20=CIRCLE('',#828,0.00045);
#21=CIRCLE('',#829,0.00045);
#22=CIRCLE('',#831,0.00022);
#23=CIRCLE('',#833,0.00045);
#24=CIRCLE('',#834,0.00045);
#25=CIRCLE('',#836,0.00022);
#26=CIRCLE('',#838,0.00045);
#27=CIRCLE('',#839,0.00045);
#28=CIRCLE('',#841,0.00022);
#29=CIRCLE('',#844,0.003);
#30=CIRCLE('',#845,0.003);
#31=CIRCLE('',#848,0.003);
#32=CIRCLE('',#849,0.003);
#33=CIRCLE('',#866,0.003);
#34=CIRCLE('',#867,0.003);
#35=CIRCLE('',#869,0.003);
#36=CIRCLE('',#870,0.003);
#37=CYLINDRICAL_SURFACE('',#822,0.00045);
#38=CYLINDRICAL_SURFACE('',#827,0.00045);
#39=CYLINDRICAL_SURFACE('',#832,0.00045);
#40=CYLINDRICAL_SURFACE('',#837,0.00045);
#41=CYLINDRICAL_SURFACE('',#878,0.003);
#42=CYLINDRICAL_SURFACE('',#879,0.003);
#43=ORIENTED_EDGE('',*,*,#199,.F.);
#44=ORIENTED_EDGE('',*,*,#200,.F.);
#45=ORIENTED_EDGE('',*,*,#201,.T.);
#46=ORIENTED_EDGE('',*,*,#202,.T.);
#47=ORIENTED_EDGE('',*,*,#203,.F.);
#48=ORIENTED_EDGE('',*,*,#204,.T.);
#49=ORIENTED_EDGE('',*,*,#205,.F.);
#50=ORIENTED_EDGE('',*,*,#206,.T.);
#51=ORIENTED_EDGE('',*,*,#207,.T.);
#52=ORIENTED_EDGE('',*,*,#208,.F.);
#53=ORIENTED_EDGE('',*,*,#209,.T.);
#54=ORIENTED_EDGE('',*,*,#210,.T.);
#55=ORIENTED_EDGE('',*,*,#211,.F.);
#56=ORIENTED_EDGE('',*,*,#212,.T.);
#57=ORIENTED_EDGE('',*,*,#213,.T.);
#58=ORIENTED_EDGE('',*,*,#214,.F.);
#59=ORIENTED_EDGE('',*,*,#215,.T.);
#60=ORIENTED_EDGE('',*,*,#216,.T.);
#61=ORIENTED_EDGE('',*,*,#217,.F.);
#62=ORIENTED_EDGE('',*,*,#218,.T.);
#63=ORIENTED_EDGE('',*,*,#219,.F.);
#64=ORIENTED_EDGE('',*,*,#220,.T.);
#65=ORIENTED_EDGE('',*,*,#221,.T.);
#66=ORIENTED_EDGE('',*,*,#222,.F.);
#67=ORIENTED_EDGE('',*,*,#223,.F.);
#68=ORIENTED_EDGE('',*,*,#224,.T.);
#69=ORIENTED_EDGE('',*,*,#219,.T.);
#70=ORIENTED_EDGE('',*,*,#225,.T.);
#71=ORIENTED_EDGE('',*,*,#226,.F.);
#72=ORIENTED_EDGE('',*,*,#227,.T.);
#73=ORIENTED_EDGE('',*,*,#228,.F.);
#74=ORIENTED_EDGE('',*,*,#229,.T.);
#75=ORIENTED_EDGE('',*,*,#226,.T.);
#76=ORIENTED_EDGE('',*,*,#230,.T.);
#77=ORIENTED_EDGE('',*,*,#221,.F.);
#78=ORIENTED_EDGE('',*,*,#231,.T.);
#79=ORIENTED_EDGE('',*,*,#203,.T.);
#80=ORIENTED_EDGE('',*,*,#232,.T.);
#81=ORIENTED_EDGE('',*,*,#228,.T.);
#82=ORIENTED_EDGE('',*,*,#233,.F.);
#83=ORIENTED_EDGE('',*,*,#234,.T.);
#84=ORIENTED_EDGE('',*,*,#235,.T.);
#85=ORIENTED_EDGE('',*,*,#223,.T.);
#86=ORIENTED_EDGE('',*,*,#236,.T.);
#87=ORIENTED_EDGE('',*,*,#237,.F.);
#88=ORIENTED_EDGE('',*,*,#238,.T.);
#89=ORIENTED_EDGE('',*,*,#239,.T.);
#90=ORIENTED_EDGE('',*,*,#240,.F.);
#91=ORIENTED_EDGE('',*,*,#241,.F.);
#92=ORIENTED_EDGE('',*,*,#242,.F.);
#93=ORIENTED_EDGE('',*,*,#243,.T.);
#94=ORIENTED_EDGE('',*,*,#244,.T.);
#95=ORIENTED_EDGE('',*,*,#245,.T.);
#96=ORIENTED_EDGE('',*,*,#243,.F.);
#97=ORIENTED_EDGE('',*,*,#246,.F.);
#98=ORIENTED_EDGE('',*,*,#247,.T.);
#99=ORIENTED_EDGE('',*,*,#248,.T.);
#100=ORIENTED_EDGE('',*,*,#249,.F.);
#101=ORIENTED_EDGE('',*,*,#247,.F.);
#102=ORIENTED_EDGE('',*,*,#250,.T.);
#103=ORIENTED_EDGE('',*,*,#251,.F.);
#104=ORIENTED_EDGE('',*,*,#248,.F.);
#105=ORIENTED_EDGE('',*,*,#252,.T.);
#106=ORIENTED_EDGE('',*,*,#241,.T.);
#107=ORIENTED_EDGE('',*,*,#242,.T.);
#108=ORIENTED_EDGE('',*,*,#252,.F.);
#109=ORIENTED_EDGE('',*,*,#250,.F.);
#110=ORIENTED_EDGE('',*,*,#246,.T.);
#111=ORIENTED_EDGE('',*,*,#222,.T.);
#112=ORIENTED_EDGE('',*,*,#233,.T.);
#113=ORIENTED_EDGE('',*,*,#230,.F.);
#114=ORIENTED_EDGE('',*,*,#225,.F.);
#115=ORIENTED_EDGE('',*,*,#208,.T.);
#116=ORIENTED_EDGE('',*,*,#211,.T.);
#117=ORIENTED_EDGE('',*,*,#214,.T.);
#118=ORIENTED_EDGE('',*,*,#217,.T.);
#119=ORIENTED_EDGE('',*,*,#249,.T.);
#120=ORIENTED_EDGE('',*,*,#251,.T.);
#121=ORIENTED_EDGE('',*,*,#244,.F.);
#122=ORIENTED_EDGE('',*,*,#245,.F.);
#123=ORIENTED_EDGE('',*,*,#253,.T.);
#124=ORIENTED_EDGE('',*,*,#254,.T.);
#125=ORIENTED_EDGE('',*,*,#255,.F.);
#126=ORIENTED_EDGE('',*,*,#237,.T.);
#127=ORIENTED_EDGE('',*,*,#256,.T.);
#128=ORIENTED_EDGE('',*,*,#257,.T.);
#129=ORIENTED_EDGE('',*,*,#253,.F.);
#130=ORIENTED_EDGE('',*,*,#240,.T.);
#131=ORIENTED_EDGE('',*,*,#258,.F.);
#132=ORIENTED_EDGE('',*,*,#256,.F.);
#133=ORIENTED_EDGE('',*,*,#239,.F.);
#134=ORIENTED_EDGE('',*,*,#259,.T.);
#135=ORIENTED_EDGE('',*,*,#260,.F.);
#136=ORIENTED_EDGE('',*,*,#259,.F.);
#137=ORIENTED_EDGE('',*,*,#238,.F.);
#138=ORIENTED_EDGE('',*,*,#255,.T.);
#139=ORIENTED_EDGE('',*,*,#261,.T.);
#140=ORIENTED_EDGE('',*,*,#262,.T.);
#141=ORIENTED_EDGE('',*,*,#263,.F.);
#142=ORIENTED_EDGE('',*,*,#199,.T.);
#143=ORIENTED_EDGE('',*,*,#264,.F.);
#144=ORIENTED_EDGE('',*,*,#261,.F.);
#145=ORIENTED_EDGE('',*,*,#202,.F.);
#146=ORIENTED_EDGE('',*,*,#265,.T.);
#147=ORIENTED_EDGE('',*,*,#266,.F.);
#148=ORIENTED_EDGE('',*,*,#265,.F.);
#149=ORIENTED_EDGE('',*,*,#201,.F.);
#150=ORIENTED_EDGE('',*,*,#267,.T.);
#151=ORIENTED_EDGE('',*,*,#263,.T.);
#152=ORIENTED_EDGE('',*,*,#268,.T.);
#153=ORIENTED_EDGE('',*,*,#267,.F.);
#154=ORIENTED_EDGE('',*,*,#200,.T.);
#155=ORIENTED_EDGE('',*,*,#269,.F.);
#156=ORIENTED_EDGE('',*,*,#270,.T.);
#157=ORIENTED_EDGE('',*,*,#234,.F.);
#158=ORIENTED_EDGE('',*,*,#271,.T.);
#159=ORIENTED_EDGE('',*,*,#205,.T.);
#160=ORIENTED_EDGE('',*,*,#272,.T.);
#161=ORIENTED_EDGE('',*,*,#273,.T.);
#162=ORIENTED_EDGE('',*,*,#274,.T.);
#163=ORIENTED_EDGE('',*,*,#273,.F.);
#164=ORIENTED_EDGE('',*,*,#275,.T.);
#165=ORIENTED_EDGE('',*,*,#269,.T.);
#166=ORIENTED_EDGE('',*,*,#276,.T.);
#167=ORIENTED_EDGE('',*,*,#262,.F.);
#168=ORIENTED_EDGE('',*,*,#264,.T.);
#169=ORIENTED_EDGE('',*,*,#266,.T.);
#170=ORIENTED_EDGE('',*,*,#268,.F.);
#171=ORIENTED_EDGE('',*,*,#254,.F.);
#172=ORIENTED_EDGE('',*,*,#257,.F.);
#173=ORIENTED_EDGE('',*,*,#258,.T.);
#174=ORIENTED_EDGE('',*,*,#260,.T.);
#175=ORIENTED_EDGE('',*,*,#218,.F.);
#176=ORIENTED_EDGE('',*,*,#216,.F.);
#177=ORIENTED_EDGE('',*,*,#213,.F.);
#178=ORIENTED_EDGE('',*,*,#215,.F.);
#179=ORIENTED_EDGE('',*,*,#212,.F.);
#180=ORIENTED_EDGE('',*,*,#210,.F.);
#181=ORIENTED_EDGE('',*,*,#207,.F.);
#182=ORIENTED_EDGE('',*,*,#209,.F.);
#183=ORIENTED_EDGE('',*,*,#272,.F.);
#184=ORIENTED_EDGE('',*,*,#204,.F.);
#185=ORIENTED_EDGE('',*,*,#231,.F.);
#186=ORIENTED_EDGE('',*,*,#220,.F.);
#187=ORIENTED_EDGE('',*,*,#224,.F.);
#188=ORIENTED_EDGE('',*,*,#235,.F.);
#189=ORIENTED_EDGE('',*,*,#270,.F.);
#190=ORIENTED_EDGE('',*,*,#275,.F.);
#191=ORIENTED_EDGE('',*,*,#227,.F.);
#192=ORIENTED_EDGE('',*,*,#229,.F.);
#193=ORIENTED_EDGE('',*,*,#232,.F.);
#194=ORIENTED_EDGE('',*,*,#206,.F.);
#195=ORIENTED_EDGE('',*,*,#274,.F.);
#196=ORIENTED_EDGE('',*,*,#276,.F.);
#197=ORIENTED_EDGE('',*,*,#271,.F.);
#198=ORIENTED_EDGE('',*,*,#236,.F.);
#199=EDGE_CURVE('',#277,#278,#333,.T.);
#200=EDGE_CURVE('',#279,#277,#334,.T.);
#201=EDGE_CURVE('',#279,#280,#335,.T.);
#202=EDGE_CURVE('',#280,#278,#336,.T.);
#203=EDGE_CURVE('',#281,#282,#337,.T.);
#204=EDGE_CURVE('',#281,#283,#338,.F.);
#205=EDGE_CURVE('',#284,#283,#339,.T.);
#206=EDGE_CURVE('',#284,#282,#340,.T.);
#207=EDGE_CURVE('',#285,#285,#17,.T.);
#208=EDGE_CURVE('',#286,#286,#18,.T.);
#209=EDGE_CURVE('',#287,#287,#19,.F.);
#210=EDGE_CURVE('',#288,#288,#20,.T.);
#211=EDGE_CURVE('',#289,#289,#21,.T.);
#212=EDGE_CURVE('',#290,#290,#22,.F.);
#213=EDGE_CURVE('',#291,#291,#23,.T.);
#214=EDGE_CURVE('',#292,#292,#24,.T.);
#215=EDGE_CURVE('',#293,#293,#25,.F.);
#216=EDGE_CURVE('',#294,#294,#26,.T.);
#217=EDGE_CURVE('',#295,#295,#27,.T.);
#218=EDGE_CURVE('',#296,#296,#28,.F.);
#219=EDGE_CURVE('',#297,#298,#341,.T.);
#220=EDGE_CURVE('',#297,#299,#342,.T.);
#221=EDGE_CURVE('',#299,#300,#343,.T.);
#222=EDGE_CURVE('',#298,#300,#344,.T.);
#223=EDGE_CURVE('',#301,#302,#345,.T.);
#224=EDGE_CURVE('',#301,#297,#29,.F.);
#225=EDGE_CURVE('',#298,#303,#346,.T.);
#226=EDGE_CURVE('',#304,#303,#347,.T.);
#227=EDGE_CURVE('',#304,#302,#30,.F.);
#228=EDGE_CURVE('',#305,#306,#348,.T.);
#229=EDGE_CURVE('',#305,#304,#349,.F.);
#230=EDGE_CURVE('',#303,#306,#350,.T.);
#231=EDGE_CURVE('',#299,#281,#31,.T.);
#232=EDGE_CURVE('',#282,#305,#32,.T.);
#233=EDGE_CURVE('',#300,#306,#351,.T.);
#234=EDGE_CURVE('',#307,#308,#352,.T.);
#235=EDGE_CURVE('',#308,#301,#353,.F.);
#236=EDGE_CURVE('',#302,#307,#354,.T.);
#237=EDGE_CURVE('',#309,#310,#355,.T.);
#238=EDGE_CURVE('',#309,#311,#356,.T.);
#239=EDGE_CURVE('',#311,#312,#357,.T.);
#240=EDGE_CURVE('',#310,#312,#358,.T.);
#241=EDGE_CURVE('',#313,#314,#359,.T.);
#242=EDGE_CURVE('',#315,#313,#360,.T.);
#243=EDGE_CURVE('',#315,#316,#361,.T.);
#244=EDGE_CURVE('',#316,#314,#362,.T.);
#245=EDGE_CURVE('',#317,#316,#363,.T.);
#246=EDGE_CURVE('',#318,#315,#364,.T.);
#247=EDGE_CURVE('',#318,#317,#365,.T.);
#248=EDGE_CURVE('',#319,#320,#366,.T.);
#249=EDGE_CURVE('',#317,#320,#367,.T.);
#250=EDGE_CURVE('',#318,#319,#368,.T.);
#251=EDGE_CURVE('',#320,#314,#369,.T.);
#252=EDGE_CURVE('',#319,#313,#370,.T.);
#253=EDGE_CURVE('',#310,#321,#371,.T.);
#254=EDGE_CURVE('',#321,#322,#372,.T.);
#255=EDGE_CURVE('',#309,#322,#373,.T.);
#256=EDGE_CURVE('',#312,#323,#374,.T.);
#257=EDGE_CURVE('',#323,#321,#375,.T.);
#258=EDGE_CURVE('',#323,#324,#376,.T.);
#259=EDGE_CURVE('',#311,#324,#377,.T.);
#260=EDGE_CURVE('',#324,#322,#378,.T.);
#261=EDGE_CURVE('',#278,#325,#379,.T.);
#262=EDGE_CURVE('',#325,#326,#380,.T.);
#263=EDGE_CURVE('',#277,#326,#381,.T.);
#264=EDGE_CURVE('',#325,#327,#382,.T.);
#265=EDGE_CURVE('',#280,#327,#383,.T.);
#266=EDGE_CURVE('',#327,#328,#384,.T.);
#267=EDGE_CURVE('',#279,#328,#385,.T.);
#268=EDGE_CURVE('',#326,#328,#386,.T.);
#269=EDGE_CURVE('',#329,#330,#387,.T.);
#270=EDGE_CURVE('',#329,#308,#33,.T.);
#271=EDGE_CURVE('',#307,#330,#34,.T.);
#272=EDGE_CURVE('',#283,#331,#35,.F.);
#273=EDGE_CURVE('',#331,#332,#388,.T.);
#274=EDGE_CURVE('',#332,#284,#36,.F.);
#275=EDGE_CURVE('',#331,#329,#389,.F.);
#276=EDGE_CURVE('',#330,#332,#390,.F.);
#277=VERTEX_POINT('',#1061);
#278=VERTEX_POINT('',#1062);
#279=VERTEX_POINT('',#1064);
#280=VERTEX_POINT('',#1066);
#281=VERTEX_POINT('',#1069);
#282=VERTEX_POINT('',#1070);
#283=VERTEX_POINT('',#1072);
#284=VERTEX_POINT('',#1074);
#285=VERTEX_POINT('',#1078);
#286=VERTEX_POINT('',#1080);
#287=VERTEX_POINT('',#1083);
#288=VERTEX_POINT('',#1086);
#289=VERTEX_POINT('',#1088);
#290=VERTEX_POINT('',#1091);
#291=VERTEX_POINT('',#1094);
#292=VERTEX_POINT('',#1096);
#293=VERTEX_POINT('',#1099);
#294=VERTEX_POINT('',#1102);
#295=VERTEX_POINT('',#1104);
#296=VERTEX_POINT('',#1107);
#297=VERTEX_POINT('',#1110);
#298=VERTEX_POINT('',#1111);
#299=VERTEX_POINT('',#1113);
#300=VERTEX_POINT('',#1115);
#301=VERTEX_POINT('',#1119);
#302=VERTEX_POINT('',#1120);
#303=VERTEX_POINT('',#1123);
#304=VERTEX_POINT('',#1125);
#305=VERTEX_POINT('',#1129);
#306=VERTEX_POINT('',#1130);
#307=VERTEX_POINT('',#1139);
#308=VERTEX_POINT('',#1140);
#309=VERTEX_POINT('',#1144);
#310=VERTEX_POINT('',#1145);
#311=VERTEX_POINT('',#1147);
#312=VERTEX_POINT('',#1149);
#313=VERTEX_POINT('',#1153);
#314=VERTEX_POINT('',#1154);
#315=VERTEX_POINT('',#1156);
#316=VERTEX_POINT('',#1158);
#317=VERTEX_POINT('',#1162);
#318=VERTEX_POINT('',#1164);
#319=VERTEX_POINT('',#1168);
#320=VERTEX_POINT('',#1169);
#321=VERTEX_POINT('',#1179);
#322=VERTEX_POINT('',#1181);
#323=VERTEX_POINT('',#1185);
#324=VERTEX_POINT('',#1189);
#325=VERTEX_POINT('',#1195);
#326=VERTEX_POINT('',#1197);
#327=VERTEX_POINT('',#1201);
#328=VERTEX_POINT('',#1205);
#329=VERTEX_POINT('',#1211);
#330=VERTEX_POINT('',#1212);
#331=VERTEX_POINT('',#1217);
#332=VERTEX_POINT('',#1219);
#333=LINE('',#1060,#391);
#334=LINE('',#1063,#392);
#335=LINE('',#1065,#393);
#336=LINE('',#1067,#394);
#337=LINE('',#1068,#395);
#338=LINE('',#1071,#396);
#339=LINE('',#1073,#397);
#340=LINE('',#1075,#398);
#341=LINE('',#1109,#399);
#342=LINE('',#1112,#400);
#343=LINE('',#1114,#401);
#344=LINE('',#1116,#402);
#345=LINE('',#1118,#403);
#346=LINE('',#1122,#404);
#347=LINE('',#1124,#405);
#348=LINE('',#1128,#406);
#349=LINE('',#1131,#407);
#350=LINE('',#1132,#408);
#351=LINE('',#1136,#409);
#352=LINE('',#1138,#410);
#353=LINE('',#1141,#411);
#354=LINE('',#1142,#412);
#355=LINE('',#1143,#413);
#356=LINE('',#1146,#414);
#357=LINE('',#1148,#415);
#358=LINE('',#1150,#416);
#359=LINE('',#1152,#417);
#360=LINE('',#1155,#418);
#361=LINE('',#1157,#419);
#362=LINE('',#1159,#420);
#363=LINE('',#1161,#421);
#364=LINE('',#1163,#422);
#365=LINE('',#1165,#423);
#366=LINE('',#1167,#424);
#367=LINE('',#1170,#425);
#368=LINE('',#1171,#426);
#369=LINE('',#1173,#427);
#370=LINE('',#1174,#428);
#371=LINE('',#1178,#429);
#372=LINE('',#1180,#430);
#373=LINE('',#1182,#431);
#374=LINE('',#1184,#432);
#375=LINE('',#1186,#433);
#376=LINE('',#1188,#434);
#377=LINE('',#1190,#435);
#378=LINE('',#1192,#436);
#379=LINE('',#1194,#437);
#380=LINE('',#1196,#438);
#381=LINE('',#1198,#439);
#382=LINE('',#1200,#440);
#383=LINE('',#1202,#441);
#384=LINE('',#1204,#442);
#385=LINE('',#1206,#443);
#386=LINE('',#1208,#444);
#387=LINE('',#1210,#445);
#388=LINE('',#1218,#446);
#389=LINE('',#1222,#447);
#390=LINE('',#1223,#448);
#391=VECTOR('',#884,1.);
#392=VECTOR('',#885,1.);
#393=VECTOR('',#886,1.);
#394=VECTOR('',#887,1.);
#395=VECTOR('',#888,1.);
#396=VECTOR('',#889,1.);
#397=VECTOR('',#890,1.);
#398=VECTOR('',#891,1.);
#399=VECTOR('',#934,1.);
#400=VECTOR('',#935,1.);
#401=VECTOR('',#936,1.);
#402=VECTOR('',#937,1.);
#403=VECTOR('',#940,1.);
#404=VECTOR('',#943,1.);
#405=VECTOR('',#944,1.);
#406=VECTOR('',#949,1.);
#407=VECTOR('',#950,1.);
#408=VECTOR('',#951,1.);
#409=VECTOR('',#958,1.);
#410=VECTOR('',#961,1.);
#411=VECTOR('',#962,1.);
#412=VECTOR('',#963,1.);
#413=VECTOR('',#964,1.);
#414=VECTOR('',#965,1.);
#415=VECTOR('',#966,1.);
#416=VECTOR('',#967,1.);
#417=VECTOR('',#970,1.);
#418=VECTOR('',#971,1.);
#419=VECTOR('',#972,1.);
#420=VECTOR('',#973,1.);
#421=VECTOR('',#976,1.);
#422=VECTOR('',#977,1.);
#423=VECTOR('',#978,1.);
#424=VECTOR('',#981,1.);
#425=VECTOR('',#982,1.);
#426=VECTOR('',#983,1.);
#427=VECTOR('',#986,1.);
#428=VECTOR('',#987,1.);
#429=VECTOR('',#994,1.);
#430=VECTOR('',#995,1.);
#431=VECTOR('',#996,1.);
#432=VECTOR('',#999,1.);
#433=VECTOR('',#1000,1.);
#434=VECTOR('',#1003,1.);
#435=VECTOR('',#1004,1.);
#436=VECTOR('',#1007,1.);
#437=VECTOR('',#1010,1.);
#438=VECTOR('',#1011,1.);
#439=VECTOR('',#1012,1.);
#440=VECTOR('',#1015,1.);
#441=VECTOR('',#1016,1.);
#442=VECTOR('',#1019,1.);
#443=VECTOR('',#1020,1.);
#444=VECTOR('',#1023,1.);
#445=VECTOR('',#1026,1.);
#446=VECTOR('',#1035,1.);
#447=VECTOR('',#1040,1.);
#448=VECTOR('',#1041,1.);
#449=EDGE_LOOP('',(#43,#44,#45,#46));
#450=EDGE_LOOP('',(#47,#48,#49,#50));
#451=EDGE_LOOP('',(#51));
#452=EDGE_LOOP('',(#52));
#453=EDGE_LOOP('',(#53));
#454=EDGE_LOOP('',(#54));
#455=EDGE_LOOP('',(#55));
#456=EDGE_LOOP('',(#56));
#457=EDGE_LOOP('',(#57));
#458=EDGE_LOOP('',(#58));
#459=EDGE_LOOP('',(#59));
#460=EDGE_LOOP('',(#60));
#461=EDGE_LOOP('',(#61));
#462=EDGE_LOOP('',(#62));
#463=EDGE_LOOP('',(#63,#64,#65,#66));
#464=EDGE_LOOP('',(#67,#68,#69,#70,#71,#72));
#465=EDGE_LOOP('',(#73,#74,#75,#76));
#466=EDGE_LOOP('',(#77,#78,#79,#80,#81,#82));
#467=EDGE_LOOP('',(#83,#84,#85,#86));
#468=EDGE_LOOP('',(#87,#88,#89,#90));
#469=EDGE_LOOP('',(#91,#92,#93,#94));
#470=EDGE_LOOP('',(#95,#96,#97,#98));
#471=EDGE_LOOP('',(#99,#100,#101,#102));
#472=EDGE_LOOP('',(#103,#104,#105,#106));
#473=EDGE_LOOP('',(#107,#108,#109,#110));
#474=EDGE_LOOP('',(#111,#112,#113,#114));
#475=EDGE_LOOP('',(#115));
#476=EDGE_LOOP('',(#116));
#477=EDGE_LOOP('',(#117));
#478=EDGE_LOOP('',(#118));
#479=EDGE_LOOP('',(#119,#120,#121,#122));
#480=EDGE_LOOP('',(#123,#124,#125,#126));
#481=EDGE_LOOP('',(#127,#128,#129,#130));
#482=EDGE_LOOP('',(#131,#132,#133,#134));
#483=EDGE_LOOP('',(#135,#136,#137,#138));
#484=EDGE_LOOP('',(#139,#140,#141,#142));
#485=EDGE_LOOP('',(#143,#144,#145,#146));
#486=EDGE_LOOP('',(#147,#148,#149,#150));
#487=EDGE_LOOP('',(#151,#152,#153,#154));
#488=EDGE_LOOP('',(#155,#156,#157,#158));
#489=EDGE_LOOP('',(#159,#160,#161,#162));
#490=EDGE_LOOP('',(#163,#164,#165,#166));
#491=EDGE_LOOP('',(#167,#168,#169,#170));
#492=EDGE_LOOP('',(#171,#172,#173,#174));
#493=EDGE_LOOP('',(#175));
#494=EDGE_LOOP('',(#176));
#495=EDGE_LOOP('',(#177));
#496=EDGE_LOOP('',(#178));
#497=EDGE_LOOP('',(#179));
#498=EDGE_LOOP('',(#180));
#499=EDGE_LOOP('',(#181));
#500=EDGE_LOOP('',(#182));
#501=EDGE_LOOP('',(#183,#184,#185,#186,#187,#188,#189,#190));
#502=EDGE_LOOP('',(#191,#192,#193,#194,#195,#196,#197,#198));
#503=FACE_BOUND('',#449,.T.);
#504=FACE_BOUND('',#450,.T.);
#505=FACE_BOUND('',#451,.T.);
#506=FACE_BOUND('',#452,.T.);
#507=FACE_BOUND('',#453,.T.);
#508=FACE_BOUND('',#454,.T.);
#509=FACE_BOUND('',#455,.T.);
#510=FACE_BOUND('',#456,.T.);
#511=FACE_BOUND('',#457,.T.);
#512=FACE_BOUND('',#458,.T.);
#513=FACE_BOUND('',#459,.T.);
#514=FACE_BOUND('',#460,.T.);
#515=FACE_BOUND('',#461,.T.);
#516=FACE_BOUND('',#462,.T.);
#517=FACE_BOUND('',#463,.T.);
#518=FACE_BOUND('',#464,.T.);
#519=FACE_BOUND('',#465,.T.);
#520=FACE_BOUND('',#466,.T.);
#521=FACE_BOUND('',#467,.T.);
#522=FACE_BOUND('',#468,.T.);
#523=FACE_BOUND('',#469,.T.);
#524=FACE_BOUND('',#470,.T.);
#525=FACE_BOUND('',#471,.T.);
#526=FACE_BOUND('',#472,.T.);
#527=FACE_BOUND('',#473,.T.);
#528=FACE_BOUND('',#474,.T.);
#529=FACE_BOUND('',#475,.T.);
#530=FACE_BOUND('',#476,.T.);
#531=FACE_BOUND('',#477,.T.);
#532=FACE_BOUND('',#478,.T.);
#533=FACE_BOUND('',#479,.T.);
#534=FACE_BOUND('',#480,.T.);
#535=FACE_BOUND('',#481,.T.);
#536=FACE_BOUND('',#482,.T.);
#537=FACE_BOUND('',#483,.T.);
#538=FACE_BOUND('',#484,.T.);
#539=FACE_BOUND('',#485,.T.);
#540=FACE_BOUND('',#486,.T.);
#541=FACE_BOUND('',#487,.T.);
#542=FACE_BOUND('',#488,.T.);
#543=FACE_BOUND('',#489,.T.);
#544=FACE_BOUND('',#490,.T.);
#545=FACE_BOUND('',#491,.T.);
#546=FACE_BOUND('',#492,.T.);
#547=FACE_BOUND('',#493,.T.);
#548=FACE_BOUND('',#494,.T.);
#549=FACE_BOUND('',#495,.T.);
#550=FACE_BOUND('',#496,.T.);
#551=FACE_BOUND('',#497,.T.);
#552=FACE_BOUND('',#498,.T.);
#553=FACE_BOUND('',#499,.T.);
#554=FACE_BOUND('',#500,.T.);
#555=FACE_BOUND('',#501,.T.);
#556=FACE_BOUND('',#502,.T.);
#557=PLANE('',#821);
#558=PLANE('',#825);
#559=PLANE('',#830);
#560=PLANE('',#835);
#561=PLANE('',#840);
#562=PLANE('',#842);
#563=PLANE('',#843);
#564=PLANE('',#846);
#565=PLANE('',#847);
#566=PLANE('',#850);
#567=PLANE('',#851);
#568=PLANE('',#852);
#569=PLANE('',#853);
#570=PLANE('',#854);
#571=PLANE('',#855);
#572=PLANE('',#856);
#573=PLANE('',#857);
#574=PLANE('',#858);
#575=PLANE('',#859);
#576=PLANE('',#860);
#577=PLANE('',#861);
#578=PLANE('',#862);
#579=PLANE('',#863);
#580=PLANE('',#864);
#581=PLANE('',#865);
#582=PLANE('',#868);
#583=PLANE('',#871);
#584=PLANE('',#872);
#585=PLANE('',#873);
#586=OVER_RIDING_STYLED_ITEM('',(#654),#612,#652);
#587=OVER_RIDING_STYLED_ITEM('',(#655),#621,#652);
#588=OVER_RIDING_STYLED_ITEM('',(#656),#622,#652);
#589=OVER_RIDING_STYLED_ITEM('',(#657),#623,#652);
#590=OVER_RIDING_STYLED_ITEM('',(#658),#624,#652);
#591=OVER_RIDING_STYLED_ITEM('',(#659),#625,#652);
#592=OVER_RIDING_STYLED_ITEM('',(#660),#626,#652);
#593=OVER_RIDING_STYLED_ITEM('',(#661),#627,#652);
#594=OVER_RIDING_STYLED_ITEM('',(#662),#628,#652);
#595=OVER_RIDING_STYLED_ITEM('',(#663),#629,#652);
#596=OVER_RIDING_STYLED_ITEM('',(#664),#631,#652);
#597=OVER_RIDING_STYLED_ITEM('',(#665),#632,#652);
#598=OVER_RIDING_STYLED_ITEM('',(#666),#633,#652);
#599=OVER_RIDING_STYLED_ITEM('',(#667),#634,#652);
#600=OVER_RIDING_STYLED_ITEM('',(#668),#635,#652);
#601=OVER_RIDING_STYLED_ITEM('',(#669),#636,#652);
#602=OVER_RIDING_STYLED_ITEM('',(#670),#637,#652);
#603=OVER_RIDING_STYLED_ITEM('',(#671),#638,#652);
#604=OVER_RIDING_STYLED_ITEM('',(#672),#639,#652);
#605=OVER_RIDING_STYLED_ITEM('',(#673),#640,#652);
#606=OVER_RIDING_STYLED_ITEM('',(#674),#641,#652);
#607=OVER_RIDING_STYLED_ITEM('',(#675),#642,#652);
#608=OVER_RIDING_STYLED_ITEM('',(#676),#643,#652);
#609=OVER_RIDING_STYLED_ITEM('',(#677),#644,#652);
#610=OVER_RIDING_STYLED_ITEM('',(#678),#649,#652);
#611=OVER_RIDING_STYLED_ITEM('',(#679),#650,#652);
#612=ADVANCED_FACE('',(#503,#504),#557,.T.);
#613=ADVANCED_FACE('',(#505,#506),#37,.T.);
#614=ADVANCED_FACE('',(#507),#558,.F.);
#615=ADVANCED_FACE('',(#508,#509),#38,.T.);
#616=ADVANCED_FACE('',(#510),#559,.F.);
#617=ADVANCED_FACE('',(#511,#512),#39,.T.);
#618=ADVANCED_FACE('',(#513),#560,.F.);
#619=ADVANCED_FACE('',(#514,#515),#40,.T.);
#620=ADVANCED_FACE('',(#516),#561,.F.);
#621=ADVANCED_FACE('',(#517),#562,.T.);
#622=ADVANCED_FACE('',(#518),#563,.F.);
#623=ADVANCED_FACE('',(#519),#564,.F.);
#624=ADVANCED_FACE('',(#520),#565,.T.);
#625=ADVANCED_FACE('',(#521,#522),#566,.T.);
#626=ADVANCED_FACE('',(#523),#567,.F.);
#627=ADVANCED_FACE('',(#524),#568,.F.);
#628=ADVANCED_FACE('',(#525),#569,.T.);
#629=ADVANCED_FACE('',(#526),#570,.T.);
#630=ADVANCED_FACE('',(#527,#528),#571,.F.);
#631=ADVANCED_FACE('',(#529,#530,#531,#532,#533),#572,.F.);
#632=ADVANCED_FACE('',(#534),#573,.F.);
#633=ADVANCED_FACE('',(#535),#574,.F.);
#634=ADVANCED_FACE('',(#536),#575,.T.);
#635=ADVANCED_FACE('',(#537),#576,.T.);
#636=ADVANCED_FACE('',(#538),#577,.F.);
#637=ADVANCED_FACE('',(#539),#578,.T.);
#638=ADVANCED_FACE('',(#540),#579,.T.);
#639=ADVANCED_FACE('',(#541),#580,.F.);
#640=ADVANCED_FACE('',(#542),#581,.T.);
#641=ADVANCED_FACE('',(#543),#582,.F.);
#642=ADVANCED_FACE('',(#544),#583,.T.);
#643=ADVANCED_FACE('',(#545),#584,.T.);
#644=ADVANCED_FACE('',(#546),#585,.T.);
#645=ADVANCED_FACE('',(#547,#548),#12,.T.);
#646=ADVANCED_FACE('',(#549,#550),#13,.T.);
#647=ADVANCED_FACE('',(#551,#552),#14,.T.);
#648=ADVANCED_FACE('',(#553,#554),#15,.T.);
#649=ADVANCED_FACE('',(#555),#41,.T.);
#650=ADVANCED_FACE('',(#556),#42,.T.);
#651=CLOSED_SHELL('',(#612,#613,#614,#615,#616,#617,#618,#619,#620,#621,
#622,#623,#624,#625,#626,#627,#628,#629,#630,#631,#632,#633,#634,#635,#636,
#637,#638,#639,#640,#641,#642,#643,#644,#645,#646,#647,#648,#649,#650));
#652=STYLED_ITEM('',(#653),#817);
#653=PRESENTATION_STYLE_ASSIGNMENT((#680));
#654=PRESENTATION_STYLE_ASSIGNMENT((#681));
#655=PRESENTATION_STYLE_ASSIGNMENT((#682));
#656=PRESENTATION_STYLE_ASSIGNMENT((#683));
#657=PRESENTATION_STYLE_ASSIGNMENT((#684));
#658=PRESENTATION_STYLE_ASSIGNMENT((#685));
#659=PRESENTATION_STYLE_ASSIGNMENT((#686));
#660=PRESENTATION_STYLE_ASSIGNMENT((#687));
#661=PRESENTATION_STYLE_ASSIGNMENT((#688));
#662=PRESENTATION_STYLE_ASSIGNMENT((#689));
#663=PRESENTATION_STYLE_ASSIGNMENT((#690));
#664=PRESENTATION_STYLE_ASSIGNMENT((#691));
#665=PRESENTATION_STYLE_ASSIGNMENT((#692));
#666=PRESENTATION_STYLE_ASSIGNMENT((#693));
#667=PRESENTATION_STYLE_ASSIGNMENT((#694));
#668=PRESENTATION_STYLE_ASSIGNMENT((#695));
#669=PRESENTATION_STYLE_ASSIGNMENT((#696));
#670=PRESENTATION_STYLE_ASSIGNMENT((#697));
#671=PRESENTATION_STYLE_ASSIGNMENT((#698));
#672=PRESENTATION_STYLE_ASSIGNMENT((#699));
#673=PRESENTATION_STYLE_ASSIGNMENT((#700));
#674=PRESENTATION_STYLE_ASSIGNMENT((#701));
#675=PRESENTATION_STYLE_ASSIGNMENT((#702));
#676=PRESENTATION_STYLE_ASSIGNMENT((#703));
#677=PRESENTATION_STYLE_ASSIGNMENT((#704));
#678=PRESENTATION_STYLE_ASSIGNMENT((#705));
#679=PRESENTATION_STYLE_ASSIGNMENT((#706));
#680=SURFACE_STYLE_USAGE(.BOTH.,#707);
#681=SURFACE_STYLE_USAGE(.BOTH.,#708);
#682=SURFACE_STYLE_USAGE(.BOTH.,#709);
#683=SURFACE_STYLE_USAGE(.BOTH.,#710);
#684=SURFACE_STYLE_USAGE(.BOTH.,#711);
#685=SURFACE_STYLE_USAGE(.BOTH.,#712);
#686=SURFACE_STYLE_USAGE(.BOTH.,#713);
#687=SURFACE_STYLE_USAGE(.BOTH.,#714);
#688=SURFACE_STYLE_USAGE(.BOTH.,#715);
#689=SURFACE_STYLE_USAGE(.BOTH.,#716);
#690=SURFACE_STYLE_USAGE(.BOTH.,#717);
#691=SURFACE_STYLE_USAGE(.BOTH.,#718);
#692=SURFACE_STYLE_USAGE(.BOTH.,#719);
#693=SURFACE_STYLE_USAGE(.BOTH.,#720);
#694=SURFACE_STYLE_USAGE(.BOTH.,#721);
#695=SURFACE_STYLE_USAGE(.BOTH.,#722);
#696=SURFACE_STYLE_USAGE(.BOTH.,#723);
#697=SURFACE_STYLE_USAGE(.BOTH.,#724);
#698=SURFACE_STYLE_USAGE(.BOTH.,#725);
#699=SURFACE_STYLE_USAGE(.BOTH.,#726);
#700=SURFACE_STYLE_USAGE(.BOTH.,#727);
#701=SURFACE_STYLE_USAGE(.BOTH.,#728);
#702=SURFACE_STYLE_USAGE(.BOTH.,#729);
#703=SURFACE_STYLE_USAGE(.BOTH.,#730);
#704=SURFACE_STYLE_USAGE(.BOTH.,#731);
#705=SURFACE_STYLE_USAGE(.BOTH.,#732);
#706=SURFACE_STYLE_USAGE(.BOTH.,#733);
#707=SURFACE_SIDE_STYLE('',(#734));
#708=SURFACE_SIDE_STYLE('',(#735));
#709=SURFACE_SIDE_STYLE('',(#736));
#710=SURFACE_SIDE_STYLE('',(#737));
#711=SURFACE_SIDE_STYLE('',(#738));
#712=SURFACE_SIDE_STYLE('',(#739));
#713=SURFACE_SIDE_STYLE('',(#740));
#714=SURFACE_SIDE_STYLE('',(#741));
#715=SURFACE_SIDE_STYLE('',(#742));
#716=SURFACE_SIDE_STYLE('',(#743));
#717=SURFACE_SIDE_STYLE('',(#744));
#718=SURFACE_SIDE_STYLE('',(#745));
#719=SURFACE_SIDE_STYLE('',(#746));
#720=SURFACE_SIDE_STYLE('',(#747));
#721=SURFACE_SIDE_STYLE('',(#748));
#722=SURFACE_SIDE_STYLE('',(#749));
#723=SURFACE_SIDE_STYLE('',(#750));
#724=SURFACE_SIDE_STYLE('',(#751));
#725=SURFACE_SIDE_STYLE('',(#752));
#726=SURFACE_SIDE_STYLE('',(#753));
#727=SURFACE_SIDE_STYLE('',(#754));
#728=SURFACE_SIDE_STYLE('',(#755));
#729=SURFACE_SIDE_STYLE('',(#756));
#730=SURFACE_SIDE_STYLE('',(#757));
#731=SURFACE_SIDE_STYLE('',(#758));
#732=SURFACE_SIDE_STYLE('',(#759));
#733=SURFACE_SIDE_STYLE('',(#760));
#734=SURFACE_STYLE_FILL_AREA(#761);
#735=SURFACE_STYLE_FILL_AREA(#762);
#736=SURFACE_STYLE_FILL_AREA(#763);
#737=SURFACE_STYLE_FILL_AREA(#764);
#738=SURFACE_STYLE_FILL_AREA(#765);
#739=SURFACE_STYLE_FILL_AREA(#766);
#740=SURFACE_STYLE_FILL_AREA(#767);
#741=SURFACE_STYLE_FILL_AREA(#768);
#742=SURFACE_STYLE_FILL_AREA(#769);
#743=SURFACE_STYLE_FILL_AREA(#770);
#744=SURFACE_STYLE_FILL_AREA(#771);
#745=SURFACE_STYLE_FILL_AREA(#772);
#746=SURFACE_STYLE_FILL_AREA(#773);
#747=SURFACE_STYLE_FILL_AREA(#774);
#748=SURFACE_STYLE_FILL_AREA(#775);
#749=SURFACE_STYLE_FILL_AREA(#776);
#750=SURFACE_STYLE_FILL_AREA(#777);
#751=SURFACE_STYLE_FILL_AREA(#778);
#752=SURFACE_STYLE_FILL_AREA(#779);
#753=SURFACE_STYLE_FILL_AREA(#780);
#754=SURFACE_STYLE_FILL_AREA(#781);
#755=SURFACE_STYLE_FILL_AREA(#782);
#756=SURFACE_STYLE_FILL_AREA(#783);
#757=SURFACE_STYLE_FILL_AREA(#784);
#758=SURFACE_STYLE_FILL_AREA(#785);
#759=SURFACE_STYLE_FILL_AREA(#786);
#760=SURFACE_STYLE_FILL_AREA(#787);
#761=FILL_AREA_STYLE('',(#788));
#762=FILL_AREA_STYLE('',(#789));
#763=FILL_AREA_STYLE('',(#790));
#764=FILL_AREA_STYLE('',(#791));
#765=FILL_AREA_STYLE('',(#792));
#766=FILL_AREA_STYLE('',(#793));
#767=FILL_AREA_STYLE('',(#794));
#768=FILL_AREA_STYLE('',(#795));
#769=FILL_AREA_STYLE('',(#796));
#770=FILL_AREA_STYLE('',(#797));
#771=FILL_AREA_STYLE('',(#798));
#772=FILL_AREA_STYLE('',(#799));
#773=FILL_AREA_STYLE('',(#800));
#774=FILL_AREA_STYLE('',(#801));
#775=FILL_AREA_STYLE('',(#802));
#776=FILL_AREA_STYLE('',(#803));
#777=FILL_AREA_STYLE('',(#804));
#778=FILL_AREA_STYLE('',(#805));
#779=FILL_AREA_STYLE('',(#806));
#780=FILL_AREA_STYLE('',(#807));
#781=FILL_AREA_STYLE('',(#808));
#782=FILL_AREA_STYLE('',(#809));
#783=FILL_AREA_STYLE('',(#810));
#784=FILL_AREA_STYLE('',(#811));
#785=FILL_AREA_STYLE('',(#812));
#786=FILL_AREA_STYLE('',(#813));
#787=FILL_AREA_STYLE('',(#814));
#788=FILL_AREA_STYLE_COLOUR('',#815);
#789=FILL_AREA_STYLE_COLOUR('',#816);
#790=FILL_AREA_STYLE_COLOUR('',#816);
#791=FILL_AREA_STYLE_COLOUR('',#816);
#792=FILL_AREA_STYLE_COLOUR('',#816);
#793=FILL_AREA_STYLE_COLOUR('',#816);
#794=FILL_AREA_STYLE_COLOUR('',#816);
#795=FILL_AREA_STYLE_COLOUR('',#816);
#796=FILL_AREA_STYLE_COLOUR('',#816);
#797=FILL_AREA_STYLE_COLOUR('',#816);
#798=FILL_AREA_STYLE_COLOUR('',#816);
#799=FILL_AREA_STYLE_COLOUR('',#816);
#800=FILL_AREA_STYLE_COLOUR('',#16);
#801=FILL_AREA_STYLE_COLOUR('',#16);
#802=FILL_AREA_STYLE_COLOUR('',#16);
#803=FILL_AREA_STYLE_COLOUR('',#16);
#804=FILL_AREA_STYLE_COLOUR('',#16);
#805=FILL_AREA_STYLE_COLOUR('',#16);
#806=FILL_AREA_STYLE_COLOUR('',#16);
#807=FILL_AREA_STYLE_COLOUR('',#16);
#808=FILL_AREA_STYLE_COLOUR('',#16);
#809=FILL_AREA_STYLE_COLOUR('',#16);
#810=FILL_AREA_STYLE_COLOUR('',#16);
#811=FILL_AREA_STYLE_COLOUR('',#16);
#812=FILL_AREA_STYLE_COLOUR('',#16);
#813=FILL_AREA_STYLE_COLOUR('',#816);
#814=FILL_AREA_STYLE_COLOUR('',#816);
#815=COLOUR_RGB('',0.917647058823529,0.917647058823529,0.917647058823529);
#816=COLOUR_RGB('',0.4,0.388235294117647,0.349019607843138);
#817=MANIFOLD_SOLID_BREP('Part 1',#651);
#818=SHAPE_DEFINITION_REPRESENTATION(#1238,#819);
#819=SHAPE_REPRESENTATION('Part 1',(#820),#1233);
#820=AXIS2_PLACEMENT_3D('',#1058,#880,#881);
#821=AXIS2_PLACEMENT_3D('',#1059,#882,#883);
#822=AXIS2_PLACEMENT_3D('',#1076,#892,#893);
#823=AXIS2_PLACEMENT_3D('',#1077,#894,#895);
#824=AXIS2_PLACEMENT_3D('',#1079,#896,#897);
#825=AXIS2_PLACEMENT_3D('',#1081,#898,#899);
#826=AXIS2_PLACEMENT_3D('',#1082,#900,#901);
#827=AXIS2_PLACEMENT_3D('',#1084,#902,#903);
#828=AXIS2_PLACEMENT_3D('',#1085,#904,#905);
#829=AXIS2_PLACEMENT_3D('',#1087,#906,#907);
#830=AXIS2_PLACEMENT_3D('',#1089,#908,#909);
#831=AXIS2_PLACEMENT_3D('',#1090,#910,#911);
#832=AXIS2_PLACEMENT_3D('',#1092,#912,#913);
#833=AXIS2_PLACEMENT_3D('',#1093,#914,#915);
#834=AXIS2_PLACEMENT_3D('',#1095,#916,#917);
#835=AXIS2_PLACEMENT_3D('',#1097,#918,#919);
#836=AXIS2_PLACEMENT_3D('',#1098,#920,#921);
#837=AXIS2_PLACEMENT_3D('',#1100,#922,#923);
#838=AXIS2_PLACEMENT_3D('',#1101,#924,#925);
#839=AXIS2_PLACEMENT_3D('',#1103,#926,#927);
#840=AXIS2_PLACEMENT_3D('',#1105,#928,#929);
#841=AXIS2_PLACEMENT_3D('',#1106,#930,#931);
#842=AXIS2_PLACEMENT_3D('',#1108,#932,#933);
#843=AXIS2_PLACEMENT_3D('',#1117,#938,#939);
#844=AXIS2_PLACEMENT_3D('',#1121,#941,#942);
#845=AXIS2_PLACEMENT_3D('',#1126,#945,#946);
#846=AXIS2_PLACEMENT_3D('',#1127,#947,#948);
#847=AXIS2_PLACEMENT_3D('',#1133,#952,#953);
#848=AXIS2_PLACEMENT_3D('',#1134,#954,#955);
#849=AXIS2_PLACEMENT_3D('',#1135,#956,#957);
#850=AXIS2_PLACEMENT_3D('',#1137,#959,#960);
#851=AXIS2_PLACEMENT_3D('',#1151,#968,#969);
#852=AXIS2_PLACEMENT_3D('',#1160,#974,#975);
#853=AXIS2_PLACEMENT_3D('',#1166,#979,#980);
#854=AXIS2_PLACEMENT_3D('',#1172,#984,#985);
#855=AXIS2_PLACEMENT_3D('',#1175,#988,#989);
#856=AXIS2_PLACEMENT_3D('',#1176,#990,#991);
#857=AXIS2_PLACEMENT_3D('',#1177,#992,#993);
#858=AXIS2_PLACEMENT_3D('',#1183,#997,#998);
#859=AXIS2_PLACEMENT_3D('',#1187,#1001,#1002);
#860=AXIS2_PLACEMENT_3D('',#1191,#1005,#1006);
#861=AXIS2_PLACEMENT_3D('',#1193,#1008,#1009);
#862=AXIS2_PLACEMENT_3D('',#1199,#1013,#1014);
#863=AXIS2_PLACEMENT_3D('',#1203,#1017,#1018);
#864=AXIS2_PLACEMENT_3D('',#1207,#1021,#1022);
#865=AXIS2_PLACEMENT_3D('',#1209,#1024,#1025);
#866=AXIS2_PLACEMENT_3D('',#1213,#1027,#1028);
#867=AXIS2_PLACEMENT_3D('',#1214,#1029,#1030);
#868=AXIS2_PLACEMENT_3D('',#1215,#1031,#1032);
#869=AXIS2_PLACEMENT_3D('',#1216,#1033,#1034);
#870=AXIS2_PLACEMENT_3D('',#1220,#1036,#1037);
#871=AXIS2_PLACEMENT_3D('',#1221,#1038,#1039);
#872=AXIS2_PLACEMENT_3D('',#1224,#1042,#1043);
#873=AXIS2_PLACEMENT_3D('',#1225,#1044,#1045);
#874=AXIS2_PLACEMENT_3D('',#1226,#1046,#1047);
#875=AXIS2_PLACEMENT_3D('',#1227,#1048,#1049);
#876=AXIS2_PLACEMENT_3D('',#1228,#1050,#1051);
#877=AXIS2_PLACEMENT_3D('',#1229,#1052,#1053);
#878=AXIS2_PLACEMENT_3D('',#1230,#1054,#1055);
#879=AXIS2_PLACEMENT_3D('',#1231,#1056,#1057);
#880=DIRECTION('',(0.,0.,1.));
#881=DIRECTION('',(1.,0.,0.));
#882=DIRECTION('',(0.,0.,1.));
#883=DIRECTION('',(1.,0.,0.));
#884=DIRECTION('',(-1.,0.,0.));
#885=DIRECTION('',(0.,1.,0.));
#886=DIRECTION('',(-1.,0.,0.));
#887=DIRECTION('',(-2.16840434497101E-16,1.,0.));
#888=DIRECTION('',(0.,1.,0.));
#889=DIRECTION('',(-1.,-1.21027219254196E-16,0.));
#890=DIRECTION('',(0.,-1.,0.));
#891=DIRECTION('',(-1.,-1.61369625672261E-16,0.));
#892=DIRECTION('',(0.,0.,1.));
#893=DIRECTION('',(1.,0.,0.));
#894=DIRECTION('',(0.,0.,1.));
#895=DIRECTION('',(1.,0.,0.));
#896=DIRECTION('',(0.,0.,1.));
#897=DIRECTION('',(1.,0.,0.));
#898=DIRECTION('',(0.,0.,1.));
#899=DIRECTION('',(1.,0.,0.));
#900=DIRECTION('',(0.,0.,1.));
#901=DIRECTION('',(1.,0.,0.));
#902=DIRECTION('',(0.,0.,1.));
#903=DIRECTION('',(1.,0.,0.));
#904=DIRECTION('',(0.,0.,1.));
#905=DIRECTION('',(1.,0.,0.));
#906=DIRECTION('',(0.,0.,1.));
#907=DIRECTION('',(1.,0.,0.));
#908=DIRECTION('',(0.,0.,1.));
#909=DIRECTION('',(1.,0.,0.));
#910=DIRECTION('',(0.,0.,1.));
#911=DIRECTION('',(1.,0.,0.));
#912=DIRECTION('',(0.,0.,1.));
#913=DIRECTION('',(1.,0.,0.));
#914=DIRECTION('',(0.,0.,1.));
#915=DIRECTION('',(1.,0.,0.));
#916=DIRECTION('',(0.,0.,1.));
#917=DIRECTION('',(1.,0.,0.));
#918=DIRECTION('',(0.,0.,1.));
#919=DIRECTION('',(1.,0.,0.));
#920=DIRECTION('',(0.,0.,1.));
#921=DIRECTION('',(1.,0.,0.));
#922=DIRECTION('',(0.,0.,1.));
#923=DIRECTION('',(1.,0.,0.));
#924=DIRECTION('',(0.,0.,1.));
#925=DIRECTION('',(1.,0.,0.));
#926=DIRECTION('',(0.,0.,1.));
#927=DIRECTION('',(1.,0.,0.));
#928=DIRECTION('',(0.,0.,1.));
#929=DIRECTION('',(1.,0.,0.));
#930=DIRECTION('',(0.,0.,1.));
#931=DIRECTION('',(1.,0.,0.));
#932=DIRECTION('',(1.21027219254196E-16,-1.,0.));
#933=DIRECTION('',(1.,1.21027219254196E-16,0.));
#934=DIRECTION('',(0.,0.,-1.));
#935=DIRECTION('',(-1.,-1.21027219254196E-16,0.));
#936=DIRECTION('',(0.,0.,-1.));
#937=DIRECTION('',(-1.,-1.21027219254196E-16,0.));
#938=DIRECTION('',(-1.,0.,0.));
#939=DIRECTION('',(0.,0.,1.));
#940=DIRECTION('',(0.,1.,0.));
#941=DIRECTION('',(-1.,0.,0.));
#942=DIRECTION('',(0.,0.,1.));
#943=DIRECTION('',(0.,1.,0.));
#944=DIRECTION('',(0.,0.,-1.));
#945=DIRECTION('',(-1.,0.,0.));
#946=DIRECTION('',(0.,0.,1.));
#947=DIRECTION('',(1.61369625672261E-16,-1.,0.));
#948=DIRECTION('',(1.,1.61369625672261E-16,0.));
#949=DIRECTION('',(0.,0.,-1.));
#950=DIRECTION('',(-1.,-1.61369625672261E-16,0.));
#951=DIRECTION('',(-1.,-1.61369625672261E-16,0.));
#952=DIRECTION('',(-1.,0.,0.));
#953=DIRECTION('',(0.,0.,1.));
#954=DIRECTION('',(-1.,0.,0.));
#955=DIRECTION('',(0.,0.,1.));
#956=DIRECTION('',(-1.,0.,0.));
#957=DIRECTION('',(0.,0.,1.));
#958=DIRECTION('',(0.,1.,0.));
#959=DIRECTION('',(0.,0.,1.));
#960=DIRECTION('',(1.,0.,0.));
#961=DIRECTION('',(0.,-1.,0.));
#962=DIRECTION('',(-1.,-1.21027219254196E-16,0.));
#963=DIRECTION('',(-1.,-1.61369625672261E-16,0.));
#964=DIRECTION('',(1.,0.,0.));
#965=DIRECTION('',(0.,1.,0.));
#966=DIRECTION('',(1.,0.,0.));
#967=DIRECTION('',(2.16840434497101E-16,1.,0.));
#968=DIRECTION('',(8.27793294031857E-17,-1.,0.));
#969=DIRECTION('',(1.,8.27793294031857E-17,0.));
#970=DIRECTION('',(0.,0.,-1.));
#971=DIRECTION('',(-1.,-8.27793294031857E-17,0.));
#972=DIRECTION('',(0.,0.,-1.));
#973=DIRECTION('',(-1.,-8.27793294031857E-17,0.));
#974=DIRECTION('',(-1.,0.,0.));
#975=DIRECTION('',(0.,0.,1.));
#976=DIRECTION('',(0.,1.,0.));
#977=DIRECTION('',(0.,1.,0.));
#978=DIRECTION('',(0.,0.,-1.));
#979=DIRECTION('',(1.65558658806371E-16,-1.,0.));
#980=DIRECTION('',(1.,1.65558658806371E-16,0.));
#981=DIRECTION('',(0.,0.,-1.));
#982=DIRECTION('',(-1.,-1.65558658806371E-16,0.));
#983=DIRECTION('',(-1.,-1.65558658806371E-16,0.));
#984=DIRECTION('',(-1.,0.,0.));
#985=DIRECTION('',(0.,0.,1.));
#986=DIRECTION('',(0.,1.,0.));
#987=DIRECTION('',(0.,1.,0.));
#988=DIRECTION('',(0.,0.,1.));
#989=DIRECTION('',(1.,0.,0.));
#990=DIRECTION('',(0.,0.,1.));
#991=DIRECTION('',(1.,0.,0.));
#992=DIRECTION('',(0.,-1.,0.));
#993=DIRECTION('',(0.,0.,-1.));
#994=DIRECTION('',(0.,0.,-1.));
#995=DIRECTION('',(-1.,0.,0.));
#996=DIRECTION('',(0.,0.,-1.));
#997=DIRECTION('',(1.,-2.16840434497101E-16,0.));
#998=DIRECTION('',(2.16840434497101E-16,1.,0.));
#999=DIRECTION('',(0.,0.,-1.));
#1000=DIRECTION('',(-2.16840434497101E-16,-1.,0.));
#1001=DIRECTION('',(0.,-1.,0.));
#1002=DIRECTION('',(0.,0.,-1.));
#1003=DIRECTION('',(-1.,0.,0.));
#1004=DIRECTION('',(0.,0.,-1.));
#1005=DIRECTION('',(1.,0.,0.));
#1006=DIRECTION('',(0.,0.,-1.));
#1007=DIRECTION('',(0.,-1.,0.));
#1008=DIRECTION('',(0.,1.,0.));
#1009=DIRECTION('',(0.,0.,1.));
#1010=DIRECTION('',(0.,0.,-1.));
#1011=DIRECTION('',(1.,0.,0.));
#1012=DIRECTION('',(0.,0.,-1.));
#1013=DIRECTION('',(1.,2.16840434497101E-16,0.));
#1014=DIRECTION('',(-2.16840434497101E-16,1.,0.));
#1015=DIRECTION('',(2.16840434497101E-16,-1.,0.));
#1016=DIRECTION('',(0.,0.,-1.));
#1017=DIRECTION('',(0.,1.,0.));
#1018=DIRECTION('',(0.,0.,1.));
#1019=DIRECTION('',(1.,0.,0.));
#1020=DIRECTION('',(0.,0.,-1.));
#1021=DIRECTION('',(1.,0.,0.));
#1022=DIRECTION('',(0.,0.,-1.));
#1023=DIRECTION('',(0.,-1.,0.));
#1024=DIRECTION('',(-1.,0.,0.));
#1025=DIRECTION('',(0.,0.,1.));
#1026=DIRECTION('',(0.,1.,0.));
#1027=DIRECTION('',(-1.,0.,0.));
#1028=DIRECTION('',(0.,0.,1.));
#1029=DIRECTION('',(-1.,0.,0.));
#1030=DIRECTION('',(0.,0.,1.));
#1031=DIRECTION('',(-1.,0.,0.));
#1032=DIRECTION('',(0.,0.,1.));
#1033=DIRECTION('',(-1.,0.,0.));
#1034=DIRECTION('',(0.,0.,1.));
#1035=DIRECTION('',(0.,1.,0.));
#1036=DIRECTION('',(-1.,0.,0.));
#1037=DIRECTION('',(0.,0.,1.));
#1038=DIRECTION('',(0.,0.,1.));
#1039=DIRECTION('',(1.,0.,0.));
#1040=DIRECTION('',(-1.,-1.21027219254196E-16,0.));
#1041=DIRECTION('',(1.,1.61369625672261E-16,0.));
#1042=DIRECTION('',(0.,0.,1.));
#1043=DIRECTION('',(1.,0.,0.));
#1044=DIRECTION('',(0.,0.,1.));
#1045=DIRECTION('',(1.,0.,0.));
#1046=DIRECTION('',(0.,0.,1.));
#1047=DIRECTION('',(1.,0.,0.));
#1048=DIRECTION('',(0.,0.,1.));
#1049=DIRECTION('',(1.,0.,0.));
#1050=DIRECTION('',(0.,0.,1.));
#1051=DIRECTION('',(1.,0.,0.));
#1052=DIRECTION('',(0.,0.,1.));
#1053=DIRECTION('',(1.,0.,0.));
#1054=DIRECTION('',(-1.,-1.21027219254196E-16,0.));
#1055=DIRECTION('',(1.21027219254196E-16,-1.,0.));
#1056=DIRECTION('',(1.,1.61369625672261E-16,0.));
#1057=DIRECTION('',(-1.61369625672261E-16,1.,0.));
#1058=CARTESIAN_POINT('',(0.,0.,0.));
#1059=CARTESIAN_POINT('',(0.,0.,0.0165));
#1060=CARTESIAN_POINT('',(0.,0.004,0.0165));
#1061=CARTESIAN_POINT('',(-0.0046,0.004,0.0165));
#1062=CARTESIAN_POINT('',(-0.005,0.004,0.0165));
#1063=CARTESIAN_POINT('',(-0.0046,0.,0.0165));
#1064=CARTESIAN_POINT('',(-0.0046,-0.004,0.0165));
#1065=CARTESIAN_POINT('',(0.,-0.004,0.0165));
#1066=CARTESIAN_POINT('',(-0.005,-0.004,0.0165));
#1067=CARTESIAN_POINT('',(-0.005,-1.0842021724855E-18,0.0165));
#1068=CARTESIAN_POINT('',(-0.01075,-1.7347234759768E-18,0.0165));
#1069=CARTESIAN_POINT('',(-0.01075,-0.0045,0.0165));
#1070=CARTESIAN_POINT('',(-0.01075,0.0045,0.0165));
#1071=CARTESIAN_POINT('',(5.44622486643881E-19,-0.0045,0.0165));
#1072=CARTESIAN_POINT('',(-7.20009120414034E-5,-0.0045,0.0165));
#1073=CARTESIAN_POINT('',(-7.20009120414034E-5,0.,0.0165));
#1074=CARTESIAN_POINT('',(-7.20009120414034E-5,0.0045,0.0165));
#1075=CARTESIAN_POINT('',(-0.01075,0.0045,0.0165));
#1076=CARTESIAN_POINT('',(-0.00825,-0.004,-0.0035));
#1077=CARTESIAN_POINT('',(-0.00825,-0.004,-0.00327));
#1078=CARTESIAN_POINT('',(-0.0078,-0.004,-0.00327));
#1079=CARTESIAN_POINT('',(-0.00825,-0.004,0.));
#1080=CARTESIAN_POINT('',(-0.0078,-0.004,0.));
#1081=CARTESIAN_POINT('',(0.,0.,-0.0035));
#1082=CARTESIAN_POINT('',(-0.00825,-0.004,-0.0035));
#1083=CARTESIAN_POINT('',(-0.00803,-0.004,-0.0035));
#1084=CARTESIAN_POINT('',(-0.00825,0.004,-0.0035));
#1085=CARTESIAN_POINT('',(-0.00825,0.004,-0.00327));
#1086=CARTESIAN_POINT('',(-0.0078,0.004,-0.00327));
#1087=CARTESIAN_POINT('',(-0.00825,0.004,0.));
#1088=CARTESIAN_POINT('',(-0.0078,0.004,0.));
#1089=CARTESIAN_POINT('',(0.,0.,-0.0035));
#1090=CARTESIAN_POINT('',(-0.00825,0.004,-0.0035));
#1091=CARTESIAN_POINT('',(-0.00803,0.004,-0.0035));
#1092=CARTESIAN_POINT('',(0.00825,0.004,-0.0035));
#1093=CARTESIAN_POINT('',(0.00825,0.004,-0.00327));
#1094=CARTESIAN_POINT('',(0.0087,0.004,-0.00327));
#1095=CARTESIAN_POINT('',(0.00825,0.004,0.));
#1096=CARTESIAN_POINT('',(0.0087,0.004,0.));
#1097=CARTESIAN_POINT('',(0.,0.,-0.0035));
#1098=CARTESIAN_POINT('',(0.00825,0.004,-0.0035));
#1099=CARTESIAN_POINT('',(0.00847,0.004,-0.0035));
#1100=CARTESIAN_POINT('',(0.00825,-0.004,-0.0035));
#1101=CARTESIAN_POINT('',(0.00825,-0.004,-0.00327));
#1102=CARTESIAN_POINT('',(0.0087,-0.004,-0.00327));
#1103=CARTESIAN_POINT('',(0.00825,-0.004,0.));
#1104=CARTESIAN_POINT('',(0.0087,-0.004,0.));
#1105=CARTESIAN_POINT('',(0.,0.,-0.0035));
#1106=CARTESIAN_POINT('',(0.00825,-0.004,-0.0035));
#1107=CARTESIAN_POINT('',(0.00847,-0.004,-0.0035));
#1108=CARTESIAN_POINT('',(0.,-0.0075,0.0165));
#1109=CARTESIAN_POINT('',(0.01075,-0.0075,0.0165));
#1110=CARTESIAN_POINT('',(0.01075,-0.0075,0.0135));
#1111=CARTESIAN_POINT('',(0.01075,-0.0075,0.0004));
#1112=CARTESIAN_POINT('',(0.,-0.0075,0.0135));
#1113=CARTESIAN_POINT('',(-0.01075,-0.0075,0.0135));
#1114=CARTESIAN_POINT('',(-0.01075,-0.0075,0.0165));
#1115=CARTESIAN_POINT('',(-0.01075,-0.0075,0.0004));
#1116=CARTESIAN_POINT('',(0.,-0.0075,0.0004));
#1117=CARTESIAN_POINT('',(0.01075,8.67361737988404E-19,0.0165));
#1118=CARTESIAN_POINT('',(0.01075,8.67361737988404E-19,0.0165));
#1119=CARTESIAN_POINT('',(0.01075,-0.0045,0.0165));
#1120=CARTESIAN_POINT('',(0.01075,0.0045,0.0165));
#1121=CARTESIAN_POINT('',(0.01075,-0.0045,0.0135));
#1122=CARTESIAN_POINT('',(0.01075,8.67361737988404E-19,0.0004));
#1123=CARTESIAN_POINT('',(0.01075,0.0075,0.0004));
#1124=CARTESIAN_POINT('',(0.01075,0.0075,0.0165));
#1125=CARTESIAN_POINT('',(0.01075,0.0075,0.0135));
#1126=CARTESIAN_POINT('',(0.01075,0.0045,0.0135));
#1127=CARTESIAN_POINT('',(0.,0.0075,0.0165));
#1128=CARTESIAN_POINT('',(-0.01075,0.0075,0.0165));
#1129=CARTESIAN_POINT('',(-0.01075,0.0075,0.0135));
#1130=CARTESIAN_POINT('',(-0.01075,0.0075,0.0004));
#1131=CARTESIAN_POINT('',(0.01075,0.0075,0.0135));
#1132=CARTESIAN_POINT('',(0.,0.0075,0.0004));
#1133=CARTESIAN_POINT('',(-0.01075,-1.7347234759768E-18,0.0165));
#1134=CARTESIAN_POINT('',(-0.01075,-0.0045,0.0135));
#1135=CARTESIAN_POINT('',(-0.01075,0.0045,0.0135));
#1136=CARTESIAN_POINT('',(-0.01075,-1.7347234759768E-18,0.0004));
#1137=CARTESIAN_POINT('',(0.,0.,0.0165));
#1138=CARTESIAN_POINT('',(7.20009120414034E-5,0.,0.0165));
#1139=CARTESIAN_POINT('',(7.20009120414034E-5,0.0045,0.0165));
#1140=CARTESIAN_POINT('',(7.20009120414034E-5,-0.0045,0.0165));
#1141=CARTESIAN_POINT('',(5.44622486643881E-19,-0.0045,0.0165));
#1142=CARTESIAN_POINT('',(-0.01075,0.0045,0.0165));
#1143=CARTESIAN_POINT('',(0.,-0.004,0.0165));
#1144=CARTESIAN_POINT('',(0.0046,-0.004,0.0165));
#1145=CARTESIAN_POINT('',(0.005,-0.004,0.0165));
#1146=CARTESIAN_POINT('',(0.0046,0.,0.0165));
#1147=CARTESIAN_POINT('',(0.0046,0.004,0.0165));
#1148=CARTESIAN_POINT('',(0.,0.004,0.0165));
#1149=CARTESIAN_POINT('',(0.005,0.004,0.0165));
#1150=CARTESIAN_POINT('',(0.005,-1.0842021724855E-18,0.0165));
#1151=CARTESIAN_POINT('',(-0.0053110004560207,0.0073,0.0004));
#1152=CARTESIAN_POINT('',(-0.01055,0.0073,0.0004));
#1153=CARTESIAN_POINT('',(-0.01055,0.0073,0.0004));
#1154=CARTESIAN_POINT('',(-0.01055,0.0073,0.));
#1155=CARTESIAN_POINT('',(-0.0053110004560207,0.0073,0.0004));
#1156=CARTESIAN_POINT('',(0.01055,0.0073,0.0004));
#1157=CARTESIAN_POINT('',(0.01055,0.0073,0.0004));
#1158=CARTESIAN_POINT('',(0.01055,0.0073,0.));
#1159=CARTESIAN_POINT('',(-0.0053110004560207,0.0073,0.));
#1160=CARTESIAN_POINT('',(0.01055,8.67361737988404E-19,0.0004));
#1161=CARTESIAN_POINT('',(0.01055,8.67361737988404E-19,0.));
#1162=CARTESIAN_POINT('',(0.01055,-0.0073,0.));
#1163=CARTESIAN_POINT('',(0.01055,8.67361737988404E-19,0.0004));
#1164=CARTESIAN_POINT('',(0.01055,-0.0073,0.0004));
#1165=CARTESIAN_POINT('',(0.01055,-0.0073,0.0004));
#1166=CARTESIAN_POINT('',(0.0053110004560207,-0.0073,0.0004));
#1167=CARTESIAN_POINT('',(-0.01055,-0.0073,0.0004));
#1168=CARTESIAN_POINT('',(-0.01055,-0.0073,0.0004));
#1169=CARTESIAN_POINT('',(-0.01055,-0.0073,0.));
#1170=CARTESIAN_POINT('',(0.0053110004560207,-0.0073,0.));
#1171=CARTESIAN_POINT('',(0.0053110004560207,-0.0073,0.0004));
#1172=CARTESIAN_POINT('',(-0.01055,-1.7347234759768E-18,0.0004));
#1173=CARTESIAN_POINT('',(-0.01055,-1.7347234759768E-18,0.));
#1174=CARTESIAN_POINT('',(-0.01055,-1.7347234759768E-18,0.0004));
#1175=CARTESIAN_POINT('',(0.,0.,0.0004));
#1176=CARTESIAN_POINT('',(0.,0.,0.));
#1177=CARTESIAN_POINT('',(0.0048,-0.004,0.025));
#1178=CARTESIAN_POINT('',(0.005,-0.004,0.025));
#1179=CARTESIAN_POINT('',(0.005,-0.004,0.016));
#1180=CARTESIAN_POINT('',(0.0048,-0.004,0.016));
#1181=CARTESIAN_POINT('',(0.0046,-0.004,0.016));
#1182=CARTESIAN_POINT('',(0.0046,-0.004,0.025));
#1183=CARTESIAN_POINT('',(0.005,-8.67361737988404E-19,0.025));
#1184=CARTESIAN_POINT('',(0.005,0.004,0.025));
#1185=CARTESIAN_POINT('',(0.005,0.004,0.016));
#1186=CARTESIAN_POINT('',(0.005,-8.67361737988404E-19,0.016));
#1187=CARTESIAN_POINT('',(0.0048,0.004,0.025));
#1188=CARTESIAN_POINT('',(0.0048,0.004,0.016));
#1189=CARTESIAN_POINT('',(0.0046,0.004,0.016));
#1190=CARTESIAN_POINT('',(0.0046,0.004,0.025));
#1191=CARTESIAN_POINT('',(0.0046,-8.67361737988404E-19,0.025));
#1192=CARTESIAN_POINT('',(0.0046,-8.67361737988404E-19,0.016));
#1193=CARTESIAN_POINT('',(-0.0048,0.004,0.025));
#1194=CARTESIAN_POINT('',(-0.005,0.004,0.025));
#1195=CARTESIAN_POINT('',(-0.005,0.004,0.016));
#1196=CARTESIAN_POINT('',(-0.0048,0.004,0.016));
#1197=CARTESIAN_POINT('',(-0.0046,0.004,0.016));
#1198=CARTESIAN_POINT('',(-0.0046,0.004,0.025));
#1199=CARTESIAN_POINT('',(-0.005,-8.67361737988404E-19,0.025));
#1200=CARTESIAN_POINT('',(-0.005,-8.67361737988404E-19,0.016));
#1201=CARTESIAN_POINT('',(-0.005,-0.004,0.016));
#1202=CARTESIAN_POINT('',(-0.005,-0.004,0.025));
#1203=CARTESIAN_POINT('',(-0.0048,-0.004,0.025));
#1204=CARTESIAN_POINT('',(-0.0048,-0.004,0.016));
#1205=CARTESIAN_POINT('',(-0.0046,-0.004,0.016));
#1206=CARTESIAN_POINT('',(-0.0046,-0.004,0.025));
#1207=CARTESIAN_POINT('',(-0.0046,-8.67361737988404E-19,0.025));
#1208=CARTESIAN_POINT('',(-0.0046,-8.67361737988404E-19,0.016));
#1209=CARTESIAN_POINT('',(7.20009120414034E-5,0.,0.025));
#1210=CARTESIAN_POINT('',(7.20009120414034E-5,0.,0.016));
#1211=CARTESIAN_POINT('',(7.20009120414034E-5,-0.0061583123951777,0.016));
#1212=CARTESIAN_POINT('',(7.20009120414034E-5,0.0061583123951777,0.016));
#1213=CARTESIAN_POINT('',(7.20009120414034E-5,-0.0045,0.0135));
#1214=CARTESIAN_POINT('',(7.20009120414034E-5,0.0045,0.0135));
#1215=CARTESIAN_POINT('',(-7.20009120414034E-5,0.,0.025));
#1216=CARTESIAN_POINT('',(-7.20009120414034E-5,-0.0045,0.0135));
#1217=CARTESIAN_POINT('',(-7.20009120414034E-5,-0.0061583123951777,0.016));
#1218=CARTESIAN_POINT('',(-7.20009120414034E-5,0.,0.016));
#1219=CARTESIAN_POINT('',(-7.20009120414034E-5,0.0061583123951777,0.016));
#1220=CARTESIAN_POINT('',(-7.20009120414034E-5,0.0045,0.0135));
#1221=CARTESIAN_POINT('',(0.,0.,0.016));
#1222=CARTESIAN_POINT('',(-7.20009120414034E-5,-0.0061583123951777,0.016));
#1223=CARTESIAN_POINT('',(7.20009120414034E-5,0.0061583123951777,0.016));
#1224=CARTESIAN_POINT('',(0.,0.,0.016));
#1225=CARTESIAN_POINT('',(0.,0.,0.016));
#1226=CARTESIAN_POINT('',(0.00825,-0.004,-0.00327));
#1227=CARTESIAN_POINT('',(0.00825,0.004,-0.00327));
#1228=CARTESIAN_POINT('',(-0.00825,0.004,-0.00327));
#1229=CARTESIAN_POINT('',(-0.00825,-0.004,-0.00327));
#1230=CARTESIAN_POINT('',(-3.63081657762588E-19,-0.0045,0.0135));
#1231=CARTESIAN_POINT('',(-7.26163315525175E-19,0.0045,0.0135));
#1232=MECHANICAL_DESIGN_GEOMETRIC_PRESENTATION_REPRESENTATION('',(#652,
#586,#587,#588,#589,#590,#591,#592,#593,#594,#595,#596,#597,#598,#599,#600,
#601,#602,#603,#604,#605,#606,#607,#608,#609,#610,#611),#1233);
#1233=(
GEOMETRIC_REPRESENTATION_CONTEXT(3)
GLOBAL_UNCERTAINTY_ASSIGNED_CONTEXT((#1234))
GLOBAL_UNIT_ASSIGNED_CONTEXT((#1237,#1236,#1235))
REPRESENTATION_CONTEXT('Part 1','TOP_LEVEL_ASSEMBLY_PART')
);
#1234=UNCERTAINTY_MEASURE_WITH_UNIT(LENGTH_MEASURE(1.E-8),#1237,
'DISTANCE_ACCURACY_VALUE','Maximum Tolerance applied to model');
#1235=(
NAMED_UNIT(*)
SI_UNIT($,.STERADIAN.)
SOLID_ANGLE_UNIT()
);
#1236=(
NAMED_UNIT(*)
PLANE_ANGLE_UNIT()
SI_UNIT($,.RADIAN.)
);
#1237=(
LENGTH_UNIT()
NAMED_UNIT(*)
SI_UNIT($,.METRE.)
);
#1238=PRODUCT_DEFINITION_SHAPE('','',#1239);
#1239=PRODUCT_DEFINITION('','',#1241,#1240);
#1240=PRODUCT_DEFINITION_CONTEXT('',#1247,'design');
#1241=PRODUCT_DEFINITION_FORMATION_WITH_SPECIFIED_SOURCE('','',#1243,
 .NOT_KNOWN.);
#1242=PRODUCT_RELATED_PRODUCT_CATEGORY('','',(#1243));
#1243=PRODUCT('Part 1','Part 1','Part 1',(#1245));
#1244=PRODUCT_CATEGORY('','');
#1245=PRODUCT_CONTEXT('',#1247,'mechanical');
#1246=APPLICATION_PROTOCOL_DEFINITION('international standard',
'ap242_managed_model_based_3d_engineering',2011,#1247);
#1247=APPLICATION_CONTEXT('managed model based 3d engineering');
ENDSEC;
END-ISO-10303-21;
