ISO-10303-21;
HEADER;
/* Generated by software containing ST-Developer
 * from STEP Tools, Inc. (www.steptools.com) 
 */
/* OPTION: using custom renumber hook */

FILE_DESCRIPTION(
/* description */ ('STEP AP242 Edition 2',
'CAx-IF Rec.Pracs.---Representation and Presentation of Product Manufa
cturing Information (PMI)---4.0---2014-10-13',
'CAx-IF Rec.Pracs.---3D Tessellated Geometry---0.4---2014-09-14','2;1',
'CAx-IF Rec.Pracs.---User Defined Attributes---1.5---2016-08-15'),
/* implementation_level */ '2;1');

FILE_NAME(
/* name */ 'Part Studio 1 - PJ-35-320A',
/* time_stamp */ '2026-09-29T01:31:23Z',
/* author */ (''),
/* organization */ (''),
/* preprocessor_version */ 'ST-DEVELOPER v20',
/* originating_system */ 'ONSHAPE BY PTC INC, 1.221',
/* authorisation */ '  ');

FILE_SCHEMA (('AP242_MANAGED_MODEL_BASED_3D_ENGINEERING_MIM_LF { 1 0 10303 442 3 1 4 }'));
ENDSEC;

DATA;
#10=SHAPE_REPRESENTATION_RELATIONSHIP('','',#1136,#11);
#11=ADVANCED_BREP_SHAPE_REPRESENTATION('',(#1134),#1747);
#12=TOROIDAL_SURFACE('',#1195,0.002,0.0002);
#13=TOROIDAL_SURFACE('',#1196,0.0023,0.0002);
#14=CONICAL_SURFACE('',#1193,0.0005,0.785398163397448);
#15=CONICAL_SURFACE('',#1194,0.0005,0.785398163397448);
#16=OVER_RIDING_STYLED_ITEM('',(#989),#943,#987);
#17=OVER_RIDING_STYLED_ITEM('',(#990),#944,#987);
#18=OVER_RIDING_STYLED_ITEM('',(#991),#945,#987);
#19=OVER_RIDING_STYLED_ITEM('',(#992),#946,#987);
#20=OVER_RIDING_STYLED_ITEM('',(#993),#947,#987);
#21=OVER_RIDING_STYLED_ITEM('',(#994),#948,#987);
#22=OVER_RIDING_STYLED_ITEM('',(#995),#949,#987);
#23=OVER_RIDING_STYLED_ITEM('',(#996),#950,#987);
#24=OVER_RIDING_STYLED_ITEM('',(#997),#951,#987);
#25=OVER_RIDING_STYLED_ITEM('',(#998),#952,#987);
#26=OVER_RIDING_STYLED_ITEM('',(#999),#953,#987);
#27=OVER_RIDING_STYLED_ITEM('',(#1000),#954,#987);
#28=OVER_RIDING_STYLED_ITEM('',(#1001),#955,#987);
#29=OVER_RIDING_STYLED_ITEM('',(#1002),#956,#987);
#30=OVER_RIDING_STYLED_ITEM('',(#1003),#957,#987);
#31=OVER_RIDING_STYLED_ITEM('',(#1004),#958,#987);
#32=OVER_RIDING_STYLED_ITEM('',(#1005),#959,#987);
#33=OVER_RIDING_STYLED_ITEM('',(#1006),#960,#987);
#34=OVER_RIDING_STYLED_ITEM('',(#1007),#961,#987);
#35=OVER_RIDING_STYLED_ITEM('',(#1008),#970,#987);
#36=OVER_RIDING_STYLED_ITEM('',(#1009),#975,#987);
#37=OVER_RIDING_STYLED_ITEM('',(#1010),#980,#987);
#38=OVER_RIDING_STYLED_ITEM('',(#1011),#985,#987);
#39=CYLINDRICAL_SURFACE('',#1150,0.0018);
#40=CYLINDRICAL_SURFACE('',#1152,0.0025);
#41=CYLINDRICAL_SURFACE('',#1157,0.0005);
#42=CYLINDRICAL_SURFACE('',#1161,0.0005);
#43=CYLINDRICAL_SURFACE('',#1189,0.00045);
#44=CYLINDRICAL_SURFACE('',#1190,0.00045);
#45=CYLINDRICAL_SURFACE('',#1191,0.00045);
#46=CYLINDRICAL_SURFACE('',#1192,0.00045);
#47=CIRCLE('',#1140,0.0005);
#48=CIRCLE('',#1141,0.0005);
#49=CIRCLE('',#1143,0.0025);
#50=CIRCLE('',#1146,0.0018);
#51=CIRCLE('',#1149,0.0025);
#52=CIRCLE('',#1151,0.0018);
#53=CIRCLE('',#1153,0.0025);
#54=CIRCLE('',#1155,0.002);
#55=CIRCLE('',#1156,0.0023);
#56=CIRCLE('',#1158,0.0005);
#57=CIRCLE('',#1160,0.0002);
#58=CIRCLE('',#1162,0.0005);
#59=CIRCLE('',#1164,0.0002);
#60=CIRCLE('',#1167,0.00045);
#61=CIRCLE('',#1170,0.00045);
#62=CIRCLE('',#1173,0.00045);
#63=CIRCLE('',#1176,0.00045);
#64=CIRCLE('',#1179,0.00045);
#65=CIRCLE('',#1182,0.00045);
#66=CIRCLE('',#1185,0.00045);
#67=CIRCLE('',#1188,0.00045);
#68=ORIENTED_EDGE('',*,*,#314,.F.);
#69=ORIENTED_EDGE('',*,*,#315,.T.);
#70=ORIENTED_EDGE('',*,*,#316,.T.);
#71=ORIENTED_EDGE('',*,*,#317,.F.);
#72=ORIENTED_EDGE('',*,*,#318,.F.);
#73=ORIENTED_EDGE('',*,*,#319,.T.);
#74=ORIENTED_EDGE('',*,*,#320,.T.);
#75=ORIENTED_EDGE('',*,*,#321,.F.);
#76=ORIENTED_EDGE('',*,*,#322,.F.);
#77=ORIENTED_EDGE('',*,*,#323,.T.);
#78=ORIENTED_EDGE('',*,*,#324,.T.);
#79=ORIENTED_EDGE('',*,*,#325,.F.);
#80=ORIENTED_EDGE('',*,*,#326,.F.);
#81=ORIENTED_EDGE('',*,*,#327,.T.);
#82=ORIENTED_EDGE('',*,*,#328,.T.);
#83=ORIENTED_EDGE('',*,*,#329,.F.);
#84=ORIENTED_EDGE('',*,*,#330,.F.);
#85=ORIENTED_EDGE('',*,*,#331,.T.);
#86=ORIENTED_EDGE('',*,*,#332,.T.);
#87=ORIENTED_EDGE('',*,*,#333,.F.);
#88=ORIENTED_EDGE('',*,*,#334,.F.);
#89=ORIENTED_EDGE('',*,*,#335,.F.);
#90=ORIENTED_EDGE('',*,*,#336,.T.);
#91=ORIENTED_EDGE('',*,*,#337,.T.);
#92=ORIENTED_EDGE('',*,*,#338,.F.);
#93=ORIENTED_EDGE('',*,*,#339,.F.);
#94=ORIENTED_EDGE('',*,*,#340,.T.);
#95=ORIENTED_EDGE('',*,*,#341,.T.);
#96=ORIENTED_EDGE('',*,*,#342,.F.);
#97=ORIENTED_EDGE('',*,*,#343,.T.);
#98=ORIENTED_EDGE('',*,*,#344,.T.);
#99=ORIENTED_EDGE('',*,*,#345,.T.);
#100=ORIENTED_EDGE('',*,*,#346,.T.);
#101=ORIENTED_EDGE('',*,*,#347,.T.);
#102=ORIENTED_EDGE('',*,*,#348,.F.);
#103=ORIENTED_EDGE('',*,*,#349,.F.);
#104=ORIENTED_EDGE('',*,*,#350,.F.);
#105=ORIENTED_EDGE('',*,*,#351,.T.);
#106=ORIENTED_EDGE('',*,*,#352,.T.);
#107=ORIENTED_EDGE('',*,*,#353,.F.);
#108=ORIENTED_EDGE('',*,*,#354,.F.);
#109=ORIENTED_EDGE('',*,*,#355,.T.);
#110=ORIENTED_EDGE('',*,*,#356,.T.);
#111=ORIENTED_EDGE('',*,*,#357,.F.);
#112=ORIENTED_EDGE('',*,*,#358,.F.);
#113=ORIENTED_EDGE('',*,*,#325,.T.);
#114=ORIENTED_EDGE('',*,*,#359,.T.);
#115=ORIENTED_EDGE('',*,*,#347,.F.);
#116=ORIENTED_EDGE('',*,*,#345,.F.);
#117=ORIENTED_EDGE('',*,*,#360,.F.);
#118=ORIENTED_EDGE('',*,*,#322,.T.);
#119=ORIENTED_EDGE('',*,*,#361,.T.);
#120=ORIENTED_EDGE('',*,*,#362,.T.);
#121=ORIENTED_EDGE('',*,*,#349,.T.);
#122=ORIENTED_EDGE('',*,*,#363,.F.);
#123=ORIENTED_EDGE('',*,*,#323,.F.);
#124=ORIENTED_EDGE('',*,*,#360,.T.);
#125=ORIENTED_EDGE('',*,*,#348,.T.);
#126=ORIENTED_EDGE('',*,*,#359,.F.);
#127=ORIENTED_EDGE('',*,*,#324,.F.);
#128=ORIENTED_EDGE('',*,*,#363,.T.);
#129=ORIENTED_EDGE('',*,*,#364,.F.);
#130=ORIENTED_EDGE('',*,*,#346,.F.);
#131=ORIENTED_EDGE('',*,*,#361,.F.);
#132=ORIENTED_EDGE('',*,*,#326,.T.);
#133=ORIENTED_EDGE('',*,*,#365,.T.);
#134=ORIENTED_EDGE('',*,*,#362,.F.);
#135=ORIENTED_EDGE('',*,*,#366,.T.);
#136=ORIENTED_EDGE('',*,*,#358,.T.);
#137=ORIENTED_EDGE('',*,*,#364,.T.);
#138=ORIENTED_EDGE('',*,*,#367,.T.);
#139=ORIENTED_EDGE('',*,*,#368,.T.);
#140=ORIENTED_EDGE('',*,*,#369,.T.);
#141=ORIENTED_EDGE('',*,*,#344,.F.);
#142=ORIENTED_EDGE('',*,*,#370,.T.);
#143=ORIENTED_EDGE('',*,*,#371,.T.);
#144=ORIENTED_EDGE('',*,*,#343,.F.);
#145=ORIENTED_EDGE('',*,*,#372,.T.);
#146=ORIENTED_EDGE('',*,*,#373,.F.);
#147=ORIENTED_EDGE('',*,*,#374,.T.);
#148=ORIENTED_EDGE('',*,*,#375,.T.);
#149=ORIENTED_EDGE('',*,*,#339,.T.);
#150=ORIENTED_EDGE('',*,*,#376,.T.);
#151=ORIENTED_EDGE('',*,*,#377,.T.);
#152=ORIENTED_EDGE('',*,*,#340,.F.);
#153=ORIENTED_EDGE('',*,*,#375,.F.);
#154=ORIENTED_EDGE('',*,*,#377,.F.);
#155=ORIENTED_EDGE('',*,*,#378,.T.);
#156=ORIENTED_EDGE('',*,*,#379,.T.);
#157=ORIENTED_EDGE('',*,*,#341,.F.);
#158=ORIENTED_EDGE('',*,*,#379,.F.);
#159=ORIENTED_EDGE('',*,*,#380,.T.);
#160=ORIENTED_EDGE('',*,*,#373,.T.);
#161=ORIENTED_EDGE('',*,*,#342,.T.);
#162=ORIENTED_EDGE('',*,*,#381,.F.);
#163=ORIENTED_EDGE('',*,*,#382,.T.);
#164=ORIENTED_EDGE('',*,*,#383,.T.);
#165=ORIENTED_EDGE('',*,*,#350,.T.);
#166=ORIENTED_EDGE('',*,*,#384,.T.);
#167=ORIENTED_EDGE('',*,*,#385,.T.);
#168=ORIENTED_EDGE('',*,*,#351,.F.);
#169=ORIENTED_EDGE('',*,*,#383,.F.);
#170=ORIENTED_EDGE('',*,*,#385,.F.);
#171=ORIENTED_EDGE('',*,*,#386,.T.);
#172=ORIENTED_EDGE('',*,*,#387,.T.);
#173=ORIENTED_EDGE('',*,*,#352,.F.);
#174=ORIENTED_EDGE('',*,*,#387,.F.);
#175=ORIENTED_EDGE('',*,*,#388,.T.);
#176=ORIENTED_EDGE('',*,*,#381,.T.);
#177=ORIENTED_EDGE('',*,*,#353,.T.);
#178=ORIENTED_EDGE('',*,*,#389,.F.);
#179=ORIENTED_EDGE('',*,*,#390,.T.);
#180=ORIENTED_EDGE('',*,*,#391,.T.);
#181=ORIENTED_EDGE('',*,*,#335,.T.);
#182=ORIENTED_EDGE('',*,*,#392,.T.);
#183=ORIENTED_EDGE('',*,*,#393,.T.);
#184=ORIENTED_EDGE('',*,*,#336,.F.);
#185=ORIENTED_EDGE('',*,*,#391,.F.);
#186=ORIENTED_EDGE('',*,*,#393,.F.);
#187=ORIENTED_EDGE('',*,*,#394,.T.);
#188=ORIENTED_EDGE('',*,*,#395,.T.);
#189=ORIENTED_EDGE('',*,*,#337,.F.);
#190=ORIENTED_EDGE('',*,*,#395,.F.);
#191=ORIENTED_EDGE('',*,*,#396,.T.);
#192=ORIENTED_EDGE('',*,*,#389,.T.);
#193=ORIENTED_EDGE('',*,*,#338,.T.);
#194=ORIENTED_EDGE('',*,*,#397,.F.);
#195=ORIENTED_EDGE('',*,*,#398,.T.);
#196=ORIENTED_EDGE('',*,*,#399,.T.);
#197=ORIENTED_EDGE('',*,*,#354,.T.);
#198=ORIENTED_EDGE('',*,*,#400,.T.);
#199=ORIENTED_EDGE('',*,*,#401,.T.);
#200=ORIENTED_EDGE('',*,*,#355,.F.);
#201=ORIENTED_EDGE('',*,*,#399,.F.);
#202=ORIENTED_EDGE('',*,*,#401,.F.);
#203=ORIENTED_EDGE('',*,*,#402,.T.);
#204=ORIENTED_EDGE('',*,*,#403,.T.);
#205=ORIENTED_EDGE('',*,*,#356,.F.);
#206=ORIENTED_EDGE('',*,*,#403,.F.);
#207=ORIENTED_EDGE('',*,*,#404,.T.);
#208=ORIENTED_EDGE('',*,*,#397,.T.);
#209=ORIENTED_EDGE('',*,*,#357,.T.);
#210=ORIENTED_EDGE('',*,*,#404,.F.);
#211=ORIENTED_EDGE('',*,*,#402,.F.);
#212=ORIENTED_EDGE('',*,*,#400,.F.);
#213=ORIENTED_EDGE('',*,*,#398,.F.);
#214=ORIENTED_EDGE('',*,*,#396,.F.);
#215=ORIENTED_EDGE('',*,*,#394,.F.);
#216=ORIENTED_EDGE('',*,*,#392,.F.);
#217=ORIENTED_EDGE('',*,*,#390,.F.);
#218=ORIENTED_EDGE('',*,*,#380,.F.);
#219=ORIENTED_EDGE('',*,*,#378,.F.);
#220=ORIENTED_EDGE('',*,*,#376,.F.);
#221=ORIENTED_EDGE('',*,*,#374,.F.);
#222=ORIENTED_EDGE('',*,*,#388,.F.);
#223=ORIENTED_EDGE('',*,*,#386,.F.);
#224=ORIENTED_EDGE('',*,*,#384,.F.);
#225=ORIENTED_EDGE('',*,*,#382,.F.);
#226=ORIENTED_EDGE('',*,*,#370,.F.);
#227=ORIENTED_EDGE('',*,*,#369,.F.);
#228=ORIENTED_EDGE('',*,*,#372,.F.);
#229=ORIENTED_EDGE('',*,*,#371,.F.);
#230=ORIENTED_EDGE('',*,*,#367,.F.);
#231=ORIENTED_EDGE('',*,*,#365,.F.);
#232=ORIENTED_EDGE('',*,*,#366,.F.);
#233=ORIENTED_EDGE('',*,*,#368,.F.);
#234=ORIENTED_EDGE('',*,*,#328,.F.);
#235=ORIENTED_EDGE('',*,*,#405,.F.);
#236=ORIENTED_EDGE('',*,*,#406,.T.);
#237=ORIENTED_EDGE('',*,*,#407,.T.);
#238=ORIENTED_EDGE('',*,*,#327,.F.);
#239=ORIENTED_EDGE('',*,*,#408,.F.);
#240=ORIENTED_EDGE('',*,*,#409,.T.);
#241=ORIENTED_EDGE('',*,*,#405,.T.);
#242=ORIENTED_EDGE('',*,*,#330,.T.);
#243=ORIENTED_EDGE('',*,*,#410,.F.);
#244=ORIENTED_EDGE('',*,*,#411,.F.);
#245=ORIENTED_EDGE('',*,*,#408,.T.);
#246=ORIENTED_EDGE('',*,*,#329,.T.);
#247=ORIENTED_EDGE('',*,*,#407,.F.);
#248=ORIENTED_EDGE('',*,*,#412,.F.);
#249=ORIENTED_EDGE('',*,*,#410,.T.);
#250=ORIENTED_EDGE('',*,*,#406,.F.);
#251=ORIENTED_EDGE('',*,*,#409,.F.);
#252=ORIENTED_EDGE('',*,*,#411,.T.);
#253=ORIENTED_EDGE('',*,*,#412,.T.);
#254=ORIENTED_EDGE('',*,*,#318,.T.);
#255=ORIENTED_EDGE('',*,*,#413,.F.);
#256=ORIENTED_EDGE('',*,*,#414,.F.);
#257=ORIENTED_EDGE('',*,*,#415,.T.);
#258=ORIENTED_EDGE('',*,*,#321,.T.);
#259=ORIENTED_EDGE('',*,*,#416,.F.);
#260=ORIENTED_EDGE('',*,*,#417,.F.);
#261=ORIENTED_EDGE('',*,*,#413,.T.);
#262=ORIENTED_EDGE('',*,*,#320,.F.);
#263=ORIENTED_EDGE('',*,*,#418,.F.);
#264=ORIENTED_EDGE('',*,*,#419,.T.);
#265=ORIENTED_EDGE('',*,*,#416,.T.);
#266=ORIENTED_EDGE('',*,*,#319,.F.);
#267=ORIENTED_EDGE('',*,*,#415,.F.);
#268=ORIENTED_EDGE('',*,*,#420,.T.);
#269=ORIENTED_EDGE('',*,*,#418,.T.);
#270=ORIENTED_EDGE('',*,*,#414,.T.);
#271=ORIENTED_EDGE('',*,*,#417,.T.);
#272=ORIENTED_EDGE('',*,*,#419,.F.);
#273=ORIENTED_EDGE('',*,*,#420,.F.);
#274=ORIENTED_EDGE('',*,*,#314,.T.);
#275=ORIENTED_EDGE('',*,*,#421,.F.);
#276=ORIENTED_EDGE('',*,*,#422,.F.);
#277=ORIENTED_EDGE('',*,*,#423,.T.);
#278=ORIENTED_EDGE('',*,*,#317,.T.);
#279=ORIENTED_EDGE('',*,*,#424,.F.);
#280=ORIENTED_EDGE('',*,*,#425,.F.);
#281=ORIENTED_EDGE('',*,*,#421,.T.);
#282=ORIENTED_EDGE('',*,*,#316,.F.);
#283=ORIENTED_EDGE('',*,*,#426,.F.);
#284=ORIENTED_EDGE('',*,*,#427,.T.);
#285=ORIENTED_EDGE('',*,*,#424,.T.);
#286=ORIENTED_EDGE('',*,*,#315,.F.);
#287=ORIENTED_EDGE('',*,*,#423,.F.);
#288=ORIENTED_EDGE('',*,*,#428,.T.);
#289=ORIENTED_EDGE('',*,*,#426,.T.);
#290=ORIENTED_EDGE('',*,*,#422,.T.);
#291=ORIENTED_EDGE('',*,*,#425,.T.);
#292=ORIENTED_EDGE('',*,*,#427,.F.);
#293=ORIENTED_EDGE('',*,*,#428,.F.);
#294=ORIENTED_EDGE('',*,*,#332,.F.);
#295=ORIENTED_EDGE('',*,*,#429,.F.);
#296=ORIENTED_EDGE('',*,*,#430,.T.);
#297=ORIENTED_EDGE('',*,*,#431,.T.);
#298=ORIENTED_EDGE('',*,*,#331,.F.);
#299=ORIENTED_EDGE('',*,*,#432,.F.);
#300=ORIENTED_EDGE('',*,*,#433,.T.);
#301=ORIENTED_EDGE('',*,*,#429,.T.);
#302=ORIENTED_EDGE('',*,*,#334,.T.);
#303=ORIENTED_EDGE('',*,*,#434,.F.);
#304=ORIENTED_EDGE('',*,*,#435,.F.);
#305=ORIENTED_EDGE('',*,*,#432,.T.);
#306=ORIENTED_EDGE('',*,*,#333,.T.);
#307=ORIENTED_EDGE('',*,*,#431,.F.);
#308=ORIENTED_EDGE('',*,*,#436,.F.);
#309=ORIENTED_EDGE('',*,*,#434,.T.);
#310=ORIENTED_EDGE('',*,*,#430,.F.);
#311=ORIENTED_EDGE('',*,*,#433,.F.);
#312=ORIENTED_EDGE('',*,*,#435,.T.);
#313=ORIENTED_EDGE('',*,*,#436,.T.);
#314=EDGE_CURVE('',#437,#438,#522,.T.);
#315=EDGE_CURVE('',#437,#439,#523,.T.);
#316=EDGE_CURVE('',#439,#440,#524,.T.);
#317=EDGE_CURVE('',#438,#440,#525,.T.);
#318=EDGE_CURVE('',#441,#442,#526,.T.);
#319=EDGE_CURVE('',#441,#443,#527,.T.);
#320=EDGE_CURVE('',#443,#444,#528,.T.);
#321=EDGE_CURVE('',#442,#444,#529,.T.);
#322=EDGE_CURVE('',#445,#446,#530,.T.);
#323=EDGE_CURVE('',#445,#447,#531,.T.);
#324=EDGE_CURVE('',#447,#448,#532,.T.);
#325=EDGE_CURVE('',#449,#448,#533,.T.);
#326=EDGE_CURVE('',#446,#449,#534,.T.);
#327=EDGE_CURVE('',#450,#451,#535,.T.);
#328=EDGE_CURVE('',#451,#452,#536,.T.);
#329=EDGE_CURVE('',#453,#452,#537,.T.);
#330=EDGE_CURVE('',#450,#453,#538,.T.);
#331=EDGE_CURVE('',#454,#455,#539,.T.);
#332=EDGE_CURVE('',#455,#456,#540,.T.);
#333=EDGE_CURVE('',#457,#456,#541,.T.);
#334=EDGE_CURVE('',#454,#457,#542,.T.);
#335=EDGE_CURVE('',#458,#459,#543,.T.);
#336=EDGE_CURVE('',#458,#460,#544,.T.);
#337=EDGE_CURVE('',#460,#461,#545,.T.);
#338=EDGE_CURVE('',#459,#461,#546,.T.);
#339=EDGE_CURVE('',#462,#463,#547,.T.);
#340=EDGE_CURVE('',#462,#464,#548,.T.);
#341=EDGE_CURVE('',#464,#465,#549,.T.);
#342=EDGE_CURVE('',#463,#465,#550,.T.);
#343=EDGE_CURVE('',#466,#466,#47,.T.);
#344=EDGE_CURVE('',#467,#467,#48,.T.);
#345=EDGE_CURVE('',#468,#469,#551,.T.);
#346=EDGE_CURVE('',#469,#470,#552,.T.);
#347=EDGE_CURVE('',#470,#471,#553,.T.);
#348=EDGE_CURVE('',#472,#471,#554,.T.);
#349=EDGE_CURVE('',#468,#472,#555,.T.);
#350=EDGE_CURVE('',#473,#474,#556,.T.);
#351=EDGE_CURVE('',#473,#475,#557,.T.);
#352=EDGE_CURVE('',#475,#476,#558,.T.);
#353=EDGE_CURVE('',#474,#476,#559,.T.);
#354=EDGE_CURVE('',#477,#478,#560,.T.);
#355=EDGE_CURVE('',#477,#479,#561,.T.);
#356=EDGE_CURVE('',#479,#480,#562,.T.);
#357=EDGE_CURVE('',#478,#480,#563,.T.);
#358=EDGE_CURVE('',#449,#470,#49,.T.);
#359=EDGE_CURVE('',#448,#471,#564,.T.);
#360=EDGE_CURVE('',#445,#468,#565,.T.);
#361=EDGE_CURVE('',#446,#469,#566,.T.);
#362=EDGE_CURVE('',#481,#481,#50,.T.);
#363=EDGE_CURVE('',#447,#472,#567,.T.);
#364=EDGE_CURVE('',#470,#449,#51,.T.);
#365=EDGE_CURVE('',#482,#482,#52,.T.);
#366=EDGE_CURVE('',#483,#483,#53,.F.);
#367=EDGE_CURVE('',#484,#484,#54,.F.);
#368=EDGE_CURVE('',#485,#485,#55,.T.);
#369=EDGE_CURVE('',#486,#486,#56,.T.);
#370=EDGE_CURVE('',#487,#487,#57,.F.);
#371=EDGE_CURVE('',#488,#488,#58,.T.);
#372=EDGE_CURVE('',#489,#489,#59,.F.);
#373=EDGE_CURVE('',#490,#463,#568,.T.);
#374=EDGE_CURVE('',#490,#491,#569,.F.);
#375=EDGE_CURVE('',#491,#462,#570,.T.);
#376=EDGE_CURVE('',#491,#492,#60,.T.);
#377=EDGE_CURVE('',#492,#464,#571,.T.);
#378=EDGE_CURVE('',#492,#493,#572,.T.);
#379=EDGE_CURVE('',#493,#465,#573,.T.);
#380=EDGE_CURVE('',#493,#490,#61,.F.);
#381=EDGE_CURVE('',#494,#474,#574,.T.);
#382=EDGE_CURVE('',#494,#495,#575,.F.);
#383=EDGE_CURVE('',#495,#473,#576,.T.);
#384=EDGE_CURVE('',#495,#496,#62,.T.);
#385=EDGE_CURVE('',#496,#475,#577,.T.);
#386=EDGE_CURVE('',#496,#497,#578,.T.);
#387=EDGE_CURVE('',#497,#476,#579,.T.);
#388=EDGE_CURVE('',#497,#494,#63,.F.);
#389=EDGE_CURVE('',#498,#459,#580,.T.);
#390=EDGE_CURVE('',#498,#499,#581,.F.);
#391=EDGE_CURVE('',#499,#458,#582,.T.);
#392=EDGE_CURVE('',#499,#500,#64,.T.);
#393=EDGE_CURVE('',#500,#460,#583,.T.);
#394=EDGE_CURVE('',#500,#501,#584,.T.);
#395=EDGE_CURVE('',#501,#461,#585,.T.);
#396=EDGE_CURVE('',#501,#498,#65,.F.);
#397=EDGE_CURVE('',#502,#478,#586,.T.);
#398=EDGE_CURVE('',#502,#503,#587,.F.);
#399=EDGE_CURVE('',#503,#477,#588,.T.);
#400=EDGE_CURVE('',#503,#504,#66,.T.);
#401=EDGE_CURVE('',#504,#479,#589,.T.);
#402=EDGE_CURVE('',#504,#505,#590,.T.);
#403=EDGE_CURVE('',#505,#480,#591,.T.);
#404=EDGE_CURVE('',#505,#502,#67,.F.);
#405=EDGE_CURVE('',#506,#451,#592,.T.);
#406=EDGE_CURVE('',#506,#507,#593,.T.);
#407=EDGE_CURVE('',#507,#452,#594,.T.);
#408=EDGE_CURVE('',#508,#450,#595,.T.);
#409=EDGE_CURVE('',#508,#506,#596,.T.);
#410=EDGE_CURVE('',#509,#453,#597,.T.);
#411=EDGE_CURVE('',#508,#509,#598,.T.);
#412=EDGE_CURVE('',#509,#507,#599,.T.);
#413=EDGE_CURVE('',#510,#442,#600,.T.);
#414=EDGE_CURVE('',#511,#510,#601,.T.);
#415=EDGE_CURVE('',#511,#441,#602,.T.);
#416=EDGE_CURVE('',#512,#444,#603,.T.);
#417=EDGE_CURVE('',#510,#512,#604,.T.);
#418=EDGE_CURVE('',#513,#443,#605,.T.);
#419=EDGE_CURVE('',#513,#512,#606,.T.);
#420=EDGE_CURVE('',#511,#513,#607,.T.);
#421=EDGE_CURVE('',#514,#438,#608,.T.);
#422=EDGE_CURVE('',#515,#514,#609,.T.);
#423=EDGE_CURVE('',#515,#437,#610,.T.);
#424=EDGE_CURVE('',#516,#440,#611,.T.);
#425=EDGE_CURVE('',#514,#516,#612,.T.);
#426=EDGE_CURVE('',#517,#439,#613,.T.);
#427=EDGE_CURVE('',#517,#516,#614,.T.);
#428=EDGE_CURVE('',#515,#517,#615,.T.);
#429=EDGE_CURVE('',#518,#455,#616,.T.);
#430=EDGE_CURVE('',#518,#519,#617,.T.);
#431=EDGE_CURVE('',#519,#456,#618,.T.);
#432=EDGE_CURVE('',#520,#454,#619,.T.);
#433=EDGE_CURVE('',#520,#518,#620,.T.);
#434=EDGE_CURVE('',#521,#457,#621,.T.);
#435=EDGE_CURVE('',#520,#521,#622,.T.);
#436=EDGE_CURVE('',#521,#519,#623,.T.);
#437=VERTEX_POINT('',#1482);
#438=VERTEX_POINT('',#1483);
#439=VERTEX_POINT('',#1485);
#440=VERTEX_POINT('',#1487);
#441=VERTEX_POINT('',#1490);
#442=VERTEX_POINT('',#1491);
#443=VERTEX_POINT('',#1493);
#444=VERTEX_POINT('',#1495);
#445=VERTEX_POINT('',#1498);
#446=VERTEX_POINT('',#1499);
#447=VERTEX_POINT('',#1501);
#448=VERTEX_POINT('',#1503);
#449=VERTEX_POINT('',#1505);
#450=VERTEX_POINT('',#1508);
#451=VERTEX_POINT('',#1509);
#452=VERTEX_POINT('',#1511);
#453=VERTEX_POINT('',#1513);
#454=VERTEX_POINT('',#1516);
#455=VERTEX_POINT('',#1517);
#456=VERTEX_POINT('',#1519);
#457=VERTEX_POINT('',#1521);
#458=VERTEX_POINT('',#1525);
#459=VERTEX_POINT('',#1526);
#460=VERTEX_POINT('',#1528);
#461=VERTEX_POINT('',#1530);
#462=VERTEX_POINT('',#1533);
#463=VERTEX_POINT('',#1534);
#464=VERTEX_POINT('',#1536);
#465=VERTEX_POINT('',#1538);
#466=VERTEX_POINT('',#1541);
#467=VERTEX_POINT('',#1543);
#468=VERTEX_POINT('',#1545);
#469=VERTEX_POINT('',#1546);
#470=VERTEX_POINT('',#1548);
#471=VERTEX_POINT('',#1550);
#472=VERTEX_POINT('',#1552);
#473=VERTEX_POINT('',#1555);
#474=VERTEX_POINT('',#1556);
#475=VERTEX_POINT('',#1558);
#476=VERTEX_POINT('',#1560);
#477=VERTEX_POINT('',#1563);
#478=VERTEX_POINT('',#1564);
#479=VERTEX_POINT('',#1566);
#480=VERTEX_POINT('',#1568);
#481=VERTEX_POINT('',#1578);
#482=VERTEX_POINT('',#1585);
#483=VERTEX_POINT('',#1588);
#484=VERTEX_POINT('',#1591);
#485=VERTEX_POINT('',#1593);
#486=VERTEX_POINT('',#1596);
#487=VERTEX_POINT('',#1599);
#488=VERTEX_POINT('',#1602);
#489=VERTEX_POINT('',#1605);
#490=VERTEX_POINT('',#1608);
#491=VERTEX_POINT('',#1610);
#492=VERTEX_POINT('',#1614);
#493=VERTEX_POINT('',#1618);
#494=VERTEX_POINT('',#1624);
#495=VERTEX_POINT('',#1626);
#496=VERTEX_POINT('',#1630);
#497=VERTEX_POINT('',#1634);
#498=VERTEX_POINT('',#1640);
#499=VERTEX_POINT('',#1642);
#500=VERTEX_POINT('',#1646);
#501=VERTEX_POINT('',#1650);
#502=VERTEX_POINT('',#1656);
#503=VERTEX_POINT('',#1658);
#504=VERTEX_POINT('',#1662);
#505=VERTEX_POINT('',#1666);
#506=VERTEX_POINT('',#1680);
#507=VERTEX_POINT('',#1682);
#508=VERTEX_POINT('',#1686);
#509=VERTEX_POINT('',#1690);
#510=VERTEX_POINT('',#1697);
#511=VERTEX_POINT('',#1699);
#512=VERTEX_POINT('',#1703);
#513=VERTEX_POINT('',#1707);
#514=VERTEX_POINT('',#1714);
#515=VERTEX_POINT('',#1716);
#516=VERTEX_POINT('',#1720);
#517=VERTEX_POINT('',#1724);
#518=VERTEX_POINT('',#1731);
#519=VERTEX_POINT('',#1733);
#520=VERTEX_POINT('',#1737);
#521=VERTEX_POINT('',#1741);
#522=LINE('',#1481,#624);
#523=LINE('',#1484,#625);
#524=LINE('',#1486,#626);
#525=LINE('',#1488,#627);
#526=LINE('',#1489,#628);
#527=LINE('',#1492,#629);
#528=LINE('',#1494,#630);
#529=LINE('',#1496,#631);
#530=LINE('',#1497,#632);
#531=LINE('',#1500,#633);
#532=LINE('',#1502,#634);
#533=LINE('',#1504,#635);
#534=LINE('',#1506,#636);
#535=LINE('',#1507,#637);
#536=LINE('',#1510,#638);
#537=LINE('',#1512,#639);
#538=LINE('',#1514,#640);
#539=LINE('',#1515,#641);
#540=LINE('',#1518,#642);
#541=LINE('',#1520,#643);
#542=LINE('',#1522,#644);
#543=LINE('',#1524,#645);
#544=LINE('',#1527,#646);
#545=LINE('',#1529,#647);
#546=LINE('',#1531,#648);
#547=LINE('',#1532,#649);
#548=LINE('',#1535,#650);
#549=LINE('',#1537,#651);
#550=LINE('',#1539,#652);
#551=LINE('',#1544,#653);
#552=LINE('',#1547,#654);
#553=LINE('',#1549,#655);
#554=LINE('',#1551,#656);
#555=LINE('',#1553,#657);
#556=LINE('',#1554,#658);
#557=LINE('',#1557,#659);
#558=LINE('',#1559,#660);
#559=LINE('',#1561,#661);
#560=LINE('',#1562,#662);
#561=LINE('',#1565,#663);
#562=LINE('',#1567,#664);
#563=LINE('',#1569,#665);
#564=LINE('',#1572,#666);
#565=LINE('',#1574,#667);
#566=LINE('',#1575,#668);
#567=LINE('',#1579,#669);
#568=LINE('',#1607,#670);
#569=LINE('',#1609,#671);
#570=LINE('',#1611,#672);
#571=LINE('',#1615,#673);
#572=LINE('',#1617,#674);
#573=LINE('',#1619,#675);
#574=LINE('',#1623,#676);
#575=LINE('',#1625,#677);
#576=LINE('',#1627,#678);
#577=LINE('',#1631,#679);
#578=LINE('',#1633,#680);
#579=LINE('',#1635,#681);
#580=LINE('',#1639,#682);
#581=LINE('',#1641,#683);
#582=LINE('',#1643,#684);
#583=LINE('',#1647,#685);
#584=LINE('',#1649,#686);
#585=LINE('',#1651,#687);
#586=LINE('',#1655,#688);
#587=LINE('',#1657,#689);
#588=LINE('',#1659,#690);
#589=LINE('',#1663,#691);
#590=LINE('',#1665,#692);
#591=LINE('',#1667,#693);
#592=LINE('',#1679,#694);
#593=LINE('',#1681,#695);
#594=LINE('',#1683,#696);
#595=LINE('',#1685,#697);
#596=LINE('',#1687,#698);
#597=LINE('',#1689,#699);
#598=LINE('',#1691,#700);
#599=LINE('',#1693,#701);
#600=LINE('',#1696,#702);
#601=LINE('',#1698,#703);
#602=LINE('',#1700,#704);
#603=LINE('',#1702,#705);
#604=LINE('',#1704,#706);
#605=LINE('',#1706,#707);
#606=LINE('',#1708,#708);
#607=LINE('',#1710,#709);
#608=LINE('',#1713,#710);
#609=LINE('',#1715,#711);
#610=LINE('',#1717,#712);
#611=LINE('',#1719,#713);
#612=LINE('',#1721,#714);
#613=LINE('',#1723,#715);
#614=LINE('',#1725,#716);
#615=LINE('',#1727,#717);
#616=LINE('',#1730,#718);
#617=LINE('',#1732,#719);
#618=LINE('',#1734,#720);
#619=LINE('',#1736,#721);
#620=LINE('',#1738,#722);
#621=LINE('',#1740,#723);
#622=LINE('',#1742,#724);
#623=LINE('',#1744,#725);
#624=VECTOR('',#1221,1.);
#625=VECTOR('',#1222,1.);
#626=VECTOR('',#1223,1.);
#627=VECTOR('',#1224,1.);
#628=VECTOR('',#1225,1.);
#629=VECTOR('',#1226,1.);
#630=VECTOR('',#1227,1.);
#631=VECTOR('',#1228,1.);
#632=VECTOR('',#1229,1.);
#633=VECTOR('',#1230,1.);
#634=VECTOR('',#1231,1.);
#635=VECTOR('',#1232,1.);
#636=VECTOR('',#1233,1.);
#637=VECTOR('',#1234,1.);
#638=VECTOR('',#1235,1.);
#639=VECTOR('',#1236,1.);
#640=VECTOR('',#1237,1.);
#641=VECTOR('',#1238,1.);
#642=VECTOR('',#1239,1.);
#643=VECTOR('',#1240,1.);
#644=VECTOR('',#1241,1.);
#645=VECTOR('',#1244,1.);
#646=VECTOR('',#1245,1.);
#647=VECTOR('',#1246,1.);
#648=VECTOR('',#1247,1.);
#649=VECTOR('',#1248,1.);
#650=VECTOR('',#1249,1.);
#651=VECTOR('',#1250,1.);
#652=VECTOR('',#1251,1.);
#653=VECTOR('',#1256,1.);
#654=VECTOR('',#1257,1.);
#655=VECTOR('',#1258,1.);
#656=VECTOR('',#1259,1.);
#657=VECTOR('',#1260,1.);
#658=VECTOR('',#1261,1.);
#659=VECTOR('',#1262,1.);
#660=VECTOR('',#1263,1.);
#661=VECTOR('',#1264,1.);
#662=VECTOR('',#1265,1.);
#663=VECTOR('',#1266,1.);
#664=VECTOR('',#1267,1.);
#665=VECTOR('',#1268,1.);
#666=VECTOR('',#1273,1.);
#667=VECTOR('',#1276,1.);
#668=VECTOR('',#1277,1.);
#669=VECTOR('',#1282,1.);
#670=VECTOR('',#1321,1.);
#671=VECTOR('',#1322,1.);
#672=VECTOR('',#1323,1.);
#673=VECTOR('',#1328,1.);
#674=VECTOR('',#1331,1.);
#675=VECTOR('',#1332,1.);
#676=VECTOR('',#1339,1.);
#677=VECTOR('',#1340,1.);
#678=VECTOR('',#1341,1.);
#679=VECTOR('',#1346,1.);
#680=VECTOR('',#1349,1.);
#681=VECTOR('',#1350,1.);
#682=VECTOR('',#1357,1.);
#683=VECTOR('',#1358,1.);
#684=VECTOR('',#1359,1.);
#685=VECTOR('',#1364,1.);
#686=VECTOR('',#1367,1.);
#687=VECTOR('',#1368,1.);
#688=VECTOR('',#1375,1.);
#689=VECTOR('',#1376,1.);
#690=VECTOR('',#1377,1.);
#691=VECTOR('',#1382,1.);
#692=VECTOR('',#1385,1.);
#693=VECTOR('',#1386,1.);
#694=VECTOR('',#1409,1.);
#695=VECTOR('',#1410,1.);
#696=VECTOR('',#1411,1.);
#697=VECTOR('',#1414,1.);
#698=VECTOR('',#1415,1.);
#699=VECTOR('',#1418,1.);
#700=VECTOR('',#1419,1.);
#701=VECTOR('',#1422,1.);
#702=VECTOR('',#1427,1.);
#703=VECTOR('',#1428,1.);
#704=VECTOR('',#1429,1.);
#705=VECTOR('',#1432,1.);
#706=VECTOR('',#1433,1.);
#707=VECTOR('',#1436,1.);
#708=VECTOR('',#1437,1.);
#709=VECTOR('',#1440,1.);
#710=VECTOR('',#1445,1.);
#711=VECTOR('',#1446,1.);
#712=VECTOR('',#1447,1.);
#713=VECTOR('',#1450,1.);
#714=VECTOR('',#1451,1.);
#715=VECTOR('',#1454,1.);
#716=VECTOR('',#1455,1.);
#717=VECTOR('',#1458,1.);
#718=VECTOR('',#1463,1.);
#719=VECTOR('',#1464,1.);
#720=VECTOR('',#1465,1.);
#721=VECTOR('',#1468,1.);
#722=VECTOR('',#1469,1.);
#723=VECTOR('',#1472,1.);
#724=VECTOR('',#1473,1.);
#725=VECTOR('',#1476,1.);
#726=EDGE_LOOP('',(#68,#69,#70,#71));
#727=EDGE_LOOP('',(#72,#73,#74,#75));
#728=EDGE_LOOP('',(#76,#77,#78,#79,#80));
#729=EDGE_LOOP('',(#81,#82,#83,#84));
#730=EDGE_LOOP('',(#85,#86,#87,#88));
#731=EDGE_LOOP('',(#89,#90,#91,#92));
#732=EDGE_LOOP('',(#93,#94,#95,#96));
#733=EDGE_LOOP('',(#97));
#734=EDGE_LOOP('',(#98));
#735=EDGE_LOOP('',(#99,#100,#101,#102,#103));
#736=EDGE_LOOP('',(#104,#105,#106,#107));
#737=EDGE_LOOP('',(#108,#109,#110,#111));
#738=EDGE_LOOP('',(#112,#113,#114,#115));
#739=EDGE_LOOP('',(#116,#117,#118,#119));
#740=EDGE_LOOP('',(#120));
#741=EDGE_LOOP('',(#121,#122,#123,#124));
#742=EDGE_LOOP('',(#125,#126,#127,#128));
#743=EDGE_LOOP('',(#129,#130,#131,#132));
#744=EDGE_LOOP('',(#133));
#745=EDGE_LOOP('',(#134));
#746=EDGE_LOOP('',(#135));
#747=EDGE_LOOP('',(#136,#137));
#748=EDGE_LOOP('',(#138));
#749=EDGE_LOOP('',(#139));
#750=EDGE_LOOP('',(#140));
#751=EDGE_LOOP('',(#141));
#752=EDGE_LOOP('',(#142));
#753=EDGE_LOOP('',(#143));
#754=EDGE_LOOP('',(#144));
#755=EDGE_LOOP('',(#145));
#756=EDGE_LOOP('',(#146,#147,#148,#149));
#757=EDGE_LOOP('',(#150,#151,#152,#153));
#758=EDGE_LOOP('',(#154,#155,#156,#157));
#759=EDGE_LOOP('',(#158,#159,#160,#161));
#760=EDGE_LOOP('',(#162,#163,#164,#165));
#761=EDGE_LOOP('',(#166,#167,#168,#169));
#762=EDGE_LOOP('',(#170,#171,#172,#173));
#763=EDGE_LOOP('',(#174,#175,#176,#177));
#764=EDGE_LOOP('',(#178,#179,#180,#181));
#765=EDGE_LOOP('',(#182,#183,#184,#185));
#766=EDGE_LOOP('',(#186,#187,#188,#189));
#767=EDGE_LOOP('',(#190,#191,#192,#193));
#768=EDGE_LOOP('',(#194,#195,#196,#197));
#769=EDGE_LOOP('',(#198,#199,#200,#201));
#770=EDGE_LOOP('',(#202,#203,#204,#205));
#771=EDGE_LOOP('',(#206,#207,#208,#209));
#772=EDGE_LOOP('',(#210,#211,#212,#213));
#773=EDGE_LOOP('',(#214,#215,#216,#217));
#774=EDGE_LOOP('',(#218,#219,#220,#221));
#775=EDGE_LOOP('',(#222,#223,#224,#225));
#776=EDGE_LOOP('',(#226));
#777=EDGE_LOOP('',(#227));
#778=EDGE_LOOP('',(#228));
#779=EDGE_LOOP('',(#229));
#780=EDGE_LOOP('',(#230));
#781=EDGE_LOOP('',(#231));
#782=EDGE_LOOP('',(#232));
#783=EDGE_LOOP('',(#233));
#784=EDGE_LOOP('',(#234,#235,#236,#237));
#785=EDGE_LOOP('',(#238,#239,#240,#241));
#786=EDGE_LOOP('',(#242,#243,#244,#245));
#787=EDGE_LOOP('',(#246,#247,#248,#249));
#788=EDGE_LOOP('',(#250,#251,#252,#253));
#789=EDGE_LOOP('',(#254,#255,#256,#257));
#790=EDGE_LOOP('',(#258,#259,#260,#261));
#791=EDGE_LOOP('',(#262,#263,#264,#265));
#792=EDGE_LOOP('',(#266,#267,#268,#269));
#793=EDGE_LOOP('',(#270,#271,#272,#273));
#794=EDGE_LOOP('',(#274,#275,#276,#277));
#795=EDGE_LOOP('',(#278,#279,#280,#281));
#796=EDGE_LOOP('',(#282,#283,#284,#285));
#797=EDGE_LOOP('',(#286,#287,#288,#289));
#798=EDGE_LOOP('',(#290,#291,#292,#293));
#799=EDGE_LOOP('',(#294,#295,#296,#297));
#800=EDGE_LOOP('',(#298,#299,#300,#301));
#801=EDGE_LOOP('',(#302,#303,#304,#305));
#802=EDGE_LOOP('',(#306,#307,#308,#309));
#803=EDGE_LOOP('',(#310,#311,#312,#313));
#804=FACE_BOUND('',#726,.T.);
#805=FACE_BOUND('',#727,.T.);
#806=FACE_BOUND('',#728,.T.);
#807=FACE_BOUND('',#729,.T.);
#808=FACE_BOUND('',#730,.T.);
#809=FACE_BOUND('',#731,.T.);
#810=FACE_BOUND('',#732,.T.);
#811=FACE_BOUND('',#733,.T.);
#812=FACE_BOUND('',#734,.T.);
#813=FACE_BOUND('',#735,.T.);
#814=FACE_BOUND('',#736,.T.);
#815=FACE_BOUND('',#737,.T.);
#816=FACE_BOUND('',#738,.T.);
#817=FACE_BOUND('',#739,.T.);
#818=FACE_BOUND('',#740,.T.);
#819=FACE_BOUND('',#741,.T.);
#820=FACE_BOUND('',#742,.T.);
#821=FACE_BOUND('',#743,.T.);
#822=FACE_BOUND('',#744,.T.);
#823=FACE_BOUND('',#745,.T.);
#824=FACE_BOUND('',#746,.T.);
#825=FACE_BOUND('',#747,.T.);
#826=FACE_BOUND('',#748,.T.);
#827=FACE_BOUND('',#749,.T.);
#828=FACE_BOUND('',#750,.T.);
#829=FACE_BOUND('',#751,.T.);
#830=FACE_BOUND('',#752,.T.);
#831=FACE_BOUND('',#753,.T.);
#832=FACE_BOUND('',#754,.T.);
#833=FACE_BOUND('',#755,.T.);
#834=FACE_BOUND('',#756,.T.);
#835=FACE_BOUND('',#757,.T.);
#836=FACE_BOUND('',#758,.T.);
#837=FACE_BOUND('',#759,.T.);
#838=FACE_BOUND('',#760,.T.);
#839=FACE_BOUND('',#761,.T.);
#840=FACE_BOUND('',#762,.T.);
#841=FACE_BOUND('',#763,.T.);
#842=FACE_BOUND('',#764,.T.);
#843=FACE_BOUND('',#765,.T.);
#844=FACE_BOUND('',#766,.T.);
#845=FACE_BOUND('',#767,.T.);
#846=FACE_BOUND('',#768,.T.);
#847=FACE_BOUND('',#769,.T.);
#848=FACE_BOUND('',#770,.T.);
#849=FACE_BOUND('',#771,.T.);
#850=FACE_BOUND('',#772,.T.);
#851=FACE_BOUND('',#773,.T.);
#852=FACE_BOUND('',#774,.T.);
#853=FACE_BOUND('',#775,.T.);
#854=FACE_BOUND('',#776,.T.);
#855=FACE_BOUND('',#777,.T.);
#856=FACE_BOUND('',#778,.T.);
#857=FACE_BOUND('',#779,.T.);
#858=FACE_BOUND('',#780,.T.);
#859=FACE_BOUND('',#781,.T.);
#860=FACE_BOUND('',#782,.T.);
#861=FACE_BOUND('',#783,.T.);
#862=FACE_BOUND('',#784,.T.);
#863=FACE_BOUND('',#785,.T.);
#864=FACE_BOUND('',#786,.T.);
#865=FACE_BOUND('',#787,.T.);
#866=FACE_BOUND('',#788,.T.);
#867=FACE_BOUND('',#789,.T.);
#868=FACE_BOUND('',#790,.T.);
#869=FACE_BOUND('',#791,.T.);
#870=FACE_BOUND('',#792,.T.);
#871=FACE_BOUND('',#793,.T.);
#872=FACE_BOUND('',#794,.T.);
#873=FACE_BOUND('',#795,.T.);
#874=FACE_BOUND('',#796,.T.);
#875=FACE_BOUND('',#797,.T.);
#876=FACE_BOUND('',#798,.T.);
#877=FACE_BOUND('',#799,.T.);
#878=FACE_BOUND('',#800,.T.);
#879=FACE_BOUND('',#801,.T.);
#880=FACE_BOUND('',#802,.T.);
#881=FACE_BOUND('',#803,.T.);
#882=PLANE('',#1138);
#883=PLANE('',#1139);
#884=PLANE('',#1142);
#885=PLANE('',#1144);
#886=PLANE('',#1145);
#887=PLANE('',#1147);
#888=PLANE('',#1148);
#889=PLANE('',#1154);
#890=PLANE('',#1159);
#891=PLANE('',#1163);
#892=PLANE('',#1165);
#893=PLANE('',#1166);
#894=PLANE('',#1168);
#895=PLANE('',#1169);
#896=PLANE('',#1171);
#897=PLANE('',#1172);
#898=PLANE('',#1174);
#899=PLANE('',#1175);
#900=PLANE('',#1177);
#901=PLANE('',#1178);
#902=PLANE('',#1180);
#903=PLANE('',#1181);
#904=PLANE('',#1183);
#905=PLANE('',#1184);
#906=PLANE('',#1186);
#907=PLANE('',#1187);
#908=PLANE('',#1197);
#909=PLANE('',#1198);
#910=PLANE('',#1199);
#911=PLANE('',#1200);
#912=PLANE('',#1201);
#913=PLANE('',#1202);
#914=PLANE('',#1203);
#915=PLANE('',#1204);
#916=PLANE('',#1205);
#917=PLANE('',#1206);
#918=PLANE('',#1207);
#919=PLANE('',#1208);
#920=PLANE('',#1209);
#921=PLANE('',#1210);
#922=PLANE('',#1211);
#923=PLANE('',#1212);
#924=PLANE('',#1213);
#925=PLANE('',#1214);
#926=PLANE('',#1215);
#927=PLANE('',#1216);
#928=ADVANCED_FACE('',(#804,#805,#806,#807,#808),#882,.T.);
#929=ADVANCED_FACE('',(#809,#810,#811,#812,#813,#814,#815),#883,.F.);
#930=ADVANCED_FACE('',(#816),#884,.T.);
#931=ADVANCED_FACE('',(#817),#885,.T.);
#932=ADVANCED_FACE('',(#818,#819),#886,.F.);
#933=ADVANCED_FACE('',(#820),#887,.F.);
#934=ADVANCED_FACE('',(#821),#888,.T.);
#935=ADVANCED_FACE('',(#822,#823),#39,.F.);
#936=ADVANCED_FACE('',(#824,#825),#40,.T.);
#937=ADVANCED_FACE('',(#826,#827),#889,.T.);
#938=ADVANCED_FACE('',(#828,#829),#41,.T.);
#939=ADVANCED_FACE('',(#830),#890,.F.);
#940=ADVANCED_FACE('',(#831,#832),#42,.T.);
#941=ADVANCED_FACE('',(#833),#891,.F.);
#942=ADVANCED_FACE('',(#834),#892,.F.);
#943=ADVANCED_FACE('Face appearance 1',(#835),#893,.T.);
#944=ADVANCED_FACE('Face appearance 1',(#836),#894,.T.);
#945=ADVANCED_FACE('Face appearance 1',(#837),#895,.F.);
#946=ADVANCED_FACE('Face appearance 1',(#838),#896,.F.);
#947=ADVANCED_FACE('Face appearance 1',(#839),#897,.T.);
#948=ADVANCED_FACE('Face appearance 1',(#840),#898,.T.);
#949=ADVANCED_FACE('Face appearance 1',(#841),#899,.F.);
#950=ADVANCED_FACE('Face appearance 1',(#842),#900,.F.);
#951=ADVANCED_FACE('Face appearance 1',(#843),#901,.T.);
#952=ADVANCED_FACE('Face appearance 1',(#844),#902,.T.);
#953=ADVANCED_FACE('Face appearance 1',(#845),#903,.F.);
#954=ADVANCED_FACE('Face appearance 1',(#846),#904,.F.);
#955=ADVANCED_FACE('Face appearance 1',(#847),#905,.T.);
#956=ADVANCED_FACE('Face appearance 1',(#848),#906,.T.);
#957=ADVANCED_FACE('Face appearance 1',(#849),#907,.F.);
#958=ADVANCED_FACE('Face appearance 1',(#850),#43,.T.);
#959=ADVANCED_FACE('Face appearance 1',(#851),#44,.T.);
#960=ADVANCED_FACE('Face appearance 1',(#852),#45,.T.);
#961=ADVANCED_FACE('Face appearance 1',(#853),#46,.T.);
#962=ADVANCED_FACE('',(#854,#855),#14,.T.);
#963=ADVANCED_FACE('',(#856,#857),#15,.T.);
#964=ADVANCED_FACE('',(#858,#859),#12,.T.);
#965=ADVANCED_FACE('',(#860,#861),#13,.T.);
#966=ADVANCED_FACE('',(#862),#908,.T.);
#967=ADVANCED_FACE('',(#863),#909,.T.);
#968=ADVANCED_FACE('',(#864),#910,.F.);
#969=ADVANCED_FACE('',(#865),#911,.F.);
#970=ADVANCED_FACE('Face appearance 1',(#866),#912,.T.);
#971=ADVANCED_FACE('',(#867),#913,.F.);
#972=ADVANCED_FACE('',(#868),#914,.F.);
#973=ADVANCED_FACE('',(#869),#915,.T.);
#974=ADVANCED_FACE('',(#870),#916,.T.);
#975=ADVANCED_FACE('Face appearance 1',(#871),#917,.T.);
#976=ADVANCED_FACE('',(#872),#918,.F.);
#977=ADVANCED_FACE('',(#873),#919,.F.);
#978=ADVANCED_FACE('',(#874),#920,.T.);
#979=ADVANCED_FACE('',(#875),#921,.T.);
#980=ADVANCED_FACE('Face appearance 1',(#876),#922,.T.);
#981=ADVANCED_FACE('',(#877),#923,.T.);
#982=ADVANCED_FACE('',(#878),#924,.T.);
#983=ADVANCED_FACE('',(#879),#925,.F.);
#984=ADVANCED_FACE('',(#880),#926,.F.);
#985=ADVANCED_FACE('Face appearance 1',(#881),#927,.T.);
#986=CLOSED_SHELL('',(#928,#929,#930,#931,#932,#933,#934,#935,#936,#937,
#938,#939,#940,#941,#942,#943,#944,#945,#946,#947,#948,#949,#950,#951,#952,
#953,#954,#955,#956,#957,#958,#959,#960,#961,#962,#963,#964,#965,#966,#967,
#968,#969,#970,#971,#972,#973,#974,#975,#976,#977,#978,#979,#980,#981,#982,
#983,#984,#985));
#987=STYLED_ITEM('',(#988),#1134);
#988=PRESENTATION_STYLE_ASSIGNMENT((#1012));
#989=PRESENTATION_STYLE_ASSIGNMENT((#1013));
#990=PRESENTATION_STYLE_ASSIGNMENT((#1014));
#991=PRESENTATION_STYLE_ASSIGNMENT((#1015));
#992=PRESENTATION_STYLE_ASSIGNMENT((#1016));
#993=PRESENTATION_STYLE_ASSIGNMENT((#1017));
#994=PRESENTATION_STYLE_ASSIGNMENT((#1018));
#995=PRESENTATION_STYLE_ASSIGNMENT((#1019));
#996=PRESENTATION_STYLE_ASSIGNMENT((#1020));
#997=PRESENTATION_STYLE_ASSIGNMENT((#1021));
#998=PRESENTATION_STYLE_ASSIGNMENT((#1022));
#999=PRESENTATION_STYLE_ASSIGNMENT((#1023));
#1000=PRESENTATION_STYLE_ASSIGNMENT((#1024));
#1001=PRESENTATION_STYLE_ASSIGNMENT((#1025));
#1002=PRESENTATION_STYLE_ASSIGNMENT((#1026));
#1003=PRESENTATION_STYLE_ASSIGNMENT((#1027));
#1004=PRESENTATION_STYLE_ASSIGNMENT((#1028));
#1005=PRESENTATION_STYLE_ASSIGNMENT((#1029));
#1006=PRESENTATION_STYLE_ASSIGNMENT((#1030));
#1007=PRESENTATION_STYLE_ASSIGNMENT((#1031));
#1008=PRESENTATION_STYLE_ASSIGNMENT((#1032));
#1009=PRESENTATION_STYLE_ASSIGNMENT((#1033));
#1010=PRESENTATION_STYLE_ASSIGNMENT((#1034));
#1011=PRESENTATION_STYLE_ASSIGNMENT((#1035));
#1012=SURFACE_STYLE_USAGE(.BOTH.,#1036);
#1013=SURFACE_STYLE_USAGE(.BOTH.,#1037);
#1014=SURFACE_STYLE_USAGE(.BOTH.,#1038);
#1015=SURFACE_STYLE_USAGE(.BOTH.,#1039);
#1016=SURFACE_STYLE_USAGE(.BOTH.,#1040);
#1017=SURFACE_STYLE_USAGE(.BOTH.,#1041);
#1018=SURFACE_STYLE_USAGE(.BOTH.,#1042);
#1019=SURFACE_STYLE_USAGE(.BOTH.,#1043);
#1020=SURFACE_STYLE_USAGE(.BOTH.,#1044);
#1021=SURFACE_STYLE_USAGE(.BOTH.,#1045);
#1022=SURFACE_STYLE_USAGE(.BOTH.,#1046);
#1023=SURFACE_STYLE_USAGE(.BOTH.,#1047);
#1024=SURFACE_STYLE_USAGE(.BOTH.,#1048);
#1025=SURFACE_STYLE_USAGE(.BOTH.,#1049);
#1026=SURFACE_STYLE_USAGE(.BOTH.,#1050);
#1027=SURFACE_STYLE_USAGE(.BOTH.,#1051);
#1028=SURFACE_STYLE_USAGE(.BOTH.,#1052);
#1029=SURFACE_STYLE_USAGE(.BOTH.,#1053);
#1030=SURFACE_STYLE_USAGE(.BOTH.,#1054);
#1031=SURFACE_STYLE_USAGE(.BOTH.,#1055);
#1032=SURFACE_STYLE_USAGE(.BOTH.,#1056);
#1033=SURFACE_STYLE_USAGE(.BOTH.,#1057);
#1034=SURFACE_STYLE_USAGE(.BOTH.,#1058);
#1035=SURFACE_STYLE_USAGE(.BOTH.,#1059);
#1036=SURFACE_SIDE_STYLE('',(#1060));
#1037=SURFACE_SIDE_STYLE('',(#1061));
#1038=SURFACE_SIDE_STYLE('',(#1062));
#1039=SURFACE_SIDE_STYLE('',(#1063));
#1040=SURFACE_SIDE_STYLE('',(#1064));
#1041=SURFACE_SIDE_STYLE('',(#1065));
#1042=SURFACE_SIDE_STYLE('',(#1066));
#1043=SURFACE_SIDE_STYLE('',(#1067));
#1044=SURFACE_SIDE_STYLE('',(#1068));
#1045=SURFACE_SIDE_STYLE('',(#1069));
#1046=SURFACE_SIDE_STYLE('',(#1070));
#1047=SURFACE_SIDE_STYLE('',(#1071));
#1048=SURFACE_SIDE_STYLE('',(#1072));
#1049=SURFACE_SIDE_STYLE('',(#1073));
#1050=SURFACE_SIDE_STYLE('',(#1074));
#1051=SURFACE_SIDE_STYLE('',(#1075));
#1052=SURFACE_SIDE_STYLE('',(#1076));
#1053=SURFACE_SIDE_STYLE('',(#1077));
#1054=SURFACE_SIDE_STYLE('',(#1078));
#1055=SURFACE_SIDE_STYLE('',(#1079));
#1056=SURFACE_SIDE_STYLE('',(#1080));
#1057=SURFACE_SIDE_STYLE('',(#1081));
#1058=SURFACE_SIDE_STYLE('',(#1082));
#1059=SURFACE_SIDE_STYLE('',(#1083));
#1060=SURFACE_STYLE_FILL_AREA(#1084);
#1061=SURFACE_STYLE_FILL_AREA(#1085);
#1062=SURFACE_STYLE_FILL_AREA(#1086);
#1063=SURFACE_STYLE_FILL_AREA(#1087);
#1064=SURFACE_STYLE_FILL_AREA(#1088);
#1065=SURFACE_STYLE_FILL_AREA(#1089);
#1066=SURFACE_STYLE_FILL_AREA(#1090);
#1067=SURFACE_STYLE_FILL_AREA(#1091);
#1068=SURFACE_STYLE_FILL_AREA(#1092);
#1069=SURFACE_STYLE_FILL_AREA(#1093);
#1070=SURFACE_STYLE_FILL_AREA(#1094);
#1071=SURFACE_STYLE_FILL_AREA(#1095);
#1072=SURFACE_STYLE_FILL_AREA(#1096);
#1073=SURFACE_STYLE_FILL_AREA(#1097);
#1074=SURFACE_STYLE_FILL_AREA(#1098);
#1075=SURFACE_STYLE_FILL_AREA(#1099);
#1076=SURFACE_STYLE_FILL_AREA(#1100);
#1077=SURFACE_STYLE_FILL_AREA(#1101);
#1078=SURFACE_STYLE_FILL_AREA(#1102);
#1079=SURFACE_STYLE_FILL_AREA(#1103);
#1080=SURFACE_STYLE_FILL_AREA(#1104);
#1081=SURFACE_STYLE_FILL_AREA(#1105);
#1082=SURFACE_STYLE_FILL_AREA(#1106);
#1083=SURFACE_STYLE_FILL_AREA(#1107);
#1084=FILL_AREA_STYLE('',(#1108));
#1085=FILL_AREA_STYLE('',(#1109));
#1086=FILL_AREA_STYLE('',(#1110));
#1087=FILL_AREA_STYLE('',(#1111));
#1088=FILL_AREA_STYLE('',(#1112));
#1089=FILL_AREA_STYLE('',(#1113));
#1090=FILL_AREA_STYLE('',(#1114));
#1091=FILL_AREA_STYLE('',(#1115));
#1092=FILL_AREA_STYLE('',(#1116));
#1093=FILL_AREA_STYLE('',(#1117));
#1094=FILL_AREA_STYLE('',(#1118));
#1095=FILL_AREA_STYLE('',(#1119));
#1096=FILL_AREA_STYLE('',(#1120));
#1097=FILL_AREA_STYLE('',(#1121));
#1098=FILL_AREA_STYLE('',(#1122));
#1099=FILL_AREA_STYLE('',(#1123));
#1100=FILL_AREA_STYLE('',(#1124));
#1101=FILL_AREA_STYLE('',(#1125));
#1102=FILL_AREA_STYLE('',(#1126));
#1103=FILL_AREA_STYLE('',(#1127));
#1104=FILL_AREA_STYLE('',(#1128));
#1105=FILL_AREA_STYLE('',(#1129));
#1106=FILL_AREA_STYLE('',(#1130));
#1107=FILL_AREA_STYLE('',(#1131));
#1108=FILL_AREA_STYLE_COLOUR('',#1132);
#1109=FILL_AREA_STYLE_COLOUR('',#1133);
#1110=FILL_AREA_STYLE_COLOUR('',#1133);
#1111=FILL_AREA_STYLE_COLOUR('',#1133);
#1112=FILL_AREA_STYLE_COLOUR('',#1133);
#1113=FILL_AREA_STYLE_COLOUR('',#1133);
#1114=FILL_AREA_STYLE_COLOUR('',#1133);
#1115=FILL_AREA_STYLE_COLOUR('',#1133);
#1116=FILL_AREA_STYLE_COLOUR('',#1133);
#1117=FILL_AREA_STYLE_COLOUR('',#1133);
#1118=FILL_AREA_STYLE_COLOUR('',#1133);
#1119=FILL_AREA_STYLE_COLOUR('',#1133);
#1120=FILL_AREA_STYLE_COLOUR('',#1133);
#1121=FILL_AREA_STYLE_COLOUR('',#1133);
#1122=FILL_AREA_STYLE_COLOUR('',#1133);
#1123=FILL_AREA_STYLE_COLOUR('',#1133);
#1124=FILL_AREA_STYLE_COLOUR('',#1133);
#1125=FILL_AREA_STYLE_COLOUR('',#1133);
#1126=FILL_AREA_STYLE_COLOUR('',#1133);
#1127=FILL_AREA_STYLE_COLOUR('',#1133);
#1128=FILL_AREA_STYLE_COLOUR('',#1133);
#1129=FILL_AREA_STYLE_COLOUR('',#1133);
#1130=FILL_AREA_STYLE_COLOUR('',#1133);
#1131=FILL_AREA_STYLE_COLOUR('',#1133);
#1132=COLOUR_RGB('',0.43921568627451,0.474509803921569,0.501960784313726);
#1133=COLOUR_RGB('',0.901960784313726,0.901960784313726,0.901960784313726);
#1134=MANIFOLD_SOLID_BREP('PJ-35-320A',#986);
#1135=SHAPE_DEFINITION_REPRESENTATION(#1752,#1136);
#1136=SHAPE_REPRESENTATION('PJ-35-320A',(#1137),#1747);
#1137=AXIS2_PLACEMENT_3D('',#1479,#1217,#1218);
#1138=AXIS2_PLACEMENT_3D('',#1480,#1219,#1220);
#1139=AXIS2_PLACEMENT_3D('',#1523,#1242,#1243);
#1140=AXIS2_PLACEMENT_3D('',#1540,#1252,#1253);
#1141=AXIS2_PLACEMENT_3D('',#1542,#1254,#1255);
#1142=AXIS2_PLACEMENT_3D('',#1570,#1269,#1270);
#1143=AXIS2_PLACEMENT_3D('',#1571,#1271,#1272);
#1144=AXIS2_PLACEMENT_3D('',#1573,#1274,#1275);
#1145=AXIS2_PLACEMENT_3D('',#1576,#1278,#1279);
#1146=AXIS2_PLACEMENT_3D('',#1577,#1280,#1281);
#1147=AXIS2_PLACEMENT_3D('',#1580,#1283,#1284);
#1148=AXIS2_PLACEMENT_3D('',#1581,#1285,#1286);
#1149=AXIS2_PLACEMENT_3D('',#1582,#1287,#1288);
#1150=AXIS2_PLACEMENT_3D('',#1583,#1289,#1290);
#1151=AXIS2_PLACEMENT_3D('',#1584,#1291,#1292);
#1152=AXIS2_PLACEMENT_3D('',#1586,#1293,#1294);
#1153=AXIS2_PLACEMENT_3D('',#1587,#1295,#1296);
#1154=AXIS2_PLACEMENT_3D('',#1589,#1297,#1298);
#1155=AXIS2_PLACEMENT_3D('',#1590,#1299,#1300);
#1156=AXIS2_PLACEMENT_3D('',#1592,#1301,#1302);
#1157=AXIS2_PLACEMENT_3D('',#1594,#1303,#1304);
#1158=AXIS2_PLACEMENT_3D('',#1595,#1305,#1306);
#1159=AXIS2_PLACEMENT_3D('',#1597,#1307,#1308);
#1160=AXIS2_PLACEMENT_3D('',#1598,#1309,#1310);
#1161=AXIS2_PLACEMENT_3D('',#1600,#1311,#1312);
#1162=AXIS2_PLACEMENT_3D('',#1601,#1313,#1314);
#1163=AXIS2_PLACEMENT_3D('',#1603,#1315,#1316);
#1164=AXIS2_PLACEMENT_3D('',#1604,#1317,#1318);
#1165=AXIS2_PLACEMENT_3D('',#1606,#1319,#1320);
#1166=AXIS2_PLACEMENT_3D('',#1612,#1324,#1325);
#1167=AXIS2_PLACEMENT_3D('',#1613,#1326,#1327);
#1168=AXIS2_PLACEMENT_3D('',#1616,#1329,#1330);
#1169=AXIS2_PLACEMENT_3D('',#1620,#1333,#1334);
#1170=AXIS2_PLACEMENT_3D('',#1621,#1335,#1336);
#1171=AXIS2_PLACEMENT_3D('',#1622,#1337,#1338);
#1172=AXIS2_PLACEMENT_3D('',#1628,#1342,#1343);
#1173=AXIS2_PLACEMENT_3D('',#1629,#1344,#1345);
#1174=AXIS2_PLACEMENT_3D('',#1632,#1347,#1348);
#1175=AXIS2_PLACEMENT_3D('',#1636,#1351,#1352);
#1176=AXIS2_PLACEMENT_3D('',#1637,#1353,#1354);
#1177=AXIS2_PLACEMENT_3D('',#1638,#1355,#1356);
#1178=AXIS2_PLACEMENT_3D('',#1644,#1360,#1361);
#1179=AXIS2_PLACEMENT_3D('',#1645,#1362,#1363);
#1180=AXIS2_PLACEMENT_3D('',#1648,#1365,#1366);
#1181=AXIS2_PLACEMENT_3D('',#1652,#1369,#1370);
#1182=AXIS2_PLACEMENT_3D('',#1653,#1371,#1372);
#1183=AXIS2_PLACEMENT_3D('',#1654,#1373,#1374);
#1184=AXIS2_PLACEMENT_3D('',#1660,#1378,#1379);
#1185=AXIS2_PLACEMENT_3D('',#1661,#1380,#1381);
#1186=AXIS2_PLACEMENT_3D('',#1664,#1383,#1384);
#1187=AXIS2_PLACEMENT_3D('',#1668,#1387,#1388);
#1188=AXIS2_PLACEMENT_3D('',#1669,#1389,#1390);
#1189=AXIS2_PLACEMENT_3D('',#1670,#1391,#1392);
#1190=AXIS2_PLACEMENT_3D('',#1671,#1393,#1394);
#1191=AXIS2_PLACEMENT_3D('',#1672,#1395,#1396);
#1192=AXIS2_PLACEMENT_3D('',#1673,#1397,#1398);
#1193=AXIS2_PLACEMENT_3D('',#1674,#1399,#1400);
#1194=AXIS2_PLACEMENT_3D('',#1675,#1401,#1402);
#1195=AXIS2_PLACEMENT_3D('',#1676,#1403,#1404);
#1196=AXIS2_PLACEMENT_3D('',#1677,#1405,#1406);
#1197=AXIS2_PLACEMENT_3D('',#1678,#1407,#1408);
#1198=AXIS2_PLACEMENT_3D('',#1684,#1412,#1413);
#1199=AXIS2_PLACEMENT_3D('',#1688,#1416,#1417);
#1200=AXIS2_PLACEMENT_3D('',#1692,#1420,#1421);
#1201=AXIS2_PLACEMENT_3D('',#1694,#1423,#1424);
#1202=AXIS2_PLACEMENT_3D('',#1695,#1425,#1426);
#1203=AXIS2_PLACEMENT_3D('',#1701,#1430,#1431);
#1204=AXIS2_PLACEMENT_3D('',#1705,#1434,#1435);
#1205=AXIS2_PLACEMENT_3D('',#1709,#1438,#1439);
#1206=AXIS2_PLACEMENT_3D('',#1711,#1441,#1442);
#1207=AXIS2_PLACEMENT_3D('',#1712,#1443,#1444);
#1208=AXIS2_PLACEMENT_3D('',#1718,#1448,#1449);
#1209=AXIS2_PLACEMENT_3D('',#1722,#1452,#1453);
#1210=AXIS2_PLACEMENT_3D('',#1726,#1456,#1457);
#1211=AXIS2_PLACEMENT_3D('',#1728,#1459,#1460);
#1212=AXIS2_PLACEMENT_3D('',#1729,#1461,#1462);
#1213=AXIS2_PLACEMENT_3D('',#1735,#1466,#1467);
#1214=AXIS2_PLACEMENT_3D('',#1739,#1470,#1471);
#1215=AXIS2_PLACEMENT_3D('',#1743,#1474,#1475);
#1216=AXIS2_PLACEMENT_3D('',#1745,#1477,#1478);
#1217=DIRECTION('',(0.,0.,1.));
#1218=DIRECTION('',(1.,0.,0.));
#1219=DIRECTION('',(0.,0.,1.));
#1220=DIRECTION('',(1.,0.,0.));
#1221=DIRECTION('',(-1.,0.,0.));
#1222=DIRECTION('',(-1.80700362080917E-16,-1.,0.));
#1223=DIRECTION('',(-1.,0.,0.));
#1224=DIRECTION('',(-1.80700362080917E-16,-1.,0.));
#1225=DIRECTION('',(-1.,0.,0.));
#1226=DIRECTION('',(0.,-1.,0.));
#1227=DIRECTION('',(-1.,0.,0.));
#1228=DIRECTION('',(7.2280144832367E-16,-1.,0.));
#1229=DIRECTION('',(-1.,-1.07524182395257E-16,0.));
#1230=DIRECTION('',(1.39897054514259E-16,1.,0.));
#1231=DIRECTION('',(-1.,-1.43365576527009E-16,0.));
#1232=DIRECTION('',(1.39897054514259E-16,1.,0.));
#1233=DIRECTION('',(1.39897054514259E-16,1.,0.));
#1234=DIRECTION('',(0.,-1.,0.));
#1235=DIRECTION('',(-1.,0.,0.));
#1236=DIRECTION('',(0.,-1.,0.));
#1237=DIRECTION('',(-1.,-3.61400724161835E-16,0.));
#1238=DIRECTION('',(0.,-1.,0.));
#1239=DIRECTION('',(-1.,0.,0.));
#1240=DIRECTION('',(0.,-1.,0.));
#1241=DIRECTION('',(-1.,0.,0.));
#1242=DIRECTION('',(0.,0.,1.));
#1243=DIRECTION('',(1.,0.,0.));
#1244=DIRECTION('',(0.,-1.,0.));
#1245=DIRECTION('',(-1.,0.,0.));
#1246=DIRECTION('',(2.16840434497101E-16,-1.,0.));
#1247=DIRECTION('',(-1.,0.,0.));
#1248=DIRECTION('',(3.46944695195361E-15,-1.,0.));
#1249=DIRECTION('',(-1.,0.,0.));
#1250=DIRECTION('',(3.46944695195361E-15,-1.,0.));
#1251=DIRECTION('',(-1.,-4.8186763221578E-16,0.));
#1252=DIRECTION('',(0.,0.,1.));
#1253=DIRECTION('',(1.,-6.12323399573676E-17,0.));
#1254=DIRECTION('',(0.,0.,1.));
#1255=DIRECTION('',(1.,-6.12323399573677E-17,0.));
#1256=DIRECTION('',(-1.,-1.07524182395257E-16,0.));
#1257=DIRECTION('',(1.39897054514259E-16,1.,0.));
#1258=DIRECTION('',(1.39897054514259E-16,1.,0.));
#1259=DIRECTION('',(-1.,-1.43365576527009E-16,0.));
#1260=DIRECTION('',(1.39897054514259E-16,1.,0.));
#1261=DIRECTION('',(3.46944695195361E-15,-1.,0.));
#1262=DIRECTION('',(-1.,0.,0.));
#1263=DIRECTION('',(0.,-1.,0.));
#1264=DIRECTION('',(-1.,-4.81867632215779E-16,0.));
#1265=DIRECTION('',(0.,-1.,0.));
#1266=DIRECTION('',(-1.,0.,0.));
#1267=DIRECTION('',(0.,-1.,0.));
#1268=DIRECTION('',(-1.,0.,0.));
#1269=DIRECTION('',(-1.,1.39897054514259E-16,0.));
#1270=DIRECTION('',(-1.39897054514259E-16,-1.,0.));
#1271=DIRECTION('',(-1.,1.39897054514259E-16,0.));
#1272=DIRECTION('',(0.,-1.,-1.7347234759768E-16));
#1273=DIRECTION('',(0.,0.,-1.));
#1274=DIRECTION('',(1.07524182395257E-16,-1.,0.));
#1275=DIRECTION('',(1.,1.07524182395257E-16,0.));
#1276=DIRECTION('',(0.,0.,-1.));
#1277=DIRECTION('',(0.,0.,-1.));
#1278=DIRECTION('',(-1.,1.39897054514259E-16,0.));
#1279=DIRECTION('',(-1.39897054514259E-16,-1.,0.));
#1280=DIRECTION('',(-1.,1.39897054514259E-16,0.));
#1281=DIRECTION('',(-1.39897054514259E-16,-1.,0.));
#1282=DIRECTION('',(0.,0.,-1.));
#1283=DIRECTION('',(1.43365576527009E-16,-1.,0.));
#1284=DIRECTION('',(1.,1.43365576527009E-16,0.));
#1285=DIRECTION('',(-1.,1.39897054514259E-16,0.));
#1286=DIRECTION('',(-1.39897054514259E-16,-1.,0.));
#1287=DIRECTION('',(-1.,1.39897054514259E-16,0.));
#1288=DIRECTION('',(0.,-1.,-1.7347234759768E-16));
#1289=DIRECTION('',(1.,-1.39897054514259E-16,0.));
#1290=DIRECTION('',(1.39897054514259E-16,1.,0.));
#1291=DIRECTION('',(-1.,1.39897054514259E-16,0.));
#1292=DIRECTION('',(-1.39897054514259E-16,-1.,0.));
#1293=DIRECTION('',(1.,-1.39897054514259E-16,0.));
#1294=DIRECTION('',(1.39897054514259E-16,1.,0.));
#1295=DIRECTION('',(-1.,1.39897054514259E-16,0.));
#1296=DIRECTION('',(-1.39897054514259E-16,-1.,0.));
#1297=DIRECTION('',(-1.,1.39897054514259E-16,0.));
#1298=DIRECTION('',(-1.39897054514259E-16,-1.,0.));
#1299=DIRECTION('',(-1.,1.39897054514259E-16,0.));
#1300=DIRECTION('',(-1.39897054514259E-16,-1.,0.));
#1301=DIRECTION('',(-1.,1.39897054514259E-16,0.));
#1302=DIRECTION('',(-1.39897054514259E-16,-1.,0.));
#1303=DIRECTION('',(0.,0.,1.));
#1304=DIRECTION('',(1.,0.,0.));
#1305=DIRECTION('',(0.,0.,1.));
#1306=DIRECTION('',(1.,0.,0.));
#1307=DIRECTION('',(0.,0.,1.));
#1308=DIRECTION('',(1.,0.,0.));
#1309=DIRECTION('',(0.,0.,1.));
#1310=DIRECTION('',(1.,0.,0.));
#1311=DIRECTION('',(0.,0.,1.));
#1312=DIRECTION('',(1.,0.,0.));
#1313=DIRECTION('',(0.,0.,1.));
#1314=DIRECTION('',(1.,0.,0.));
#1315=DIRECTION('',(0.,0.,1.));
#1316=DIRECTION('',(1.,0.,0.));
#1317=DIRECTION('',(0.,0.,1.));
#1318=DIRECTION('',(1.,0.,0.));
#1319=DIRECTION('',(-1.,-3.46944695195361E-15,0.));
#1320=DIRECTION('',(3.46944695195361E-15,-1.,0.));
#1321=DIRECTION('',(0.,0.,1.));
#1322=DIRECTION('',(3.46944695195361E-15,-1.,0.));
#1323=DIRECTION('',(0.,0.,1.));
#1324=DIRECTION('',(0.,1.,0.));
#1325=DIRECTION('',(0.,0.,1.));
#1326=DIRECTION('',(0.,1.,0.));
#1327=DIRECTION('',(0.,0.,1.));
#1328=DIRECTION('',(0.,0.,1.));
#1329=DIRECTION('',(-1.,-3.46944695195361E-15,0.));
#1330=DIRECTION('',(3.46944695195361E-15,-1.,0.));
#1331=DIRECTION('',(3.46944695195361E-15,-1.,0.));
#1332=DIRECTION('',(0.,0.,1.));
#1333=DIRECTION('',(-4.8186763221578E-16,1.,0.));
#1334=DIRECTION('',(-1.,-4.8186763221578E-16,0.));
#1335=DIRECTION('',(-4.8186763221578E-16,1.,0.));
#1336=DIRECTION('',(-1.,-4.8186763221578E-16,0.));
#1337=DIRECTION('',(-1.,-3.46944695195361E-15,0.));
#1338=DIRECTION('',(3.46944695195361E-15,-1.,0.));
#1339=DIRECTION('',(0.,0.,1.));
#1340=DIRECTION('',(3.46944695195361E-15,-1.,0.));
#1341=DIRECTION('',(0.,0.,1.));
#1342=DIRECTION('',(0.,1.,0.));
#1343=DIRECTION('',(0.,0.,1.));
#1344=DIRECTION('',(0.,1.,0.));
#1345=DIRECTION('',(0.,0.,1.));
#1346=DIRECTION('',(0.,0.,1.));
#1347=DIRECTION('',(-1.,0.,0.));
#1348=DIRECTION('',(0.,0.,1.));
#1349=DIRECTION('',(0.,-1.,0.));
#1350=DIRECTION('',(0.,0.,1.));
#1351=DIRECTION('',(-4.81867632215779E-16,1.,0.));
#1352=DIRECTION('',(-1.,-4.81867632215779E-16,0.));
#1353=DIRECTION('',(-4.81867632215779E-16,1.,0.));
#1354=DIRECTION('',(-1.,-4.81867632215779E-16,0.));
#1355=DIRECTION('',(-1.,0.,0.));
#1356=DIRECTION('',(0.,0.,1.));
#1357=DIRECTION('',(0.,0.,1.));
#1358=DIRECTION('',(0.,-1.,0.));
#1359=DIRECTION('',(0.,0.,1.));
#1360=DIRECTION('',(0.,1.,0.));
#1361=DIRECTION('',(0.,0.,1.));
#1362=DIRECTION('',(0.,1.,0.));
#1363=DIRECTION('',(0.,0.,1.));
#1364=DIRECTION('',(0.,0.,1.));
#1365=DIRECTION('',(-1.,-2.16840434497101E-16,0.));
#1366=DIRECTION('',(2.16840434497101E-16,-1.,0.));
#1367=DIRECTION('',(2.16840434497101E-16,-1.,0.));
#1368=DIRECTION('',(0.,0.,1.));
#1369=DIRECTION('',(0.,1.,0.));
#1370=DIRECTION('',(0.,0.,1.));
#1371=DIRECTION('',(0.,1.,0.));
#1372=DIRECTION('',(0.,0.,1.));
#1373=DIRECTION('',(-1.,0.,0.));
#1374=DIRECTION('',(0.,0.,1.));
#1375=DIRECTION('',(0.,0.,1.));
#1376=DIRECTION('',(0.,-1.,0.));
#1377=DIRECTION('',(0.,0.,1.));
#1378=DIRECTION('',(0.,1.,0.));
#1379=DIRECTION('',(0.,0.,1.));
#1380=DIRECTION('',(0.,1.,0.));
#1381=DIRECTION('',(0.,0.,1.));
#1382=DIRECTION('',(0.,0.,1.));
#1383=DIRECTION('',(-1.,0.,0.));
#1384=DIRECTION('',(0.,0.,1.));
#1385=DIRECTION('',(0.,-1.,0.));
#1386=DIRECTION('',(0.,0.,1.));
#1387=DIRECTION('',(0.,1.,0.));
#1388=DIRECTION('',(0.,0.,1.));
#1389=DIRECTION('',(0.,1.,0.));
#1390=DIRECTION('',(0.,0.,1.));
#1391=DIRECTION('',(0.,-1.,0.));
#1392=DIRECTION('',(0.,0.,-1.));
#1393=DIRECTION('',(0.,-1.,0.));
#1394=DIRECTION('',(0.,0.,-1.));
#1395=DIRECTION('',(3.46944695195361E-15,-1.,0.));
#1396=DIRECTION('',(1.,3.46944695195361E-15,0.));
#1397=DIRECTION('',(3.46944695195361E-15,-1.,0.));
#1398=DIRECTION('',(1.,3.46944695195361E-15,0.));
#1399=DIRECTION('',(0.,0.,1.));
#1400=DIRECTION('',(1.,0.,0.));
#1401=DIRECTION('',(0.,0.,1.));
#1402=DIRECTION('',(1.,0.,0.));
#1403=DIRECTION('',(-1.,1.39897054514259E-16,0.));
#1404=DIRECTION('',(-1.39897054514259E-16,-1.,0.));
#1405=DIRECTION('',(-1.,1.39897054514259E-16,0.));
#1406=DIRECTION('',(-1.39897054514259E-16,-1.,0.));
#1407=DIRECTION('',(0.,1.,0.));
#1408=DIRECTION('',(0.,0.,1.));
#1409=DIRECTION('',(0.,0.,1.));
#1410=DIRECTION('',(-1.,0.,0.));
#1411=DIRECTION('',(0.,0.,1.));
#1412=DIRECTION('',(-1.,0.,0.));
#1413=DIRECTION('',(0.,0.,1.));
#1414=DIRECTION('',(0.,0.,1.));
#1415=DIRECTION('',(0.,-1.,0.));
#1416=DIRECTION('',(-3.61400724161835E-16,1.,0.));
#1417=DIRECTION('',(-1.,-3.61400724161835E-16,0.));
#1418=DIRECTION('',(0.,0.,1.));
#1419=DIRECTION('',(-1.,-3.61400724161835E-16,0.));
#1420=DIRECTION('',(-1.,0.,0.));
#1421=DIRECTION('',(0.,0.,1.));
#1422=DIRECTION('',(0.,-1.,0.));
#1423=DIRECTION('',(0.,0.,1.));
#1424=DIRECTION('',(1.,0.,0.));
#1425=DIRECTION('',(0.,1.,0.));
#1426=DIRECTION('',(0.,0.,1.));
#1427=DIRECTION('',(0.,0.,1.));
#1428=DIRECTION('',(-1.,0.,0.));
#1429=DIRECTION('',(0.,0.,1.));
#1430=DIRECTION('',(-1.,-7.2280144832367E-16,0.));
#1431=DIRECTION('',(7.2280144832367E-16,-1.,0.));
#1432=DIRECTION('',(0.,0.,1.));
#1433=DIRECTION('',(7.2280144832367E-16,-1.,0.));
#1434=DIRECTION('',(0.,1.,0.));
#1435=DIRECTION('',(0.,0.,1.));
#1436=DIRECTION('',(0.,0.,1.));
#1437=DIRECTION('',(-1.,0.,0.));
#1438=DIRECTION('',(-1.,0.,0.));
#1439=DIRECTION('',(0.,0.,1.));
#1440=DIRECTION('',(0.,-1.,0.));
#1441=DIRECTION('',(0.,0.,1.));
#1442=DIRECTION('',(1.,0.,0.));
#1443=DIRECTION('',(0.,1.,0.));
#1444=DIRECTION('',(0.,0.,1.));
#1445=DIRECTION('',(0.,0.,1.));
#1446=DIRECTION('',(-1.,0.,0.));
#1447=DIRECTION('',(0.,0.,1.));
#1448=DIRECTION('',(-1.,1.80700362080917E-16,0.));
#1449=DIRECTION('',(-1.80700362080917E-16,-1.,0.));
#1450=DIRECTION('',(0.,0.,1.));
#1451=DIRECTION('',(-1.80700362080917E-16,-1.,0.));
#1452=DIRECTION('',(0.,1.,0.));
#1453=DIRECTION('',(0.,0.,1.));
#1454=DIRECTION('',(0.,0.,1.));
#1455=DIRECTION('',(-1.,0.,0.));
#1456=DIRECTION('',(-1.,1.80700362080917E-16,0.));
#1457=DIRECTION('',(-1.80700362080917E-16,-1.,0.));
#1458=DIRECTION('',(-1.80700362080917E-16,-1.,0.));
#1459=DIRECTION('',(0.,0.,1.));
#1460=DIRECTION('',(1.,0.,0.));
#1461=DIRECTION('',(0.,1.,0.));
#1462=DIRECTION('',(0.,0.,1.));
#1463=DIRECTION('',(0.,0.,1.));
#1464=DIRECTION('',(-1.,0.,0.));
#1465=DIRECTION('',(0.,0.,1.));
#1466=DIRECTION('',(-1.,0.,0.));
#1467=DIRECTION('',(0.,0.,1.));
#1468=DIRECTION('',(0.,0.,1.));
#1469=DIRECTION('',(0.,-1.,0.));
#1470=DIRECTION('',(0.,1.,0.));
#1471=DIRECTION('',(0.,0.,1.));
#1472=DIRECTION('',(0.,0.,1.));
#1473=DIRECTION('',(-1.,0.,0.));
#1474=DIRECTION('',(-1.,0.,0.));
#1475=DIRECTION('',(0.,0.,1.));
#1476=DIRECTION('',(0.,-1.,0.));
#1477=DIRECTION('',(0.,0.,1.));
#1478=DIRECTION('',(1.,0.,0.));
#1479=CARTESIAN_POINT('',(0.,0.,0.));
#1480=CARTESIAN_POINT('',(0.,0.,0.005));
#1481=CARTESIAN_POINT('',(0.00015,0.0026,0.005));
#1482=CARTESIAN_POINT('',(0.00075,0.0026,0.005));
#1483=CARTESIAN_POINT('',(-0.00045,0.0026,0.005));
#1484=CARTESIAN_POINT('',(0.00075,0.0023,0.005));
#1485=CARTESIAN_POINT('',(0.00075,0.002,0.005));
#1486=CARTESIAN_POINT('',(0.00015,0.002,0.005));
#1487=CARTESIAN_POINT('',(-0.00045,0.002,0.005));
#1488=CARTESIAN_POINT('',(-0.00045,0.0023,0.005));
#1489=CARTESIAN_POINT('',(0.00415,0.0026,0.005));
#1490=CARTESIAN_POINT('',(0.00475,0.0026,0.005));
#1491=CARTESIAN_POINT('',(0.00355,0.0026,0.005));
#1492=CARTESIAN_POINT('',(0.00475,0.0023,0.005));
#1493=CARTESIAN_POINT('',(0.00475,0.002,0.005));
#1494=CARTESIAN_POINT('',(0.00415,0.002,0.005));
#1495=CARTESIAN_POINT('',(0.00355,0.002,0.005));
#1496=CARTESIAN_POINT('',(0.00355,0.0023,0.005));
#1497=CARTESIAN_POINT('',(-8.67361737988404E-19,-0.0031,0.005));
#1498=CARTESIAN_POINT('',(0.00605,-0.0031,0.005));
#1499=CARTESIAN_POINT('',(-0.00605,-0.0031,0.005));
#1500=CARTESIAN_POINT('',(0.00605,4.33680868994202E-19,0.005));
#1501=CARTESIAN_POINT('',(0.00605,0.0031,0.005));
#1502=CARTESIAN_POINT('',(0.,0.0031,0.005));
#1503=CARTESIAN_POINT('',(-0.00605,0.0031,0.005));
#1504=CARTESIAN_POINT('',(-0.00605,-8.67361737988404E-19,0.005));
#1505=CARTESIAN_POINT('',(-0.00605,-4.10692688311815E-52,0.005));
#1506=CARTESIAN_POINT('',(-0.00605,-8.67361737988404E-19,0.005));
#1507=CARTESIAN_POINT('',(0.00585,-0.0023,0.005));
#1508=CARTESIAN_POINT('',(0.00585,-0.002,0.005));
#1509=CARTESIAN_POINT('',(0.00585,-0.0026,0.005));
#1510=CARTESIAN_POINT('',(0.00525,-0.0026,0.005));
#1511=CARTESIAN_POINT('',(0.00465,-0.0026,0.005));
#1512=CARTESIAN_POINT('',(0.00465,-0.0023,0.005));
#1513=CARTESIAN_POINT('',(0.00465,-0.002,0.005));
#1514=CARTESIAN_POINT('',(0.00525,-0.002,0.005));
#1515=CARTESIAN_POINT('',(-0.00225,0.0023,0.005));
#1516=CARTESIAN_POINT('',(-0.00225,0.0026,0.005));
#1517=CARTESIAN_POINT('',(-0.00225,0.002,0.005));
#1518=CARTESIAN_POINT('',(-0.00285,0.002,0.005));
#1519=CARTESIAN_POINT('',(-0.00345,0.002,0.005));
#1520=CARTESIAN_POINT('',(-0.00345,0.0023,0.005));
#1521=CARTESIAN_POINT('',(-0.00345,0.0026,0.005));
#1522=CARTESIAN_POINT('',(-0.00285,0.0026,0.005));
#1523=CARTESIAN_POINT('',(0.,0.,0.));
#1524=CARTESIAN_POINT('',(0.0006,0.0023,0.));
#1525=CARTESIAN_POINT('',(0.0006,0.002425,0.));
#1526=CARTESIAN_POINT('',(0.0006,0.002175,0.));
#1527=CARTESIAN_POINT('',(0.00015,0.002425,0.));
#1528=CARTESIAN_POINT('',(-0.0003,0.002425,0.));
#1529=CARTESIAN_POINT('',(-0.0003,0.0023,0.));
#1530=CARTESIAN_POINT('',(-0.0003,0.002175,0.));
#1531=CARTESIAN_POINT('',(0.00015,0.002175,0.));
#1532=CARTESIAN_POINT('',(0.0057,-0.0023,0.));
#1533=CARTESIAN_POINT('',(0.0057,-0.002175,0.));
#1534=CARTESIAN_POINT('',(0.0057,-0.002425,0.));
#1535=CARTESIAN_POINT('',(0.00525,-0.002175,0.));
#1536=CARTESIAN_POINT('',(0.0048,-0.002175,0.));
#1537=CARTESIAN_POINT('',(0.0048,-0.0023,0.));
#1538=CARTESIAN_POINT('',(0.0048,-0.002425,0.));
#1539=CARTESIAN_POINT('',(0.00525,-0.002425,0.));
#1540=CARTESIAN_POINT('',(-0.00445,3.06161699786839E-20,0.));
#1541=CARTESIAN_POINT('',(-0.00395,5.4166779685891E-35,0.));
#1542=CARTESIAN_POINT('',(0.00255,3.06161699786839E-20,0.));
#1543=CARTESIAN_POINT('',(0.00305,6.01853107621011E-36,0.));
#1544=CARTESIAN_POINT('',(-8.67361737988404E-19,-0.0031,0.));
#1545=CARTESIAN_POINT('',(0.00605,-0.0031,0.));
#1546=CARTESIAN_POINT('',(-0.00605,-0.0031,0.));
#1547=CARTESIAN_POINT('',(-0.00605,-8.67361737988404E-19,0.));
#1548=CARTESIAN_POINT('',(-0.00605,-4.10692688311815E-52,0.));
#1549=CARTESIAN_POINT('',(-0.00605,-8.67361737988404E-19,0.));
#1550=CARTESIAN_POINT('',(-0.00605,0.0031,0.));
#1551=CARTESIAN_POINT('',(0.,0.0031,0.));
#1552=CARTESIAN_POINT('',(0.00605,0.0031,0.));
#1553=CARTESIAN_POINT('',(0.00605,4.33680868994202E-19,0.));
#1554=CARTESIAN_POINT('',(0.0046,0.0023,0.));
#1555=CARTESIAN_POINT('',(0.0046,0.002425,0.));
#1556=CARTESIAN_POINT('',(0.0046,0.002175,0.));
#1557=CARTESIAN_POINT('',(0.00415,0.002425,0.));
#1558=CARTESIAN_POINT('',(0.0037,0.002425,0.));
#1559=CARTESIAN_POINT('',(0.0037,0.0023,0.));
#1560=CARTESIAN_POINT('',(0.0037,0.002175,0.));
#1561=CARTESIAN_POINT('',(0.00415,0.002175,0.));
#1562=CARTESIAN_POINT('',(-0.0024,0.0023,0.));
#1563=CARTESIAN_POINT('',(-0.0024,0.002425,0.));
#1564=CARTESIAN_POINT('',(-0.0024,0.002175,0.));
#1565=CARTESIAN_POINT('',(-0.00285,0.002425,0.));
#1566=CARTESIAN_POINT('',(-0.0033,0.002425,0.));
#1567=CARTESIAN_POINT('',(-0.0033,0.0023,0.));
#1568=CARTESIAN_POINT('',(-0.0033,0.002175,0.));
#1569=CARTESIAN_POINT('',(-0.00285,0.002175,0.));
#1570=CARTESIAN_POINT('',(-0.00605,-8.67361737988404E-19,0.005));
#1571=CARTESIAN_POINT('',(-0.00605,-4.10692688311815E-52,0.0025));
#1572=CARTESIAN_POINT('',(-0.00605,0.0031,0.005));
#1573=CARTESIAN_POINT('',(-8.67361737988404E-19,-0.0031,0.005));
#1574=CARTESIAN_POINT('',(0.00605,-0.0031,0.005));
#1575=CARTESIAN_POINT('',(-0.00605,-0.0031,0.005));
#1576=CARTESIAN_POINT('',(0.00605,4.33680868994202E-19,0.005));
#1577=CARTESIAN_POINT('',(0.00605,-1.69275435962253E-18,0.0025));
#1578=CARTESIAN_POINT('',(0.00605,-0.0018,0.0025));
#1579=CARTESIAN_POINT('',(0.00605,0.0031,0.005));
#1580=CARTESIAN_POINT('',(0.,0.0031,0.005));
#1581=CARTESIAN_POINT('',(-0.00605,-8.67361737988404E-19,0.005));
#1582=CARTESIAN_POINT('',(-0.00605,-4.10692688311815E-52,0.0025));
#1583=CARTESIAN_POINT('',(-0.00805,2.79794109028517E-19,0.0025));
#1584=CARTESIAN_POINT('',(-0.00785,2.51814698125665E-19,0.0025));
#1585=CARTESIAN_POINT('',(-0.00785,-0.0018,0.0025));
#1586=CARTESIAN_POINT('',(-0.00805,2.79794109028517E-19,0.0025));
#1587=CARTESIAN_POINT('',(-0.00785,2.51814698125665E-19,0.0025));
#1588=CARTESIAN_POINT('',(-0.00785,-0.0025,0.0025));
#1589=CARTESIAN_POINT('',(-0.00805,2.58809550851379E-19,0.0025));
#1590=CARTESIAN_POINT('',(-0.00805,2.79794109028517E-19,0.0025));
#1591=CARTESIAN_POINT('',(-0.00805,-0.002,0.0025));
#1592=CARTESIAN_POINT('',(-0.00805,2.79794109028517E-19,0.0025));
#1593=CARTESIAN_POINT('',(-0.00805,-0.0023,0.0025));
#1594=CARTESIAN_POINT('',(0.00255,3.06161699786839E-20,-0.0008));
#1595=CARTESIAN_POINT('',(0.00255,3.06161699786839E-20,-0.0005));
#1596=CARTESIAN_POINT('',(0.00305,3.06161699786839E-20,-0.0005));
#1597=CARTESIAN_POINT('',(0.,0.,-0.0008));
#1598=CARTESIAN_POINT('',(0.00255,3.06161699786839E-20,-0.0008));
#1599=CARTESIAN_POINT('',(0.00275,3.06161699786839E-20,-0.0008));
#1600=CARTESIAN_POINT('',(-0.00445,3.06161699786839E-20,-0.0008));
#1601=CARTESIAN_POINT('',(-0.00445,3.06161699786839E-20,-0.0005));
#1602=CARTESIAN_POINT('',(-0.00395,3.06161699786839E-20,-0.0005));
#1603=CARTESIAN_POINT('',(0.,0.,-0.0008));
#1604=CARTESIAN_POINT('',(-0.00445,3.06161699786839E-20,-0.0008));
#1605=CARTESIAN_POINT('',(-0.00425,3.06161699786839E-20,-0.0008));
#1606=CARTESIAN_POINT('',(0.0057,-0.0023,-0.003));
#1607=CARTESIAN_POINT('',(0.0057,-0.002425,-0.003));
#1608=CARTESIAN_POINT('',(0.0057,-0.002425,-0.00255));
#1609=CARTESIAN_POINT('',(0.0057,-0.0023,-0.00255));
#1610=CARTESIAN_POINT('',(0.0057,-0.002175,-0.00255));
#1611=CARTESIAN_POINT('',(0.0057,-0.002175,-0.003));
#1612=CARTESIAN_POINT('',(0.00525,-0.002175,-0.003));
#1613=CARTESIAN_POINT('',(0.00525,-0.002175,-0.00255));
#1614=CARTESIAN_POINT('',(0.0048,-0.002175,-0.00255));
#1615=CARTESIAN_POINT('',(0.0048,-0.002175,-0.003));
#1616=CARTESIAN_POINT('',(0.0048,-0.0023,-0.003));
#1617=CARTESIAN_POINT('',(0.0048,-0.002425,-0.00255));
#1618=CARTESIAN_POINT('',(0.0048,-0.002425,-0.00255));
#1619=CARTESIAN_POINT('',(0.0048,-0.002425,-0.003));
#1620=CARTESIAN_POINT('',(0.00525,-0.002425,-0.003));
#1621=CARTESIAN_POINT('',(0.00525,-0.002425,-0.00255));
#1622=CARTESIAN_POINT('',(0.0046,0.0023,-0.003));
#1623=CARTESIAN_POINT('',(0.0046,0.002175,-0.003));
#1624=CARTESIAN_POINT('',(0.0046,0.002175,-0.00255));
#1625=CARTESIAN_POINT('',(0.0046,0.0023,-0.00255));
#1626=CARTESIAN_POINT('',(0.0046,0.002425,-0.00255));
#1627=CARTESIAN_POINT('',(0.0046,0.002425,-0.003));
#1628=CARTESIAN_POINT('',(0.00415,0.002425,-0.003));
#1629=CARTESIAN_POINT('',(0.00415,0.002425,-0.00255));
#1630=CARTESIAN_POINT('',(0.0037,0.002425,-0.00255));
#1631=CARTESIAN_POINT('',(0.0037,0.002425,-0.003));
#1632=CARTESIAN_POINT('',(0.0037,0.0023,-0.003));
#1633=CARTESIAN_POINT('',(0.0037,0.002175,-0.00255));
#1634=CARTESIAN_POINT('',(0.0037,0.002175,-0.00255));
#1635=CARTESIAN_POINT('',(0.0037,0.002175,-0.003));
#1636=CARTESIAN_POINT('',(0.00415,0.002175,-0.003));
#1637=CARTESIAN_POINT('',(0.00415,0.002175,-0.00255));
#1638=CARTESIAN_POINT('',(0.0006,0.0023,-0.003));
#1639=CARTESIAN_POINT('',(0.0006,0.002175,-0.003));
#1640=CARTESIAN_POINT('',(0.0006,0.002175,-0.00255));
#1641=CARTESIAN_POINT('',(0.0006,0.0023,-0.00255));
#1642=CARTESIAN_POINT('',(0.0006,0.002425,-0.00255));
#1643=CARTESIAN_POINT('',(0.0006,0.002425,-0.003));
#1644=CARTESIAN_POINT('',(0.00015,0.002425,-0.003));
#1645=CARTESIAN_POINT('',(0.00015,0.002425,-0.00255));
#1646=CARTESIAN_POINT('',(-0.0003,0.002425,-0.00255));
#1647=CARTESIAN_POINT('',(-0.0003,0.002425,-0.003));
#1648=CARTESIAN_POINT('',(-0.0003,0.0023,-0.003));
#1649=CARTESIAN_POINT('',(-0.0003,0.002175,-0.00255));
#1650=CARTESIAN_POINT('',(-0.0003,0.002175,-0.00255));
#1651=CARTESIAN_POINT('',(-0.0003,0.002175,-0.003));
#1652=CARTESIAN_POINT('',(0.00015,0.002175,-0.003));
#1653=CARTESIAN_POINT('',(0.00015,0.002175,-0.00255));
#1654=CARTESIAN_POINT('',(-0.0024,0.0023,-0.003));
#1655=CARTESIAN_POINT('',(-0.0024,0.002175,-0.003));
#1656=CARTESIAN_POINT('',(-0.0024,0.002175,-0.00255));
#1657=CARTESIAN_POINT('',(-0.0024,0.0023,-0.00255));
#1658=CARTESIAN_POINT('',(-0.0024,0.002425,-0.00255));
#1659=CARTESIAN_POINT('',(-0.0024,0.002425,-0.003));
#1660=CARTESIAN_POINT('',(-0.00285,0.002425,-0.003));
#1661=CARTESIAN_POINT('',(-0.00285,0.002425,-0.00255));
#1662=CARTESIAN_POINT('',(-0.0033,0.002425,-0.00255));
#1663=CARTESIAN_POINT('',(-0.0033,0.002425,-0.003));
#1664=CARTESIAN_POINT('',(-0.0033,0.0023,-0.003));
#1665=CARTESIAN_POINT('',(-0.0033,0.002175,-0.00255));
#1666=CARTESIAN_POINT('',(-0.0033,0.002175,-0.00255));
#1667=CARTESIAN_POINT('',(-0.0033,0.002175,-0.003));
#1668=CARTESIAN_POINT('',(-0.00285,0.002175,-0.003));
#1669=CARTESIAN_POINT('',(-0.00285,0.002175,-0.00255));
#1670=CARTESIAN_POINT('',(-0.00285,0.,-0.00255));
#1671=CARTESIAN_POINT('',(0.00015,0.,-0.00255));
#1672=CARTESIAN_POINT('',(0.00525,1.82145964977564E-17,-0.00255));
#1673=CARTESIAN_POINT('',(0.00415,1.43982048506075E-17,-0.00255));
#1674=CARTESIAN_POINT('',(0.00255,3.06161699786839E-20,-0.0005));
#1675=CARTESIAN_POINT('',(-0.00445,3.06161699786839E-20,-0.0005));
#1676=CARTESIAN_POINT('',(-0.00785,2.51814698125665E-19,0.0025));
#1677=CARTESIAN_POINT('',(-0.00785,2.51814698125665E-19,0.0025));
#1678=CARTESIAN_POINT('',(0.00525,-0.0026,0.0049));
#1679=CARTESIAN_POINT('',(0.00585,-0.0026,0.0049));
#1680=CARTESIAN_POINT('',(0.00585,-0.0026,0.0049));
#1681=CARTESIAN_POINT('',(0.00525,-0.0026,0.0049));
#1682=CARTESIAN_POINT('',(0.00465,-0.0026,0.0049));
#1683=CARTESIAN_POINT('',(0.00465,-0.0026,0.0049));
#1684=CARTESIAN_POINT('',(0.00585,-0.0023,0.0049));
#1685=CARTESIAN_POINT('',(0.00585,-0.002,0.0049));
#1686=CARTESIAN_POINT('',(0.00585,-0.002,0.0049));
#1687=CARTESIAN_POINT('',(0.00585,-0.0023,0.0049));
#1688=CARTESIAN_POINT('',(0.00525,-0.002,0.0049));
#1689=CARTESIAN_POINT('',(0.00465,-0.002,0.0049));
#1690=CARTESIAN_POINT('',(0.00465,-0.002,0.0049));
#1691=CARTESIAN_POINT('',(0.00525,-0.002,0.0049));
#1692=CARTESIAN_POINT('',(0.00465,-0.0023,0.0049));
#1693=CARTESIAN_POINT('',(0.00465,-0.0023,0.0049));
#1694=CARTESIAN_POINT('',(0.0012,8.67361737988404E-19,0.0049));
#1695=CARTESIAN_POINT('',(0.00415,0.0026,0.0049));
#1696=CARTESIAN_POINT('',(0.00355,0.0026,0.0049));
#1697=CARTESIAN_POINT('',(0.00355,0.0026,0.0049));
#1698=CARTESIAN_POINT('',(0.00415,0.0026,0.0049));
#1699=CARTESIAN_POINT('',(0.00475,0.0026,0.0049));
#1700=CARTESIAN_POINT('',(0.00475,0.0026,0.0049));
#1701=CARTESIAN_POINT('',(0.00355,0.0023,0.0049));
#1702=CARTESIAN_POINT('',(0.00355,0.002,0.0049));
#1703=CARTESIAN_POINT('',(0.00355,0.002,0.0049));
#1704=CARTESIAN_POINT('',(0.00355,0.0023,0.0049));
#1705=CARTESIAN_POINT('',(0.00415,0.002,0.0049));
#1706=CARTESIAN_POINT('',(0.00475,0.002,0.0049));
#1707=CARTESIAN_POINT('',(0.00475,0.002,0.0049));
#1708=CARTESIAN_POINT('',(0.00415,0.002,0.0049));
#1709=CARTESIAN_POINT('',(0.00475,0.0023,0.0049));
#1710=CARTESIAN_POINT('',(0.00475,0.0023,0.0049));
#1711=CARTESIAN_POINT('',(0.0012,8.67361737988404E-19,0.0049));
#1712=CARTESIAN_POINT('',(0.00015,0.0026,0.0049));
#1713=CARTESIAN_POINT('',(-0.00045,0.0026,0.0049));
#1714=CARTESIAN_POINT('',(-0.00045,0.0026,0.0049));
#1715=CARTESIAN_POINT('',(0.00015,0.0026,0.0049));
#1716=CARTESIAN_POINT('',(0.00075,0.0026,0.0049));
#1717=CARTESIAN_POINT('',(0.00075,0.0026,0.0049));
#1718=CARTESIAN_POINT('',(-0.00045,0.0023,0.0049));
#1719=CARTESIAN_POINT('',(-0.00045,0.002,0.0049));
#1720=CARTESIAN_POINT('',(-0.00045,0.002,0.0049));
#1721=CARTESIAN_POINT('',(-0.00045,0.0023,0.0049));
#1722=CARTESIAN_POINT('',(0.00015,0.002,0.0049));
#1723=CARTESIAN_POINT('',(0.00075,0.002,0.0049));
#1724=CARTESIAN_POINT('',(0.00075,0.002,0.0049));
#1725=CARTESIAN_POINT('',(0.00015,0.002,0.0049));
#1726=CARTESIAN_POINT('',(0.00075,0.0023,0.0049));
#1727=CARTESIAN_POINT('',(0.00075,0.0023,0.0049));
#1728=CARTESIAN_POINT('',(0.0012,8.67361737988404E-19,0.0049));
#1729=CARTESIAN_POINT('',(-0.00285,0.002,0.0049));
#1730=CARTESIAN_POINT('',(-0.00225,0.002,0.0049));
#1731=CARTESIAN_POINT('',(-0.00225,0.002,0.0049));
#1732=CARTESIAN_POINT('',(-0.00285,0.002,0.0049));
#1733=CARTESIAN_POINT('',(-0.00345,0.002,0.0049));
#1734=CARTESIAN_POINT('',(-0.00345,0.002,0.0049));
#1735=CARTESIAN_POINT('',(-0.00225,0.0023,0.0049));
#1736=CARTESIAN_POINT('',(-0.00225,0.0026,0.0049));
#1737=CARTESIAN_POINT('',(-0.00225,0.0026,0.0049));
#1738=CARTESIAN_POINT('',(-0.00225,0.0023,0.0049));
#1739=CARTESIAN_POINT('',(-0.00285,0.0026,0.0049));
#1740=CARTESIAN_POINT('',(-0.00345,0.0026,0.0049));
#1741=CARTESIAN_POINT('',(-0.00345,0.0026,0.0049));
#1742=CARTESIAN_POINT('',(-0.00285,0.0026,0.0049));
#1743=CARTESIAN_POINT('',(-0.00345,0.0023,0.0049));
#1744=CARTESIAN_POINT('',(-0.00345,0.0023,0.0049));
#1745=CARTESIAN_POINT('',(0.0012,8.67361737988404E-19,0.0049));
#1746=MECHANICAL_DESIGN_GEOMETRIC_PRESENTATION_REPRESENTATION('',(#987,
#16,#17,#18,#19,#20,#21,#22,#23,#24,#25,#26,#27,#28,#29,#30,#31,#32,#33,
#34,#35,#36,#37,#38),#1747);
#1747=(
GEOMETRIC_REPRESENTATION_CONTEXT(3)
GLOBAL_UNCERTAINTY_ASSIGNED_CONTEXT((#1748))
GLOBAL_UNIT_ASSIGNED_CONTEXT((#1751,#1750,#1749))
REPRESENTATION_CONTEXT('PJ-35-320A','TOP_LEVEL_ASSEMBLY_PART')
);
#1748=UNCERTAINTY_MEASURE_WITH_UNIT(LENGTH_MEASURE(1.E-8),#1751,
'DISTANCE_ACCURACY_VALUE','Maximum Tolerance applied to model');
#1749=(
NAMED_UNIT(*)
SI_UNIT($,.STERADIAN.)
SOLID_ANGLE_UNIT()
);
#1750=(
NAMED_UNIT(*)
PLANE_ANGLE_UNIT()
SI_UNIT($,.RADIAN.)
);
#1751=(
LENGTH_UNIT()
NAMED_UNIT(*)
SI_UNIT($,.METRE.)
);
#1752=PRODUCT_DEFINITION_SHAPE('','',#1753);
#1753=PRODUCT_DEFINITION('','',#1755,#1754);
#1754=PRODUCT_DEFINITION_CONTEXT('',#1761,'design');
#1755=PRODUCT_DEFINITION_FORMATION_WITH_SPECIFIED_SOURCE('','',#1757,
 .NOT_KNOWN.);
#1756=PRODUCT_RELATED_PRODUCT_CATEGORY('','',(#1757));
#1757=PRODUCT('PJ-35-320A','PJ-35-320A','PJ-35-320A',(#1759));
#1758=PRODUCT_CATEGORY('','');
#1759=PRODUCT_CONTEXT('',#1761,'mechanical');
#1760=APPLICATION_PROTOCOL_DEFINITION('international standard',
'ap242_managed_model_based_3d_engineering',2020,#1761);
#1761=APPLICATION_CONTEXT('managed model based 3d engineering');
ENDSEC;
END-ISO-10303-21;
