ISO-10303-21;
HEADER;
/* Generated by software containing ST-Developer
 * from STEP Tools, Inc. (www.steptools.com) 
 */
/* OPTION: using custom renumber hook */

FILE_DESCRIPTION(
/* description */ ('STEP AP242 Edition 2',
'CAx-IF Rec.Pracs.---Representation and Presentation of Product Manufa
cturing Information (PMI)---4.0---2014-10-13',
'CAx-IF Rec.Pracs.---3D Tessellated Geometry---0.4---2014-09-14','2;1',
'CAx-IF Rec.Pracs.---User Defined Attributes---1.5---2016-08-15'),
/* implementation_level */ '2;1');

FILE_NAME(
/* name */ 'Part Studio 1 - PJ-35-320D',
/* time_stamp */ '2026-10-04T18:20:48Z',
/* author */ (''),
/* organization */ (''),
/* preprocessor_version */ 'ST-DEVELOPER v20',
/* originating_system */ 'ONSHAPE BY PTC INC, 1.221',
/* authorisation */ '  ');

FILE_SCHEMA (('AP242_MANAGED_MODEL_BASED_3D_ENGINEERING_MIM_LF { 1 0 10303 442 3 1 4 }'));
ENDSEC;

DATA;
#10=SHAPE_REPRESENTATION_RELATIONSHIP('','',#1517,#11);
#11=ADVANCED_BREP_SHAPE_REPRESENTATION('',(#1515),#2320);
#12=TOROIDAL_SURFACE('',#1596,0.002,0.0002);
#13=TOROIDAL_SURFACE('',#1597,0.0023,0.0002);
#14=CONICAL_SURFACE('',#1594,0.0002,0.785398163397448);
#15=CONICAL_SURFACE('',#1595,0.0002,0.785398163397448);
#16=OVER_RIDING_STYLED_ITEM('',(#1304),#1245,#1302);
#17=OVER_RIDING_STYLED_ITEM('',(#1305),#1246,#1302);
#18=OVER_RIDING_STYLED_ITEM('',(#1306),#1247,#1302);
#19=OVER_RIDING_STYLED_ITEM('',(#1307),#1248,#1302);
#20=OVER_RIDING_STYLED_ITEM('',(#1308),#1249,#1302);
#21=OVER_RIDING_STYLED_ITEM('',(#1309),#1250,#1302);
#22=OVER_RIDING_STYLED_ITEM('',(#1310),#1251,#1302);
#23=OVER_RIDING_STYLED_ITEM('',(#1311),#1252,#1302);
#24=OVER_RIDING_STYLED_ITEM('',(#1312),#1253,#1302);
#25=OVER_RIDING_STYLED_ITEM('',(#1313),#1254,#1302);
#26=OVER_RIDING_STYLED_ITEM('',(#1314),#1255,#1302);
#27=OVER_RIDING_STYLED_ITEM('',(#1315),#1256,#1302);
#28=OVER_RIDING_STYLED_ITEM('',(#1316),#1257,#1302);
#29=OVER_RIDING_STYLED_ITEM('',(#1317),#1258,#1302);
#30=OVER_RIDING_STYLED_ITEM('',(#1318),#1259,#1302);
#31=OVER_RIDING_STYLED_ITEM('',(#1319),#1260,#1302);
#32=OVER_RIDING_STYLED_ITEM('',(#1320),#1262,#1302);
#33=OVER_RIDING_STYLED_ITEM('',(#1321),#1263,#1302);
#34=OVER_RIDING_STYLED_ITEM('',(#1322),#1264,#1302);
#35=OVER_RIDING_STYLED_ITEM('',(#1323),#1265,#1302);
#36=OVER_RIDING_STYLED_ITEM('',(#1324),#1266,#1302);
#37=OVER_RIDING_STYLED_ITEM('',(#1325),#1267,#1302);
#38=OVER_RIDING_STYLED_ITEM('',(#1326),#1269,#1302);
#39=OVER_RIDING_STYLED_ITEM('',(#1327),#1270,#1302);
#40=OVER_RIDING_STYLED_ITEM('',(#1328),#1271,#1302);
#41=OVER_RIDING_STYLED_ITEM('',(#1329),#1272,#1302);
#42=OVER_RIDING_STYLED_ITEM('',(#1330),#1273,#1302);
#43=OVER_RIDING_STYLED_ITEM('',(#1331),#1274,#1302);
#44=OVER_RIDING_STYLED_ITEM('',(#1332),#1275,#1302);
#45=OVER_RIDING_STYLED_ITEM('',(#1333),#1276,#1302);
#46=OVER_RIDING_STYLED_ITEM('',(#1334),#1285,#1302);
#47=OVER_RIDING_STYLED_ITEM('',(#1335),#1290,#1302);
#48=OVER_RIDING_STYLED_ITEM('',(#1336),#1295,#1302);
#49=OVER_RIDING_STYLED_ITEM('',(#1337),#1300,#1302);
#50=CYLINDRICAL_SURFACE('',#1531,0.0025);
#51=CYLINDRICAL_SURFACE('',#1533,0.0018);
#52=CYLINDRICAL_SURFACE('',#1538,0.0005);
#53=CYLINDRICAL_SURFACE('',#1542,0.0005);
#54=CYLINDRICAL_SURFACE('',#1586,0.00045);
#55=CYLINDRICAL_SURFACE('',#1587,0.00045);
#56=CYLINDRICAL_SURFACE('',#1588,0.00045);
#57=CYLINDRICAL_SURFACE('',#1589,0.00045);
#58=CYLINDRICAL_SURFACE('',#1590,0.00045);
#59=CYLINDRICAL_SURFACE('',#1591,0.00045);
#60=CYLINDRICAL_SURFACE('',#1592,0.00045);
#61=CYLINDRICAL_SURFACE('',#1593,0.00045);
#62=CIRCLE('',#1522,0.0005);
#63=CIRCLE('',#1523,0.0005);
#64=CIRCLE('',#1525,0.0025);
#65=CIRCLE('',#1527,0.0025);
#66=CIRCLE('',#1530,0.0018);
#67=CIRCLE('',#1532,0.0025);
#68=CIRCLE('',#1534,0.0018);
#69=CIRCLE('',#1536,0.002);
#70=CIRCLE('',#1537,0.0023);
#71=CIRCLE('',#1539,0.0005);
#72=CIRCLE('',#1541,0.0002);
#73=CIRCLE('',#1543,0.0005);
#74=CIRCLE('',#1545,0.0002);
#75=CIRCLE('',#1551,0.00045);
#76=CIRCLE('',#1552,0.00045);
#77=CIRCLE('',#1558,0.00045);
#78=CIRCLE('',#1559,0.00045);
#79=CIRCLE('',#1565,0.00045);
#80=CIRCLE('',#1566,0.00045);
#81=CIRCLE('',#1572,0.00045);
#82=CIRCLE('',#1573,0.00045);
#83=CIRCLE('',#1575,0.00045);
#84=CIRCLE('',#1576,0.00045);
#85=CIRCLE('',#1578,0.00045);
#86=CIRCLE('',#1579,0.00045);
#87=CIRCLE('',#1581,0.00045);
#88=CIRCLE('',#1582,0.00045);
#89=CIRCLE('',#1584,0.00045);
#90=CIRCLE('',#1585,0.00045);
#91=ORIENTED_EDGE('',*,*,#433,.F.);
#92=ORIENTED_EDGE('',*,*,#434,.T.);
#93=ORIENTED_EDGE('',*,*,#435,.T.);
#94=ORIENTED_EDGE('',*,*,#436,.F.);
#95=ORIENTED_EDGE('',*,*,#437,.F.);
#96=ORIENTED_EDGE('',*,*,#438,.T.);
#97=ORIENTED_EDGE('',*,*,#439,.T.);
#98=ORIENTED_EDGE('',*,*,#440,.F.);
#99=ORIENTED_EDGE('',*,*,#441,.T.);
#100=ORIENTED_EDGE('',*,*,#442,.T.);
#101=ORIENTED_EDGE('',*,*,#443,.T.);
#102=ORIENTED_EDGE('',*,*,#444,.F.);
#103=ORIENTED_EDGE('',*,*,#445,.F.);
#104=ORIENTED_EDGE('',*,*,#446,.T.);
#105=ORIENTED_EDGE('',*,*,#447,.T.);
#106=ORIENTED_EDGE('',*,*,#448,.F.);
#107=ORIENTED_EDGE('',*,*,#449,.F.);
#108=ORIENTED_EDGE('',*,*,#450,.T.);
#109=ORIENTED_EDGE('',*,*,#451,.T.);
#110=ORIENTED_EDGE('',*,*,#452,.F.);
#111=ORIENTED_EDGE('',*,*,#453,.F.);
#112=ORIENTED_EDGE('',*,*,#454,.F.);
#113=ORIENTED_EDGE('',*,*,#455,.T.);
#114=ORIENTED_EDGE('',*,*,#456,.T.);
#115=ORIENTED_EDGE('',*,*,#457,.T.);
#116=ORIENTED_EDGE('',*,*,#458,.F.);
#117=ORIENTED_EDGE('',*,*,#441,.F.);
#118=ORIENTED_EDGE('',*,*,#459,.T.);
#119=ORIENTED_EDGE('',*,*,#460,.T.);
#120=ORIENTED_EDGE('',*,*,#461,.F.);
#121=ORIENTED_EDGE('',*,*,#462,.T.);
#122=ORIENTED_EDGE('',*,*,#463,.T.);
#123=ORIENTED_EDGE('',*,*,#464,.T.);
#124=ORIENTED_EDGE('',*,*,#465,.F.);
#125=ORIENTED_EDGE('',*,*,#466,.T.);
#126=ORIENTED_EDGE('',*,*,#467,.T.);
#127=ORIENTED_EDGE('',*,*,#468,.T.);
#128=ORIENTED_EDGE('',*,*,#469,.F.);
#129=ORIENTED_EDGE('',*,*,#470,.F.);
#130=ORIENTED_EDGE('',*,*,#471,.T.);
#131=ORIENTED_EDGE('',*,*,#472,.T.);
#132=ORIENTED_EDGE('',*,*,#473,.F.);
#133=ORIENTED_EDGE('',*,*,#474,.F.);
#134=ORIENTED_EDGE('',*,*,#475,.T.);
#135=ORIENTED_EDGE('',*,*,#476,.F.);
#136=ORIENTED_EDGE('',*,*,#477,.F.);
#137=ORIENTED_EDGE('',*,*,#457,.F.);
#138=ORIENTED_EDGE('',*,*,#478,.F.);
#139=ORIENTED_EDGE('',*,*,#479,.T.);
#140=ORIENTED_EDGE('',*,*,#480,.T.);
#141=ORIENTED_EDGE('',*,*,#468,.F.);
#142=ORIENTED_EDGE('',*,*,#481,.F.);
#143=ORIENTED_EDGE('',*,*,#482,.T.);
#144=ORIENTED_EDGE('',*,*,#483,.T.);
#145=ORIENTED_EDGE('',*,*,#464,.F.);
#146=ORIENTED_EDGE('',*,*,#484,.F.);
#147=ORIENTED_EDGE('',*,*,#485,.T.);
#148=ORIENTED_EDGE('',*,*,#486,.T.);
#149=ORIENTED_EDGE('',*,*,#460,.F.);
#150=ORIENTED_EDGE('',*,*,#487,.T.);
#151=ORIENTED_EDGE('',*,*,#443,.F.);
#152=ORIENTED_EDGE('',*,*,#488,.T.);
#153=ORIENTED_EDGE('',*,*,#476,.T.);
#154=ORIENTED_EDGE('',*,*,#489,.F.);
#155=ORIENTED_EDGE('',*,*,#477,.T.);
#156=ORIENTED_EDGE('',*,*,#490,.T.);
#157=ORIENTED_EDGE('',*,*,#442,.F.);
#158=ORIENTED_EDGE('',*,*,#458,.T.);
#159=ORIENTED_EDGE('',*,*,#491,.F.);
#160=ORIENTED_EDGE('',*,*,#492,.F.);
#161=ORIENTED_EDGE('',*,*,#493,.T.);
#162=ORIENTED_EDGE('',*,*,#471,.F.);
#163=ORIENTED_EDGE('',*,*,#494,.F.);
#164=ORIENTED_EDGE('',*,*,#444,.T.);
#165=ORIENTED_EDGE('',*,*,#489,.T.);
#166=ORIENTED_EDGE('',*,*,#475,.F.);
#167=ORIENTED_EDGE('',*,*,#495,.T.);
#168=ORIENTED_EDGE('',*,*,#487,.F.);
#169=ORIENTED_EDGE('',*,*,#459,.F.);
#170=ORIENTED_EDGE('',*,*,#445,.T.);
#171=ORIENTED_EDGE('',*,*,#494,.T.);
#172=ORIENTED_EDGE('',*,*,#496,.T.);
#173=ORIENTED_EDGE('',*,*,#488,.F.);
#174=ORIENTED_EDGE('',*,*,#490,.F.);
#175=ORIENTED_EDGE('',*,*,#497,.T.);
#176=ORIENTED_EDGE('',*,*,#495,.F.);
#177=ORIENTED_EDGE('',*,*,#498,.T.);
#178=ORIENTED_EDGE('',*,*,#499,.T.);
#179=ORIENTED_EDGE('',*,*,#500,.T.);
#180=ORIENTED_EDGE('',*,*,#469,.T.);
#181=ORIENTED_EDGE('',*,*,#501,.T.);
#182=ORIENTED_EDGE('',*,*,#502,.T.);
#183=ORIENTED_EDGE('',*,*,#470,.T.);
#184=ORIENTED_EDGE('',*,*,#503,.T.);
#185=ORIENTED_EDGE('',*,*,#504,.T.);
#186=ORIENTED_EDGE('',*,*,#505,.T.);
#187=ORIENTED_EDGE('',*,*,#506,.F.);
#188=ORIENTED_EDGE('',*,*,#507,.T.);
#189=ORIENTED_EDGE('',*,*,#481,.T.);
#190=ORIENTED_EDGE('',*,*,#467,.F.);
#191=ORIENTED_EDGE('',*,*,#482,.F.);
#192=ORIENTED_EDGE('',*,*,#507,.F.);
#193=ORIENTED_EDGE('',*,*,#508,.T.);
#194=ORIENTED_EDGE('',*,*,#509,.T.);
#195=ORIENTED_EDGE('',*,*,#510,.T.);
#196=ORIENTED_EDGE('',*,*,#511,.T.);
#197=ORIENTED_EDGE('',*,*,#512,.F.);
#198=ORIENTED_EDGE('',*,*,#465,.T.);
#199=ORIENTED_EDGE('',*,*,#483,.F.);
#200=ORIENTED_EDGE('',*,*,#509,.F.);
#201=ORIENTED_EDGE('',*,*,#513,.F.);
#202=ORIENTED_EDGE('',*,*,#514,.T.);
#203=ORIENTED_EDGE('',*,*,#515,.T.);
#204=ORIENTED_EDGE('',*,*,#516,.T.);
#205=ORIENTED_EDGE('',*,*,#506,.T.);
#206=ORIENTED_EDGE('',*,*,#517,.T.);
#207=ORIENTED_EDGE('',*,*,#513,.T.);
#208=ORIENTED_EDGE('',*,*,#518,.T.);
#209=ORIENTED_EDGE('',*,*,#510,.F.);
#210=ORIENTED_EDGE('',*,*,#508,.F.);
#211=ORIENTED_EDGE('',*,*,#519,.T.);
#212=ORIENTED_EDGE('',*,*,#520,.T.);
#213=ORIENTED_EDGE('',*,*,#521,.F.);
#214=ORIENTED_EDGE('',*,*,#522,.T.);
#215=ORIENTED_EDGE('',*,*,#523,.T.);
#216=ORIENTED_EDGE('',*,*,#524,.T.);
#217=ORIENTED_EDGE('',*,*,#525,.F.);
#218=ORIENTED_EDGE('',*,*,#526,.T.);
#219=ORIENTED_EDGE('',*,*,#484,.T.);
#220=ORIENTED_EDGE('',*,*,#463,.F.);
#221=ORIENTED_EDGE('',*,*,#485,.F.);
#222=ORIENTED_EDGE('',*,*,#526,.F.);
#223=ORIENTED_EDGE('',*,*,#527,.T.);
#224=ORIENTED_EDGE('',*,*,#528,.T.);
#225=ORIENTED_EDGE('',*,*,#529,.T.);
#226=ORIENTED_EDGE('',*,*,#530,.T.);
#227=ORIENTED_EDGE('',*,*,#531,.F.);
#228=ORIENTED_EDGE('',*,*,#461,.T.);
#229=ORIENTED_EDGE('',*,*,#486,.F.);
#230=ORIENTED_EDGE('',*,*,#528,.F.);
#231=ORIENTED_EDGE('',*,*,#521,.T.);
#232=ORIENTED_EDGE('',*,*,#532,.T.);
#233=ORIENTED_EDGE('',*,*,#529,.F.);
#234=ORIENTED_EDGE('',*,*,#527,.F.);
#235=ORIENTED_EDGE('',*,*,#525,.T.);
#236=ORIENTED_EDGE('',*,*,#533,.T.);
#237=ORIENTED_EDGE('',*,*,#534,.T.);
#238=ORIENTED_EDGE('',*,*,#535,.T.);
#239=ORIENTED_EDGE('',*,*,#536,.F.);
#240=ORIENTED_EDGE('',*,*,#537,.T.);
#241=ORIENTED_EDGE('',*,*,#538,.T.);
#242=ORIENTED_EDGE('',*,*,#539,.T.);
#243=ORIENTED_EDGE('',*,*,#540,.F.);
#244=ORIENTED_EDGE('',*,*,#541,.T.);
#245=ORIENTED_EDGE('',*,*,#478,.T.);
#246=ORIENTED_EDGE('',*,*,#456,.F.);
#247=ORIENTED_EDGE('',*,*,#479,.F.);
#248=ORIENTED_EDGE('',*,*,#541,.F.);
#249=ORIENTED_EDGE('',*,*,#542,.T.);
#250=ORIENTED_EDGE('',*,*,#543,.T.);
#251=ORIENTED_EDGE('',*,*,#544,.T.);
#252=ORIENTED_EDGE('',*,*,#545,.T.);
#253=ORIENTED_EDGE('',*,*,#546,.F.);
#254=ORIENTED_EDGE('',*,*,#454,.T.);
#255=ORIENTED_EDGE('',*,*,#480,.F.);
#256=ORIENTED_EDGE('',*,*,#543,.F.);
#257=ORIENTED_EDGE('',*,*,#536,.T.);
#258=ORIENTED_EDGE('',*,*,#547,.T.);
#259=ORIENTED_EDGE('',*,*,#544,.F.);
#260=ORIENTED_EDGE('',*,*,#542,.F.);
#261=ORIENTED_EDGE('',*,*,#540,.T.);
#262=ORIENTED_EDGE('',*,*,#548,.T.);
#263=ORIENTED_EDGE('',*,*,#549,.F.);
#264=ORIENTED_EDGE('',*,*,#550,.T.);
#265=ORIENTED_EDGE('',*,*,#551,.T.);
#266=ORIENTED_EDGE('',*,*,#552,.T.);
#267=ORIENTED_EDGE('',*,*,#472,.F.);
#268=ORIENTED_EDGE('',*,*,#493,.F.);
#269=ORIENTED_EDGE('',*,*,#473,.T.);
#270=ORIENTED_EDGE('',*,*,#552,.F.);
#271=ORIENTED_EDGE('',*,*,#553,.F.);
#272=ORIENTED_EDGE('',*,*,#554,.T.);
#273=ORIENTED_EDGE('',*,*,#555,.F.);
#274=ORIENTED_EDGE('',*,*,#556,.T.);
#275=ORIENTED_EDGE('',*,*,#557,.T.);
#276=ORIENTED_EDGE('',*,*,#491,.T.);
#277=ORIENTED_EDGE('',*,*,#474,.T.);
#278=ORIENTED_EDGE('',*,*,#554,.F.);
#279=ORIENTED_EDGE('',*,*,#558,.F.);
#280=ORIENTED_EDGE('',*,*,#559,.T.);
#281=ORIENTED_EDGE('',*,*,#560,.T.);
#282=ORIENTED_EDGE('',*,*,#561,.T.);
#283=ORIENTED_EDGE('',*,*,#560,.F.);
#284=ORIENTED_EDGE('',*,*,#562,.T.);
#285=ORIENTED_EDGE('',*,*,#555,.T.);
#286=ORIENTED_EDGE('',*,*,#553,.T.);
#287=ORIENTED_EDGE('',*,*,#551,.F.);
#288=ORIENTED_EDGE('',*,*,#563,.T.);
#289=ORIENTED_EDGE('',*,*,#557,.F.);
#290=ORIENTED_EDGE('',*,*,#564,.T.);
#291=ORIENTED_EDGE('',*,*,#558,.T.);
#292=ORIENTED_EDGE('',*,*,#565,.T.);
#293=ORIENTED_EDGE('',*,*,#549,.T.);
#294=ORIENTED_EDGE('',*,*,#492,.T.);
#295=ORIENTED_EDGE('',*,*,#531,.T.);
#296=ORIENTED_EDGE('',*,*,#566,.T.);
#297=ORIENTED_EDGE('',*,*,#519,.F.);
#298=ORIENTED_EDGE('',*,*,#567,.T.);
#299=ORIENTED_EDGE('',*,*,#523,.F.);
#300=ORIENTED_EDGE('',*,*,#462,.F.);
#301=ORIENTED_EDGE('',*,*,#515,.F.);
#302=ORIENTED_EDGE('',*,*,#568,.T.);
#303=ORIENTED_EDGE('',*,*,#504,.F.);
#304=ORIENTED_EDGE('',*,*,#466,.F.);
#305=ORIENTED_EDGE('',*,*,#512,.T.);
#306=ORIENTED_EDGE('',*,*,#569,.T.);
#307=ORIENTED_EDGE('',*,*,#546,.T.);
#308=ORIENTED_EDGE('',*,*,#570,.T.);
#309=ORIENTED_EDGE('',*,*,#534,.F.);
#310=ORIENTED_EDGE('',*,*,#571,.T.);
#311=ORIENTED_EDGE('',*,*,#538,.F.);
#312=ORIENTED_EDGE('',*,*,#455,.F.);
#313=ORIENTED_EDGE('',*,*,#547,.F.);
#314=ORIENTED_EDGE('',*,*,#535,.F.);
#315=ORIENTED_EDGE('',*,*,#570,.F.);
#316=ORIENTED_EDGE('',*,*,#545,.F.);
#317=ORIENTED_EDGE('',*,*,#548,.F.);
#318=ORIENTED_EDGE('',*,*,#539,.F.);
#319=ORIENTED_EDGE('',*,*,#571,.F.);
#320=ORIENTED_EDGE('',*,*,#537,.F.);
#321=ORIENTED_EDGE('',*,*,#517,.F.);
#322=ORIENTED_EDGE('',*,*,#505,.F.);
#323=ORIENTED_EDGE('',*,*,#568,.F.);
#324=ORIENTED_EDGE('',*,*,#514,.F.);
#325=ORIENTED_EDGE('',*,*,#518,.F.);
#326=ORIENTED_EDGE('',*,*,#516,.F.);
#327=ORIENTED_EDGE('',*,*,#569,.F.);
#328=ORIENTED_EDGE('',*,*,#511,.F.);
#329=ORIENTED_EDGE('',*,*,#532,.F.);
#330=ORIENTED_EDGE('',*,*,#520,.F.);
#331=ORIENTED_EDGE('',*,*,#566,.F.);
#332=ORIENTED_EDGE('',*,*,#530,.F.);
#333=ORIENTED_EDGE('',*,*,#533,.F.);
#334=ORIENTED_EDGE('',*,*,#524,.F.);
#335=ORIENTED_EDGE('',*,*,#567,.F.);
#336=ORIENTED_EDGE('',*,*,#522,.F.);
#337=ORIENTED_EDGE('',*,*,#562,.F.);
#338=ORIENTED_EDGE('',*,*,#559,.F.);
#339=ORIENTED_EDGE('',*,*,#564,.F.);
#340=ORIENTED_EDGE('',*,*,#556,.F.);
#341=ORIENTED_EDGE('',*,*,#563,.F.);
#342=ORIENTED_EDGE('',*,*,#550,.F.);
#343=ORIENTED_EDGE('',*,*,#565,.F.);
#344=ORIENTED_EDGE('',*,*,#561,.F.);
#345=ORIENTED_EDGE('',*,*,#500,.F.);
#346=ORIENTED_EDGE('',*,*,#501,.F.);
#347=ORIENTED_EDGE('',*,*,#502,.F.);
#348=ORIENTED_EDGE('',*,*,#503,.F.);
#349=ORIENTED_EDGE('',*,*,#497,.F.);
#350=ORIENTED_EDGE('',*,*,#498,.F.);
#351=ORIENTED_EDGE('',*,*,#499,.F.);
#352=ORIENTED_EDGE('',*,*,#496,.F.);
#353=ORIENTED_EDGE('',*,*,#447,.F.);
#354=ORIENTED_EDGE('',*,*,#572,.F.);
#355=ORIENTED_EDGE('',*,*,#573,.T.);
#356=ORIENTED_EDGE('',*,*,#574,.T.);
#357=ORIENTED_EDGE('',*,*,#446,.F.);
#358=ORIENTED_EDGE('',*,*,#575,.F.);
#359=ORIENTED_EDGE('',*,*,#576,.T.);
#360=ORIENTED_EDGE('',*,*,#572,.T.);
#361=ORIENTED_EDGE('',*,*,#449,.T.);
#362=ORIENTED_EDGE('',*,*,#577,.F.);
#363=ORIENTED_EDGE('',*,*,#578,.F.);
#364=ORIENTED_EDGE('',*,*,#575,.T.);
#365=ORIENTED_EDGE('',*,*,#448,.T.);
#366=ORIENTED_EDGE('',*,*,#574,.F.);
#367=ORIENTED_EDGE('',*,*,#579,.F.);
#368=ORIENTED_EDGE('',*,*,#577,.T.);
#369=ORIENTED_EDGE('',*,*,#573,.F.);
#370=ORIENTED_EDGE('',*,*,#576,.F.);
#371=ORIENTED_EDGE('',*,*,#578,.T.);
#372=ORIENTED_EDGE('',*,*,#579,.T.);
#373=ORIENTED_EDGE('',*,*,#437,.T.);
#374=ORIENTED_EDGE('',*,*,#580,.F.);
#375=ORIENTED_EDGE('',*,*,#581,.F.);
#376=ORIENTED_EDGE('',*,*,#582,.T.);
#377=ORIENTED_EDGE('',*,*,#440,.T.);
#378=ORIENTED_EDGE('',*,*,#583,.F.);
#379=ORIENTED_EDGE('',*,*,#584,.F.);
#380=ORIENTED_EDGE('',*,*,#580,.T.);
#381=ORIENTED_EDGE('',*,*,#439,.F.);
#382=ORIENTED_EDGE('',*,*,#585,.F.);
#383=ORIENTED_EDGE('',*,*,#586,.T.);
#384=ORIENTED_EDGE('',*,*,#583,.T.);
#385=ORIENTED_EDGE('',*,*,#438,.F.);
#386=ORIENTED_EDGE('',*,*,#582,.F.);
#387=ORIENTED_EDGE('',*,*,#587,.T.);
#388=ORIENTED_EDGE('',*,*,#585,.T.);
#389=ORIENTED_EDGE('',*,*,#581,.T.);
#390=ORIENTED_EDGE('',*,*,#584,.T.);
#391=ORIENTED_EDGE('',*,*,#586,.F.);
#392=ORIENTED_EDGE('',*,*,#587,.F.);
#393=ORIENTED_EDGE('',*,*,#433,.T.);
#394=ORIENTED_EDGE('',*,*,#588,.F.);
#395=ORIENTED_EDGE('',*,*,#589,.F.);
#396=ORIENTED_EDGE('',*,*,#590,.T.);
#397=ORIENTED_EDGE('',*,*,#436,.T.);
#398=ORIENTED_EDGE('',*,*,#591,.F.);
#399=ORIENTED_EDGE('',*,*,#592,.F.);
#400=ORIENTED_EDGE('',*,*,#588,.T.);
#401=ORIENTED_EDGE('',*,*,#435,.F.);
#402=ORIENTED_EDGE('',*,*,#593,.F.);
#403=ORIENTED_EDGE('',*,*,#594,.T.);
#404=ORIENTED_EDGE('',*,*,#591,.T.);
#405=ORIENTED_EDGE('',*,*,#434,.F.);
#406=ORIENTED_EDGE('',*,*,#590,.F.);
#407=ORIENTED_EDGE('',*,*,#595,.T.);
#408=ORIENTED_EDGE('',*,*,#593,.T.);
#409=ORIENTED_EDGE('',*,*,#589,.T.);
#410=ORIENTED_EDGE('',*,*,#592,.T.);
#411=ORIENTED_EDGE('',*,*,#594,.F.);
#412=ORIENTED_EDGE('',*,*,#595,.F.);
#413=ORIENTED_EDGE('',*,*,#451,.F.);
#414=ORIENTED_EDGE('',*,*,#596,.F.);
#415=ORIENTED_EDGE('',*,*,#597,.T.);
#416=ORIENTED_EDGE('',*,*,#598,.T.);
#417=ORIENTED_EDGE('',*,*,#450,.F.);
#418=ORIENTED_EDGE('',*,*,#599,.F.);
#419=ORIENTED_EDGE('',*,*,#600,.T.);
#420=ORIENTED_EDGE('',*,*,#596,.T.);
#421=ORIENTED_EDGE('',*,*,#453,.T.);
#422=ORIENTED_EDGE('',*,*,#601,.F.);
#423=ORIENTED_EDGE('',*,*,#602,.F.);
#424=ORIENTED_EDGE('',*,*,#599,.T.);
#425=ORIENTED_EDGE('',*,*,#452,.T.);
#426=ORIENTED_EDGE('',*,*,#598,.F.);
#427=ORIENTED_EDGE('',*,*,#603,.F.);
#428=ORIENTED_EDGE('',*,*,#601,.T.);
#429=ORIENTED_EDGE('',*,*,#597,.F.);
#430=ORIENTED_EDGE('',*,*,#600,.F.);
#431=ORIENTED_EDGE('',*,*,#602,.T.);
#432=ORIENTED_EDGE('',*,*,#603,.T.);
#433=EDGE_CURVE('',#604,#605,#721,.T.);
#434=EDGE_CURVE('',#604,#606,#722,.T.);
#435=EDGE_CURVE('',#606,#607,#723,.T.);
#436=EDGE_CURVE('',#605,#607,#724,.T.);
#437=EDGE_CURVE('',#608,#609,#725,.T.);
#438=EDGE_CURVE('',#608,#610,#726,.T.);
#439=EDGE_CURVE('',#610,#611,#727,.T.);
#440=EDGE_CURVE('',#609,#611,#728,.T.);
#441=EDGE_CURVE('',#612,#613,#729,.T.);
#442=EDGE_CURVE('',#613,#614,#730,.T.);
#443=EDGE_CURVE('',#614,#615,#731,.T.);
#444=EDGE_CURVE('',#616,#615,#732,.T.);
#445=EDGE_CURVE('',#612,#616,#733,.T.);
#446=EDGE_CURVE('',#617,#618,#734,.T.);
#447=EDGE_CURVE('',#618,#619,#735,.T.);
#448=EDGE_CURVE('',#620,#619,#736,.T.);
#449=EDGE_CURVE('',#617,#620,#737,.T.);
#450=EDGE_CURVE('',#621,#622,#738,.T.);
#451=EDGE_CURVE('',#622,#623,#739,.T.);
#452=EDGE_CURVE('',#624,#623,#740,.T.);
#453=EDGE_CURVE('',#621,#624,#741,.T.);
#454=EDGE_CURVE('',#625,#626,#742,.T.);
#455=EDGE_CURVE('',#625,#627,#743,.T.);
#456=EDGE_CURVE('',#627,#628,#744,.T.);
#457=EDGE_CURVE('',#628,#629,#745,.T.);
#458=EDGE_CURVE('',#613,#629,#746,.T.);
#459=EDGE_CURVE('',#612,#630,#747,.T.);
#460=EDGE_CURVE('',#630,#631,#748,.T.);
#461=EDGE_CURVE('',#632,#631,#749,.T.);
#462=EDGE_CURVE('',#632,#633,#750,.T.);
#463=EDGE_CURVE('',#633,#634,#751,.T.);
#464=EDGE_CURVE('',#634,#635,#752,.T.);
#465=EDGE_CURVE('',#636,#635,#753,.T.);
#466=EDGE_CURVE('',#636,#637,#754,.T.);
#467=EDGE_CURVE('',#637,#638,#755,.T.);
#468=EDGE_CURVE('',#638,#626,#756,.T.);
#469=EDGE_CURVE('',#639,#639,#62,.F.);
#470=EDGE_CURVE('',#640,#640,#63,.F.);
#471=EDGE_CURVE('',#641,#642,#757,.T.);
#472=EDGE_CURVE('',#642,#643,#758,.T.);
#473=EDGE_CURVE('',#644,#643,#759,.T.);
#474=EDGE_CURVE('',#645,#644,#760,.T.);
#475=EDGE_CURVE('',#645,#646,#761,.T.);
#476=EDGE_CURVE('',#647,#646,#762,.T.);
#477=EDGE_CURVE('',#629,#647,#763,.T.);
#478=EDGE_CURVE('',#648,#628,#764,.T.);
#479=EDGE_CURVE('',#648,#649,#765,.T.);
#480=EDGE_CURVE('',#649,#626,#766,.T.);
#481=EDGE_CURVE('',#650,#638,#767,.T.);
#482=EDGE_CURVE('',#650,#651,#768,.T.);
#483=EDGE_CURVE('',#651,#635,#769,.T.);
#484=EDGE_CURVE('',#652,#634,#770,.T.);
#485=EDGE_CURVE('',#652,#653,#771,.T.);
#486=EDGE_CURVE('',#653,#631,#772,.T.);
#487=EDGE_CURVE('',#630,#641,#773,.T.);
#488=EDGE_CURVE('',#614,#647,#64,.T.);
#489=EDGE_CURVE('',#615,#646,#774,.T.);
#490=EDGE_CURVE('',#647,#614,#65,.T.);
#491=EDGE_CURVE('',#654,#645,#775,.T.);
#492=EDGE_CURVE('',#655,#654,#776,.T.);
#493=EDGE_CURVE('',#655,#642,#777,.T.);
#494=EDGE_CURVE('',#616,#641,#778,.T.);
#495=EDGE_CURVE('',#656,#656,#66,.F.);
#496=EDGE_CURVE('',#657,#657,#67,.F.);
#497=EDGE_CURVE('',#658,#658,#68,.T.);
#498=EDGE_CURVE('',#659,#659,#69,.F.);
#499=EDGE_CURVE('',#660,#660,#70,.T.);
#500=EDGE_CURVE('',#661,#661,#71,.T.);
#501=EDGE_CURVE('',#662,#662,#72,.F.);
#502=EDGE_CURVE('',#663,#663,#73,.T.);
#503=EDGE_CURVE('',#664,#664,#74,.F.);
#504=EDGE_CURVE('',#637,#665,#779,.T.);
#505=EDGE_CURVE('',#665,#666,#780,.F.);
#506=EDGE_CURVE('',#667,#666,#781,.T.);
#507=EDGE_CURVE('',#667,#650,#782,.T.);
#508=EDGE_CURVE('',#667,#668,#783,.T.);
#509=EDGE_CURVE('',#668,#651,#784,.T.);
#510=EDGE_CURVE('',#668,#669,#785,.T.);
#511=EDGE_CURVE('',#669,#670,#786,.T.);
#512=EDGE_CURVE('',#636,#670,#787,.T.);
#513=EDGE_CURVE('',#671,#672,#788,.T.);
#514=EDGE_CURVE('',#671,#673,#789,.T.);
#515=EDGE_CURVE('',#673,#674,#790,.T.);
#516=EDGE_CURVE('',#674,#672,#791,.F.);
#517=EDGE_CURVE('',#666,#671,#75,.F.);
#518=EDGE_CURVE('',#672,#669,#76,.F.);
#519=EDGE_CURVE('',#675,#676,#792,.T.);
#520=EDGE_CURVE('',#676,#677,#793,.F.);
#521=EDGE_CURVE('',#678,#677,#794,.T.);
#522=EDGE_CURVE('',#678,#675,#795,.T.);
#523=EDGE_CURVE('',#633,#679,#796,.T.);
#524=EDGE_CURVE('',#679,#680,#797,.F.);
#525=EDGE_CURVE('',#681,#680,#798,.T.);
#526=EDGE_CURVE('',#681,#652,#799,.T.);
#527=EDGE_CURVE('',#681,#682,#800,.T.);
#528=EDGE_CURVE('',#682,#653,#801,.T.);
#529=EDGE_CURVE('',#682,#683,#802,.T.);
#530=EDGE_CURVE('',#683,#684,#803,.T.);
#531=EDGE_CURVE('',#632,#684,#804,.T.);
#532=EDGE_CURVE('',#677,#683,#77,.F.);
#533=EDGE_CURVE('',#680,#678,#78,.F.);
#534=EDGE_CURVE('',#685,#686,#805,.T.);
#535=EDGE_CURVE('',#686,#687,#806,.F.);
#536=EDGE_CURVE('',#688,#687,#807,.T.);
#537=EDGE_CURVE('',#688,#685,#808,.T.);
#538=EDGE_CURVE('',#627,#689,#809,.T.);
#539=EDGE_CURVE('',#689,#690,#810,.F.);
#540=EDGE_CURVE('',#691,#690,#811,.T.);
#541=EDGE_CURVE('',#691,#648,#812,.T.);
#542=EDGE_CURVE('',#691,#692,#813,.T.);
#543=EDGE_CURVE('',#692,#649,#814,.T.);
#544=EDGE_CURVE('',#692,#693,#815,.T.);
#545=EDGE_CURVE('',#693,#694,#816,.T.);
#546=EDGE_CURVE('',#625,#694,#817,.T.);
#547=EDGE_CURVE('',#687,#693,#79,.F.);
#548=EDGE_CURVE('',#690,#688,#80,.F.);
#549=EDGE_CURVE('',#695,#655,#818,.T.);
#550=EDGE_CURVE('',#695,#696,#819,.F.);
#551=EDGE_CURVE('',#696,#697,#820,.T.);
#552=EDGE_CURVE('',#697,#643,#821,.T.);
#553=EDGE_CURVE('',#698,#697,#822,.T.);
#554=EDGE_CURVE('',#698,#644,#823,.T.);
#555=EDGE_CURVE('',#699,#698,#824,.T.);
#556=EDGE_CURVE('',#699,#700,#825,.T.);
#557=EDGE_CURVE('',#700,#654,#826,.T.);
#558=EDGE_CURVE('',#701,#702,#827,.T.);
#559=EDGE_CURVE('',#701,#703,#828,.F.);
#560=EDGE_CURVE('',#703,#704,#829,.T.);
#561=EDGE_CURVE('',#704,#702,#830,.T.);
#562=EDGE_CURVE('',#703,#699,#81,.F.);
#563=EDGE_CURVE('',#696,#704,#82,.F.);
#564=EDGE_CURVE('',#700,#701,#83,.T.);
#565=EDGE_CURVE('',#702,#695,#84,.T.);
#566=EDGE_CURVE('',#684,#676,#85,.T.);
#567=EDGE_CURVE('',#675,#679,#86,.T.);
#568=EDGE_CURVE('',#673,#665,#87,.T.);
#569=EDGE_CURVE('',#670,#674,#88,.T.);
#570=EDGE_CURVE('',#694,#686,#89,.T.);
#571=EDGE_CURVE('',#685,#689,#90,.T.);
#572=EDGE_CURVE('',#705,#618,#831,.T.);
#573=EDGE_CURVE('',#705,#706,#832,.T.);
#574=EDGE_CURVE('',#706,#619,#833,.T.);
#575=EDGE_CURVE('',#707,#617,#834,.T.);
#576=EDGE_CURVE('',#707,#705,#835,.T.);
#577=EDGE_CURVE('',#708,#620,#836,.T.);
#578=EDGE_CURVE('',#707,#708,#837,.T.);
#579=EDGE_CURVE('',#708,#706,#838,.T.);
#580=EDGE_CURVE('',#709,#609,#839,.T.);
#581=EDGE_CURVE('',#710,#709,#840,.T.);
#582=EDGE_CURVE('',#710,#608,#841,.T.);
#583=EDGE_CURVE('',#711,#611,#842,.T.);
#584=EDGE_CURVE('',#709,#711,#843,.T.);
#585=EDGE_CURVE('',#712,#610,#844,.T.);
#586=EDGE_CURVE('',#712,#711,#845,.T.);
#587=EDGE_CURVE('',#710,#712,#846,.T.);
#588=EDGE_CURVE('',#713,#605,#847,.T.);
#589=EDGE_CURVE('',#714,#713,#848,.T.);
#590=EDGE_CURVE('',#714,#604,#849,.T.);
#591=EDGE_CURVE('',#715,#607,#850,.T.);
#592=EDGE_CURVE('',#713,#715,#851,.T.);
#593=EDGE_CURVE('',#716,#606,#852,.T.);
#594=EDGE_CURVE('',#716,#715,#853,.T.);
#595=EDGE_CURVE('',#714,#716,#854,.T.);
#596=EDGE_CURVE('',#717,#622,#855,.T.);
#597=EDGE_CURVE('',#717,#718,#856,.T.);
#598=EDGE_CURVE('',#718,#623,#857,.T.);
#599=EDGE_CURVE('',#719,#621,#858,.T.);
#600=EDGE_CURVE('',#719,#717,#859,.T.);
#601=EDGE_CURVE('',#720,#624,#860,.T.);
#602=EDGE_CURVE('',#719,#720,#861,.T.);
#603=EDGE_CURVE('',#720,#718,#862,.T.);
#604=VERTEX_POINT('',#1963);
#605=VERTEX_POINT('',#1964);
#606=VERTEX_POINT('',#1966);
#607=VERTEX_POINT('',#1968);
#608=VERTEX_POINT('',#1971);
#609=VERTEX_POINT('',#1972);
#610=VERTEX_POINT('',#1974);
#611=VERTEX_POINT('',#1976);
#612=VERTEX_POINT('',#1979);
#613=VERTEX_POINT('',#1980);
#614=VERTEX_POINT('',#1982);
#615=VERTEX_POINT('',#1984);
#616=VERTEX_POINT('',#1986);
#617=VERTEX_POINT('',#1989);
#618=VERTEX_POINT('',#1990);
#619=VERTEX_POINT('',#1992);
#620=VERTEX_POINT('',#1994);
#621=VERTEX_POINT('',#1997);
#622=VERTEX_POINT('',#1998);
#623=VERTEX_POINT('',#2000);
#624=VERTEX_POINT('',#2002);
#625=VERTEX_POINT('',#2006);
#626=VERTEX_POINT('',#2007);
#627=VERTEX_POINT('',#2009);
#628=VERTEX_POINT('',#2011);
#629=VERTEX_POINT('',#2013);
#630=VERTEX_POINT('',#2016);
#631=VERTEX_POINT('',#2018);
#632=VERTEX_POINT('',#2020);
#633=VERTEX_POINT('',#2022);
#634=VERTEX_POINT('',#2024);
#635=VERTEX_POINT('',#2026);
#636=VERTEX_POINT('',#2028);
#637=VERTEX_POINT('',#2030);
#638=VERTEX_POINT('',#2032);
#639=VERTEX_POINT('',#2036);
#640=VERTEX_POINT('',#2038);
#641=VERTEX_POINT('',#2040);
#642=VERTEX_POINT('',#2041);
#643=VERTEX_POINT('',#2043);
#644=VERTEX_POINT('',#2045);
#645=VERTEX_POINT('',#2047);
#646=VERTEX_POINT('',#2049);
#647=VERTEX_POINT('',#2051);
#648=VERTEX_POINT('',#2054);
#649=VERTEX_POINT('',#2056);
#650=VERTEX_POINT('',#2059);
#651=VERTEX_POINT('',#2061);
#652=VERTEX_POINT('',#2064);
#653=VERTEX_POINT('',#2066);
#654=VERTEX_POINT('',#2076);
#655=VERTEX_POINT('',#2078);
#656=VERTEX_POINT('',#2083);
#657=VERTEX_POINT('',#2086);
#658=VERTEX_POINT('',#2089);
#659=VERTEX_POINT('',#2092);
#660=VERTEX_POINT('',#2094);
#661=VERTEX_POINT('',#2097);
#662=VERTEX_POINT('',#2100);
#663=VERTEX_POINT('',#2103);
#664=VERTEX_POINT('',#2106);
#665=VERTEX_POINT('',#2109);
#666=VERTEX_POINT('',#2111);
#667=VERTEX_POINT('',#2113);
#668=VERTEX_POINT('',#2117);
#669=VERTEX_POINT('',#2121);
#670=VERTEX_POINT('',#2123);
#671=VERTEX_POINT('',#2127);
#672=VERTEX_POINT('',#2128);
#673=VERTEX_POINT('',#2130);
#674=VERTEX_POINT('',#2132);
#675=VERTEX_POINT('',#2139);
#676=VERTEX_POINT('',#2140);
#677=VERTEX_POINT('',#2142);
#678=VERTEX_POINT('',#2144);
#679=VERTEX_POINT('',#2148);
#680=VERTEX_POINT('',#2150);
#681=VERTEX_POINT('',#2152);
#682=VERTEX_POINT('',#2156);
#683=VERTEX_POINT('',#2160);
#684=VERTEX_POINT('',#2162);
#685=VERTEX_POINT('',#2169);
#686=VERTEX_POINT('',#2170);
#687=VERTEX_POINT('',#2172);
#688=VERTEX_POINT('',#2174);
#689=VERTEX_POINT('',#2178);
#690=VERTEX_POINT('',#2180);
#691=VERTEX_POINT('',#2182);
#692=VERTEX_POINT('',#2186);
#693=VERTEX_POINT('',#2190);
#694=VERTEX_POINT('',#2192);
#695=VERTEX_POINT('',#2199);
#696=VERTEX_POINT('',#2201);
#697=VERTEX_POINT('',#2203);
#698=VERTEX_POINT('',#2207);
#699=VERTEX_POINT('',#2211);
#700=VERTEX_POINT('',#2213);
#701=VERTEX_POINT('',#2217);
#702=VERTEX_POINT('',#2218);
#703=VERTEX_POINT('',#2220);
#704=VERTEX_POINT('',#2222);
#705=VERTEX_POINT('',#2253);
#706=VERTEX_POINT('',#2255);
#707=VERTEX_POINT('',#2259);
#708=VERTEX_POINT('',#2263);
#709=VERTEX_POINT('',#2270);
#710=VERTEX_POINT('',#2272);
#711=VERTEX_POINT('',#2276);
#712=VERTEX_POINT('',#2280);
#713=VERTEX_POINT('',#2287);
#714=VERTEX_POINT('',#2289);
#715=VERTEX_POINT('',#2293);
#716=VERTEX_POINT('',#2297);
#717=VERTEX_POINT('',#2304);
#718=VERTEX_POINT('',#2306);
#719=VERTEX_POINT('',#2310);
#720=VERTEX_POINT('',#2314);
#721=LINE('',#1962,#863);
#722=LINE('',#1965,#864);
#723=LINE('',#1967,#865);
#724=LINE('',#1969,#866);
#725=LINE('',#1970,#867);
#726=LINE('',#1973,#868);
#727=LINE('',#1975,#869);
#728=LINE('',#1977,#870);
#729=LINE('',#1978,#871);
#730=LINE('',#1981,#872);
#731=LINE('',#1983,#873);
#732=LINE('',#1985,#874);
#733=LINE('',#1987,#875);
#734=LINE('',#1988,#876);
#735=LINE('',#1991,#877);
#736=LINE('',#1993,#878);
#737=LINE('',#1995,#879);
#738=LINE('',#1996,#880);
#739=LINE('',#1999,#881);
#740=LINE('',#2001,#882);
#741=LINE('',#2003,#883);
#742=LINE('',#2005,#884);
#743=LINE('',#2008,#885);
#744=LINE('',#2010,#886);
#745=LINE('',#2012,#887);
#746=LINE('',#2014,#888);
#747=LINE('',#2015,#889);
#748=LINE('',#2017,#890);
#749=LINE('',#2019,#891);
#750=LINE('',#2021,#892);
#751=LINE('',#2023,#893);
#752=LINE('',#2025,#894);
#753=LINE('',#2027,#895);
#754=LINE('',#2029,#896);
#755=LINE('',#2031,#897);
#756=LINE('',#2033,#898);
#757=LINE('',#2039,#899);
#758=LINE('',#2042,#900);
#759=LINE('',#2044,#901);
#760=LINE('',#2046,#902);
#761=LINE('',#2048,#903);
#762=LINE('',#2050,#904);
#763=LINE('',#2052,#905);
#764=LINE('',#2053,#906);
#765=LINE('',#2055,#907);
#766=LINE('',#2057,#908);
#767=LINE('',#2058,#909);
#768=LINE('',#2060,#910);
#769=LINE('',#2062,#911);
#770=LINE('',#2063,#912);
#771=LINE('',#2065,#913);
#772=LINE('',#2067,#914);
#773=LINE('',#2068,#915);
#774=LINE('',#2071,#916);
#775=LINE('',#2075,#917);
#776=LINE('',#2077,#918);
#777=LINE('',#2079,#919);
#778=LINE('',#2080,#920);
#779=LINE('',#2108,#921);
#780=LINE('',#2110,#922);
#781=LINE('',#2112,#923);
#782=LINE('',#2114,#924);
#783=LINE('',#2116,#925);
#784=LINE('',#2118,#926);
#785=LINE('',#2120,#927);
#786=LINE('',#2122,#928);
#787=LINE('',#2124,#929);
#788=LINE('',#2126,#930);
#789=LINE('',#2129,#931);
#790=LINE('',#2131,#932);
#791=LINE('',#2133,#933);
#792=LINE('',#2138,#934);
#793=LINE('',#2141,#935);
#794=LINE('',#2143,#936);
#795=LINE('',#2145,#937);
#796=LINE('',#2147,#938);
#797=LINE('',#2149,#939);
#798=LINE('',#2151,#940);
#799=LINE('',#2153,#941);
#800=LINE('',#2155,#942);
#801=LINE('',#2157,#943);
#802=LINE('',#2159,#944);
#803=LINE('',#2161,#945);
#804=LINE('',#2163,#946);
#805=LINE('',#2168,#947);
#806=LINE('',#2171,#948);
#807=LINE('',#2173,#949);
#808=LINE('',#2175,#950);
#809=LINE('',#2177,#951);
#810=LINE('',#2179,#952);
#811=LINE('',#2181,#953);
#812=LINE('',#2183,#954);
#813=LINE('',#2185,#955);
#814=LINE('',#2187,#956);
#815=LINE('',#2189,#957);
#816=LINE('',#2191,#958);
#817=LINE('',#2193,#959);
#818=LINE('',#2198,#960);
#819=LINE('',#2200,#961);
#820=LINE('',#2202,#962);
#821=LINE('',#2204,#963);
#822=LINE('',#2206,#964);
#823=LINE('',#2208,#965);
#824=LINE('',#2210,#966);
#825=LINE('',#2212,#967);
#826=LINE('',#2214,#968);
#827=LINE('',#2216,#969);
#828=LINE('',#2219,#970);
#829=LINE('',#2221,#971);
#830=LINE('',#2223,#972);
#831=LINE('',#2252,#973);
#832=LINE('',#2254,#974);
#833=LINE('',#2256,#975);
#834=LINE('',#2258,#976);
#835=LINE('',#2260,#977);
#836=LINE('',#2262,#978);
#837=LINE('',#2264,#979);
#838=LINE('',#2266,#980);
#839=LINE('',#2269,#981);
#840=LINE('',#2271,#982);
#841=LINE('',#2273,#983);
#842=LINE('',#2275,#984);
#843=LINE('',#2277,#985);
#844=LINE('',#2279,#986);
#845=LINE('',#2281,#987);
#846=LINE('',#2283,#988);
#847=LINE('',#2286,#989);
#848=LINE('',#2288,#990);
#849=LINE('',#2290,#991);
#850=LINE('',#2292,#992);
#851=LINE('',#2294,#993);
#852=LINE('',#2296,#994);
#853=LINE('',#2298,#995);
#854=LINE('',#2300,#996);
#855=LINE('',#2303,#997);
#856=LINE('',#2305,#998);
#857=LINE('',#2307,#999);
#858=LINE('',#2309,#1000);
#859=LINE('',#2311,#1001);
#860=LINE('',#2313,#1002);
#861=LINE('',#2315,#1003);
#862=LINE('',#2317,#1004);
#863=VECTOR('',#1622,1.);
#864=VECTOR('',#1623,1.);
#865=VECTOR('',#1624,1.);
#866=VECTOR('',#1625,1.);
#867=VECTOR('',#1626,1.);
#868=VECTOR('',#1627,1.);
#869=VECTOR('',#1628,1.);
#870=VECTOR('',#1629,1.);
#871=VECTOR('',#1630,1.);
#872=VECTOR('',#1631,1.);
#873=VECTOR('',#1632,1.);
#874=VECTOR('',#1633,1.);
#875=VECTOR('',#1634,1.);
#876=VECTOR('',#1635,1.);
#877=VECTOR('',#1636,1.);
#878=VECTOR('',#1637,1.);
#879=VECTOR('',#1638,1.);
#880=VECTOR('',#1639,1.);
#881=VECTOR('',#1640,1.);
#882=VECTOR('',#1641,1.);
#883=VECTOR('',#1642,1.);
#884=VECTOR('',#1645,1.);
#885=VECTOR('',#1646,1.);
#886=VECTOR('',#1647,1.);
#887=VECTOR('',#1648,1.);
#888=VECTOR('',#1649,1.);
#889=VECTOR('',#1650,1.);
#890=VECTOR('',#1651,1.);
#891=VECTOR('',#1652,1.);
#892=VECTOR('',#1653,1.);
#893=VECTOR('',#1654,1.);
#894=VECTOR('',#1655,1.);
#895=VECTOR('',#1656,1.);
#896=VECTOR('',#1657,1.);
#897=VECTOR('',#1658,1.);
#898=VECTOR('',#1659,1.);
#899=VECTOR('',#1666,1.);
#900=VECTOR('',#1667,1.);
#901=VECTOR('',#1668,1.);
#902=VECTOR('',#1669,1.);
#903=VECTOR('',#1670,1.);
#904=VECTOR('',#1671,1.);
#905=VECTOR('',#1672,1.);
#906=VECTOR('',#1673,1.);
#907=VECTOR('',#1674,1.);
#908=VECTOR('',#1675,1.);
#909=VECTOR('',#1676,1.);
#910=VECTOR('',#1677,1.);
#911=VECTOR('',#1678,1.);
#912=VECTOR('',#1679,1.);
#913=VECTOR('',#1680,1.);
#914=VECTOR('',#1681,1.);
#915=VECTOR('',#1682,1.);
#916=VECTOR('',#1687,1.);
#917=VECTOR('',#1694,1.);
#918=VECTOR('',#1695,1.);
#919=VECTOR('',#1696,1.);
#920=VECTOR('',#1697,1.);
#921=VECTOR('',#1734,1.);
#922=VECTOR('',#1735,1.);
#923=VECTOR('',#1736,1.);
#924=VECTOR('',#1737,1.);
#925=VECTOR('',#1740,1.);
#926=VECTOR('',#1741,1.);
#927=VECTOR('',#1744,1.);
#928=VECTOR('',#1745,1.);
#929=VECTOR('',#1746,1.);
#930=VECTOR('',#1749,1.);
#931=VECTOR('',#1750,1.);
#932=VECTOR('',#1751,1.);
#933=VECTOR('',#1752,1.);
#934=VECTOR('',#1761,1.);
#935=VECTOR('',#1762,1.);
#936=VECTOR('',#1763,1.);
#937=VECTOR('',#1764,1.);
#938=VECTOR('',#1767,1.);
#939=VECTOR('',#1768,1.);
#940=VECTOR('',#1769,1.);
#941=VECTOR('',#1770,1.);
#942=VECTOR('',#1773,1.);
#943=VECTOR('',#1774,1.);
#944=VECTOR('',#1777,1.);
#945=VECTOR('',#1778,1.);
#946=VECTOR('',#1779,1.);
#947=VECTOR('',#1788,1.);
#948=VECTOR('',#1789,1.);
#949=VECTOR('',#1790,1.);
#950=VECTOR('',#1791,1.);
#951=VECTOR('',#1794,1.);
#952=VECTOR('',#1795,1.);
#953=VECTOR('',#1796,1.);
#954=VECTOR('',#1797,1.);
#955=VECTOR('',#1800,1.);
#956=VECTOR('',#1801,1.);
#957=VECTOR('',#1804,1.);
#958=VECTOR('',#1805,1.);
#959=VECTOR('',#1806,1.);
#960=VECTOR('',#1815,1.);
#961=VECTOR('',#1816,1.);
#962=VECTOR('',#1817,1.);
#963=VECTOR('',#1818,1.);
#964=VECTOR('',#1821,1.);
#965=VECTOR('',#1822,1.);
#966=VECTOR('',#1825,1.);
#967=VECTOR('',#1826,1.);
#968=VECTOR('',#1827,1.);
#969=VECTOR('',#1830,1.);
#970=VECTOR('',#1831,1.);
#971=VECTOR('',#1832,1.);
#972=VECTOR('',#1833,1.);
#973=VECTOR('',#1890,1.);
#974=VECTOR('',#1891,1.);
#975=VECTOR('',#1892,1.);
#976=VECTOR('',#1895,1.);
#977=VECTOR('',#1896,1.);
#978=VECTOR('',#1899,1.);
#979=VECTOR('',#1900,1.);
#980=VECTOR('',#1903,1.);
#981=VECTOR('',#1908,1.);
#982=VECTOR('',#1909,1.);
#983=VECTOR('',#1910,1.);
#984=VECTOR('',#1913,1.);
#985=VECTOR('',#1914,1.);
#986=VECTOR('',#1917,1.);
#987=VECTOR('',#1918,1.);
#988=VECTOR('',#1921,1.);
#989=VECTOR('',#1926,1.);
#990=VECTOR('',#1927,1.);
#991=VECTOR('',#1928,1.);
#992=VECTOR('',#1931,1.);
#993=VECTOR('',#1932,1.);
#994=VECTOR('',#1935,1.);
#995=VECTOR('',#1936,1.);
#996=VECTOR('',#1939,1.);
#997=VECTOR('',#1944,1.);
#998=VECTOR('',#1945,1.);
#999=VECTOR('',#1946,1.);
#1000=VECTOR('',#1949,1.);
#1001=VECTOR('',#1950,1.);
#1002=VECTOR('',#1953,1.);
#1003=VECTOR('',#1954,1.);
#1004=VECTOR('',#1957,1.);
#1005=EDGE_LOOP('',(#91,#92,#93,#94));
#1006=EDGE_LOOP('',(#95,#96,#97,#98));
#1007=EDGE_LOOP('',(#99,#100,#101,#102,#103));
#1008=EDGE_LOOP('',(#104,#105,#106,#107));
#1009=EDGE_LOOP('',(#108,#109,#110,#111));
#1010=EDGE_LOOP('',(#112,#113,#114,#115,#116,#117,#118,#119,#120,#121,#122,
#123,#124,#125,#126,#127));
#1011=EDGE_LOOP('',(#128));
#1012=EDGE_LOOP('',(#129));
#1013=EDGE_LOOP('',(#130,#131,#132,#133,#134,#135,#136,#137,#138,#139,#140,
#141,#142,#143,#144,#145,#146,#147,#148,#149,#150));
#1014=EDGE_LOOP('',(#151,#152,#153,#154));
#1015=EDGE_LOOP('',(#155,#156,#157,#158));
#1016=EDGE_LOOP('',(#159,#160,#161,#162,#163,#164,#165,#166));
#1017=EDGE_LOOP('',(#167));
#1018=EDGE_LOOP('',(#168,#169,#170,#171));
#1019=EDGE_LOOP('',(#172));
#1020=EDGE_LOOP('',(#173,#174));
#1021=EDGE_LOOP('',(#175));
#1022=EDGE_LOOP('',(#176));
#1023=EDGE_LOOP('',(#177));
#1024=EDGE_LOOP('',(#178));
#1025=EDGE_LOOP('',(#179));
#1026=EDGE_LOOP('',(#180));
#1027=EDGE_LOOP('',(#181));
#1028=EDGE_LOOP('',(#182));
#1029=EDGE_LOOP('',(#183));
#1030=EDGE_LOOP('',(#184));
#1031=EDGE_LOOP('',(#185,#186,#187,#188,#189,#190));
#1032=EDGE_LOOP('',(#191,#192,#193,#194));
#1033=EDGE_LOOP('',(#195,#196,#197,#198,#199,#200));
#1034=EDGE_LOOP('',(#201,#202,#203,#204));
#1035=EDGE_LOOP('',(#205,#206,#207,#208,#209,#210));
#1036=EDGE_LOOP('',(#211,#212,#213,#214));
#1037=EDGE_LOOP('',(#215,#216,#217,#218,#219,#220));
#1038=EDGE_LOOP('',(#221,#222,#223,#224));
#1039=EDGE_LOOP('',(#225,#226,#227,#228,#229,#230));
#1040=EDGE_LOOP('',(#231,#232,#233,#234,#235,#236));
#1041=EDGE_LOOP('',(#237,#238,#239,#240));
#1042=EDGE_LOOP('',(#241,#242,#243,#244,#245,#246));
#1043=EDGE_LOOP('',(#247,#248,#249,#250));
#1044=EDGE_LOOP('',(#251,#252,#253,#254,#255,#256));
#1045=EDGE_LOOP('',(#257,#258,#259,#260,#261,#262));
#1046=EDGE_LOOP('',(#263,#264,#265,#266,#267,#268));
#1047=EDGE_LOOP('',(#269,#270,#271,#272));
#1048=EDGE_LOOP('',(#273,#274,#275,#276,#277,#278));
#1049=EDGE_LOOP('',(#279,#280,#281,#282));
#1050=EDGE_LOOP('',(#283,#284,#285,#286,#287,#288));
#1051=EDGE_LOOP('',(#289,#290,#291,#292,#293,#294));
#1052=EDGE_LOOP('',(#295,#296,#297,#298,#299,#300));
#1053=EDGE_LOOP('',(#301,#302,#303,#304,#305,#306));
#1054=EDGE_LOOP('',(#307,#308,#309,#310,#311,#312));
#1055=EDGE_LOOP('',(#313,#314,#315,#316));
#1056=EDGE_LOOP('',(#317,#318,#319,#320));
#1057=EDGE_LOOP('',(#321,#322,#323,#324));
#1058=EDGE_LOOP('',(#325,#326,#327,#328));
#1059=EDGE_LOOP('',(#329,#330,#331,#332));
#1060=EDGE_LOOP('',(#333,#334,#335,#336));
#1061=EDGE_LOOP('',(#337,#338,#339,#340));
#1062=EDGE_LOOP('',(#341,#342,#343,#344));
#1063=EDGE_LOOP('',(#345));
#1064=EDGE_LOOP('',(#346));
#1065=EDGE_LOOP('',(#347));
#1066=EDGE_LOOP('',(#348));
#1067=EDGE_LOOP('',(#349));
#1068=EDGE_LOOP('',(#350));
#1069=EDGE_LOOP('',(#351));
#1070=EDGE_LOOP('',(#352));
#1071=EDGE_LOOP('',(#353,#354,#355,#356));
#1072=EDGE_LOOP('',(#357,#358,#359,#360));
#1073=EDGE_LOOP('',(#361,#362,#363,#364));
#1074=EDGE_LOOP('',(#365,#366,#367,#368));
#1075=EDGE_LOOP('',(#369,#370,#371,#372));
#1076=EDGE_LOOP('',(#373,#374,#375,#376));
#1077=EDGE_LOOP('',(#377,#378,#379,#380));
#1078=EDGE_LOOP('',(#381,#382,#383,#384));
#1079=EDGE_LOOP('',(#385,#386,#387,#388));
#1080=EDGE_LOOP('',(#389,#390,#391,#392));
#1081=EDGE_LOOP('',(#393,#394,#395,#396));
#1082=EDGE_LOOP('',(#397,#398,#399,#400));
#1083=EDGE_LOOP('',(#401,#402,#403,#404));
#1084=EDGE_LOOP('',(#405,#406,#407,#408));
#1085=EDGE_LOOP('',(#409,#410,#411,#412));
#1086=EDGE_LOOP('',(#413,#414,#415,#416));
#1087=EDGE_LOOP('',(#417,#418,#419,#420));
#1088=EDGE_LOOP('',(#421,#422,#423,#424));
#1089=EDGE_LOOP('',(#425,#426,#427,#428));
#1090=EDGE_LOOP('',(#429,#430,#431,#432));
#1091=FACE_BOUND('',#1005,.T.);
#1092=FACE_BOUND('',#1006,.T.);
#1093=FACE_BOUND('',#1007,.T.);
#1094=FACE_BOUND('',#1008,.T.);
#1095=FACE_BOUND('',#1009,.T.);
#1096=FACE_BOUND('',#1010,.T.);
#1097=FACE_BOUND('',#1011,.T.);
#1098=FACE_BOUND('',#1012,.T.);
#1099=FACE_BOUND('',#1013,.T.);
#1100=FACE_BOUND('',#1014,.T.);
#1101=FACE_BOUND('',#1015,.T.);
#1102=FACE_BOUND('',#1016,.T.);
#1103=FACE_BOUND('',#1017,.T.);
#1104=FACE_BOUND('',#1018,.T.);
#1105=FACE_BOUND('',#1019,.T.);
#1106=FACE_BOUND('',#1020,.T.);
#1107=FACE_BOUND('',#1021,.T.);
#1108=FACE_BOUND('',#1022,.T.);
#1109=FACE_BOUND('',#1023,.T.);
#1110=FACE_BOUND('',#1024,.T.);
#1111=FACE_BOUND('',#1025,.T.);
#1112=FACE_BOUND('',#1026,.T.);
#1113=FACE_BOUND('',#1027,.T.);
#1114=FACE_BOUND('',#1028,.T.);
#1115=FACE_BOUND('',#1029,.T.);
#1116=FACE_BOUND('',#1030,.T.);
#1117=FACE_BOUND('',#1031,.T.);
#1118=FACE_BOUND('',#1032,.T.);
#1119=FACE_BOUND('',#1033,.T.);
#1120=FACE_BOUND('',#1034,.T.);
#1121=FACE_BOUND('',#1035,.T.);
#1122=FACE_BOUND('',#1036,.T.);
#1123=FACE_BOUND('',#1037,.T.);
#1124=FACE_BOUND('',#1038,.T.);
#1125=FACE_BOUND('',#1039,.T.);
#1126=FACE_BOUND('',#1040,.T.);
#1127=FACE_BOUND('',#1041,.T.);
#1128=FACE_BOUND('',#1042,.T.);
#1129=FACE_BOUND('',#1043,.T.);
#1130=FACE_BOUND('',#1044,.T.);
#1131=FACE_BOUND('',#1045,.T.);
#1132=FACE_BOUND('',#1046,.T.);
#1133=FACE_BOUND('',#1047,.T.);
#1134=FACE_BOUND('',#1048,.T.);
#1135=FACE_BOUND('',#1049,.T.);
#1136=FACE_BOUND('',#1050,.T.);
#1137=FACE_BOUND('',#1051,.T.);
#1138=FACE_BOUND('',#1052,.T.);
#1139=FACE_BOUND('',#1053,.T.);
#1140=FACE_BOUND('',#1054,.T.);
#1141=FACE_BOUND('',#1055,.T.);
#1142=FACE_BOUND('',#1056,.T.);
#1143=FACE_BOUND('',#1057,.T.);
#1144=FACE_BOUND('',#1058,.T.);
#1145=FACE_BOUND('',#1059,.T.);
#1146=FACE_BOUND('',#1060,.T.);
#1147=FACE_BOUND('',#1061,.T.);
#1148=FACE_BOUND('',#1062,.T.);
#1149=FACE_BOUND('',#1063,.T.);
#1150=FACE_BOUND('',#1064,.T.);
#1151=FACE_BOUND('',#1065,.T.);
#1152=FACE_BOUND('',#1066,.T.);
#1153=FACE_BOUND('',#1067,.T.);
#1154=FACE_BOUND('',#1068,.T.);
#1155=FACE_BOUND('',#1069,.T.);
#1156=FACE_BOUND('',#1070,.T.);
#1157=FACE_BOUND('',#1071,.T.);
#1158=FACE_BOUND('',#1072,.T.);
#1159=FACE_BOUND('',#1073,.T.);
#1160=FACE_BOUND('',#1074,.T.);
#1161=FACE_BOUND('',#1075,.T.);
#1162=FACE_BOUND('',#1076,.T.);
#1163=FACE_BOUND('',#1077,.T.);
#1164=FACE_BOUND('',#1078,.T.);
#1165=FACE_BOUND('',#1079,.T.);
#1166=FACE_BOUND('',#1080,.T.);
#1167=FACE_BOUND('',#1081,.T.);
#1168=FACE_BOUND('',#1082,.T.);
#1169=FACE_BOUND('',#1083,.T.);
#1170=FACE_BOUND('',#1084,.T.);
#1171=FACE_BOUND('',#1085,.T.);
#1172=FACE_BOUND('',#1086,.T.);
#1173=FACE_BOUND('',#1087,.T.);
#1174=FACE_BOUND('',#1088,.T.);
#1175=FACE_BOUND('',#1089,.T.);
#1176=FACE_BOUND('',#1090,.T.);
#1177=PLANE('',#1519);
#1178=PLANE('',#1520);
#1179=PLANE('',#1521);
#1180=PLANE('',#1524);
#1181=PLANE('',#1526);
#1182=PLANE('',#1528);
#1183=PLANE('',#1529);
#1184=PLANE('',#1535);
#1185=PLANE('',#1540);
#1186=PLANE('',#1544);
#1187=PLANE('',#1546);
#1188=PLANE('',#1547);
#1189=PLANE('',#1548);
#1190=PLANE('',#1549);
#1191=PLANE('',#1550);
#1192=PLANE('',#1553);
#1193=PLANE('',#1554);
#1194=PLANE('',#1555);
#1195=PLANE('',#1556);
#1196=PLANE('',#1557);
#1197=PLANE('',#1560);
#1198=PLANE('',#1561);
#1199=PLANE('',#1562);
#1200=PLANE('',#1563);
#1201=PLANE('',#1564);
#1202=PLANE('',#1567);
#1203=PLANE('',#1568);
#1204=PLANE('',#1569);
#1205=PLANE('',#1570);
#1206=PLANE('',#1571);
#1207=PLANE('',#1574);
#1208=PLANE('',#1577);
#1209=PLANE('',#1580);
#1210=PLANE('',#1583);
#1211=PLANE('',#1598);
#1212=PLANE('',#1599);
#1213=PLANE('',#1600);
#1214=PLANE('',#1601);
#1215=PLANE('',#1602);
#1216=PLANE('',#1603);
#1217=PLANE('',#1604);
#1218=PLANE('',#1605);
#1219=PLANE('',#1606);
#1220=PLANE('',#1607);
#1221=PLANE('',#1608);
#1222=PLANE('',#1609);
#1223=PLANE('',#1610);
#1224=PLANE('',#1611);
#1225=PLANE('',#1612);
#1226=PLANE('',#1613);
#1227=PLANE('',#1614);
#1228=PLANE('',#1615);
#1229=PLANE('',#1616);
#1230=PLANE('',#1617);
#1231=ADVANCED_FACE('',(#1091,#1092,#1093,#1094,#1095),#1177,.T.);
#1232=ADVANCED_FACE('',(#1096),#1178,.F.);
#1233=ADVANCED_FACE('',(#1097,#1098,#1099),#1179,.F.);
#1234=ADVANCED_FACE('',(#1100),#1180,.F.);
#1235=ADVANCED_FACE('',(#1101),#1181,.F.);
#1236=ADVANCED_FACE('',(#1102),#1182,.T.);
#1237=ADVANCED_FACE('',(#1103,#1104),#1183,.T.);
#1238=ADVANCED_FACE('',(#1105,#1106),#50,.T.);
#1239=ADVANCED_FACE('',(#1107,#1108),#51,.F.);
#1240=ADVANCED_FACE('',(#1109,#1110),#1184,.T.);
#1241=ADVANCED_FACE('',(#1111,#1112),#52,.T.);
#1242=ADVANCED_FACE('',(#1113),#1185,.F.);
#1243=ADVANCED_FACE('',(#1114,#1115),#53,.T.);
#1244=ADVANCED_FACE('',(#1116),#1186,.F.);
#1245=ADVANCED_FACE('Face appearance 4',(#1117),#1187,.F.);
#1246=ADVANCED_FACE('Face appearance 4',(#1118),#1188,.T.);
#1247=ADVANCED_FACE('Face appearance 4',(#1119),#1189,.T.);
#1248=ADVANCED_FACE('Face appearance 4',(#1120),#1190,.F.);
#1249=ADVANCED_FACE('Face appearance 4',(#1121),#1191,.F.);
#1250=ADVANCED_FACE('Face appearance 4',(#1122),#1192,.F.);
#1251=ADVANCED_FACE('Face appearance 4',(#1123),#1193,.F.);
#1252=ADVANCED_FACE('Face appearance 4',(#1124),#1194,.T.);
#1253=ADVANCED_FACE('Face appearance 4',(#1125),#1195,.T.);
#1254=ADVANCED_FACE('Face appearance 4',(#1126),#1196,.F.);
#1255=ADVANCED_FACE('Face appearance 4',(#1127),#1197,.F.);
#1256=ADVANCED_FACE('Face appearance 4',(#1128),#1198,.F.);
#1257=ADVANCED_FACE('Face appearance 4',(#1129),#1199,.T.);
#1258=ADVANCED_FACE('Face appearance 4',(#1130),#1200,.T.);
#1259=ADVANCED_FACE('Face appearance 4',(#1131),#1201,.F.);
#1260=ADVANCED_FACE('Face appearance 4',(#1132),#1202,.T.);
#1261=ADVANCED_FACE('',(#1133),#1203,.F.);
#1262=ADVANCED_FACE('Face appearance 4',(#1134),#1204,.F.);
#1263=ADVANCED_FACE('Face appearance 4',(#1135),#1205,.T.);
#1264=ADVANCED_FACE('Face appearance 4',(#1136),#1206,.F.);
#1265=ADVANCED_FACE('Face appearance 4',(#1137),#1207,.T.);
#1266=ADVANCED_FACE('Face appearance 4',(#1138),#1208,.T.);
#1267=ADVANCED_FACE('Face appearance 4',(#1139),#1209,.T.);
#1268=ADVANCED_FACE('',(#1140),#1210,.T.);
#1269=ADVANCED_FACE('Face appearance 4',(#1141),#54,.T.);
#1270=ADVANCED_FACE('Face appearance 4',(#1142),#55,.T.);
#1271=ADVANCED_FACE('Face appearance 4',(#1143),#56,.T.);
#1272=ADVANCED_FACE('Face appearance 4',(#1144),#57,.T.);
#1273=ADVANCED_FACE('Face appearance 4',(#1145),#58,.T.);
#1274=ADVANCED_FACE('Face appearance 4',(#1146),#59,.T.);
#1275=ADVANCED_FACE('Face appearance 4',(#1147),#60,.T.);
#1276=ADVANCED_FACE('Face appearance 4',(#1148),#61,.T.);
#1277=ADVANCED_FACE('',(#1149,#1150),#14,.T.);
#1278=ADVANCED_FACE('',(#1151,#1152),#15,.T.);
#1279=ADVANCED_FACE('',(#1153,#1154),#12,.T.);
#1280=ADVANCED_FACE('',(#1155,#1156),#13,.T.);
#1281=ADVANCED_FACE('',(#1157),#1211,.T.);
#1282=ADVANCED_FACE('',(#1158),#1212,.T.);
#1283=ADVANCED_FACE('',(#1159),#1213,.F.);
#1284=ADVANCED_FACE('',(#1160),#1214,.F.);
#1285=ADVANCED_FACE('Face appearance 4',(#1161),#1215,.T.);
#1286=ADVANCED_FACE('',(#1162),#1216,.F.);
#1287=ADVANCED_FACE('',(#1163),#1217,.F.);
#1288=ADVANCED_FACE('',(#1164),#1218,.T.);
#1289=ADVANCED_FACE('',(#1165),#1219,.T.);
#1290=ADVANCED_FACE('Face appearance 4',(#1166),#1220,.T.);
#1291=ADVANCED_FACE('',(#1167),#1221,.F.);
#1292=ADVANCED_FACE('',(#1168),#1222,.F.);
#1293=ADVANCED_FACE('',(#1169),#1223,.T.);
#1294=ADVANCED_FACE('',(#1170),#1224,.T.);
#1295=ADVANCED_FACE('Face appearance 4',(#1171),#1225,.T.);
#1296=ADVANCED_FACE('',(#1172),#1226,.T.);
#1297=ADVANCED_FACE('',(#1173),#1227,.T.);
#1298=ADVANCED_FACE('',(#1174),#1228,.F.);
#1299=ADVANCED_FACE('',(#1175),#1229,.F.);
#1300=ADVANCED_FACE('Face appearance 4',(#1176),#1230,.T.);
#1301=CLOSED_SHELL('',(#1231,#1232,#1233,#1234,#1235,#1236,#1237,#1238,
#1239,#1240,#1241,#1242,#1243,#1244,#1245,#1246,#1247,#1248,#1249,#1250,
#1251,#1252,#1253,#1254,#1255,#1256,#1257,#1258,#1259,#1260,#1261,#1262,
#1263,#1264,#1265,#1266,#1267,#1268,#1269,#1270,#1271,#1272,#1273,#1274,
#1275,#1276,#1277,#1278,#1279,#1280,#1281,#1282,#1283,#1284,#1285,#1286,
#1287,#1288,#1289,#1290,#1291,#1292,#1293,#1294,#1295,#1296,#1297,#1298,
#1299,#1300));
#1302=STYLED_ITEM('',(#1303),#1515);
#1303=PRESENTATION_STYLE_ASSIGNMENT((#1338));
#1304=PRESENTATION_STYLE_ASSIGNMENT((#1339));
#1305=PRESENTATION_STYLE_ASSIGNMENT((#1340));
#1306=PRESENTATION_STYLE_ASSIGNMENT((#1341));
#1307=PRESENTATION_STYLE_ASSIGNMENT((#1342));
#1308=PRESENTATION_STYLE_ASSIGNMENT((#1343));
#1309=PRESENTATION_STYLE_ASSIGNMENT((#1344));
#1310=PRESENTATION_STYLE_ASSIGNMENT((#1345));
#1311=PRESENTATION_STYLE_ASSIGNMENT((#1346));
#1312=PRESENTATION_STYLE_ASSIGNMENT((#1347));
#1313=PRESENTATION_STYLE_ASSIGNMENT((#1348));
#1314=PRESENTATION_STYLE_ASSIGNMENT((#1349));
#1315=PRESENTATION_STYLE_ASSIGNMENT((#1350));
#1316=PRESENTATION_STYLE_ASSIGNMENT((#1351));
#1317=PRESENTATION_STYLE_ASSIGNMENT((#1352));
#1318=PRESENTATION_STYLE_ASSIGNMENT((#1353));
#1319=PRESENTATION_STYLE_ASSIGNMENT((#1354));
#1320=PRESENTATION_STYLE_ASSIGNMENT((#1355));
#1321=PRESENTATION_STYLE_ASSIGNMENT((#1356));
#1322=PRESENTATION_STYLE_ASSIGNMENT((#1357));
#1323=PRESENTATION_STYLE_ASSIGNMENT((#1358));
#1324=PRESENTATION_STYLE_ASSIGNMENT((#1359));
#1325=PRESENTATION_STYLE_ASSIGNMENT((#1360));
#1326=PRESENTATION_STYLE_ASSIGNMENT((#1361));
#1327=PRESENTATION_STYLE_ASSIGNMENT((#1362));
#1328=PRESENTATION_STYLE_ASSIGNMENT((#1363));
#1329=PRESENTATION_STYLE_ASSIGNMENT((#1364));
#1330=PRESENTATION_STYLE_ASSIGNMENT((#1365));
#1331=PRESENTATION_STYLE_ASSIGNMENT((#1366));
#1332=PRESENTATION_STYLE_ASSIGNMENT((#1367));
#1333=PRESENTATION_STYLE_ASSIGNMENT((#1368));
#1334=PRESENTATION_STYLE_ASSIGNMENT((#1369));
#1335=PRESENTATION_STYLE_ASSIGNMENT((#1370));
#1336=PRESENTATION_STYLE_ASSIGNMENT((#1371));
#1337=PRESENTATION_STYLE_ASSIGNMENT((#1372));
#1338=SURFACE_STYLE_USAGE(.BOTH.,#1373);
#1339=SURFACE_STYLE_USAGE(.BOTH.,#1374);
#1340=SURFACE_STYLE_USAGE(.BOTH.,#1375);
#1341=SURFACE_STYLE_USAGE(.BOTH.,#1376);
#1342=SURFACE_STYLE_USAGE(.BOTH.,#1377);
#1343=SURFACE_STYLE_USAGE(.BOTH.,#1378);
#1344=SURFACE_STYLE_USAGE(.BOTH.,#1379);
#1345=SURFACE_STYLE_USAGE(.BOTH.,#1380);
#1346=SURFACE_STYLE_USAGE(.BOTH.,#1381);
#1347=SURFACE_STYLE_USAGE(.BOTH.,#1382);
#1348=SURFACE_STYLE_USAGE(.BOTH.,#1383);
#1349=SURFACE_STYLE_USAGE(.BOTH.,#1384);
#1350=SURFACE_STYLE_USAGE(.BOTH.,#1385);
#1351=SURFACE_STYLE_USAGE(.BOTH.,#1386);
#1352=SURFACE_STYLE_USAGE(.BOTH.,#1387);
#1353=SURFACE_STYLE_USAGE(.BOTH.,#1388);
#1354=SURFACE_STYLE_USAGE(.BOTH.,#1389);
#1355=SURFACE_STYLE_USAGE(.BOTH.,#1390);
#1356=SURFACE_STYLE_USAGE(.BOTH.,#1391);
#1357=SURFACE_STYLE_USAGE(.BOTH.,#1392);
#1358=SURFACE_STYLE_USAGE(.BOTH.,#1393);
#1359=SURFACE_STYLE_USAGE(.BOTH.,#1394);
#1360=SURFACE_STYLE_USAGE(.BOTH.,#1395);
#1361=SURFACE_STYLE_USAGE(.BOTH.,#1396);
#1362=SURFACE_STYLE_USAGE(.BOTH.,#1397);
#1363=SURFACE_STYLE_USAGE(.BOTH.,#1398);
#1364=SURFACE_STYLE_USAGE(.BOTH.,#1399);
#1365=SURFACE_STYLE_USAGE(.BOTH.,#1400);
#1366=SURFACE_STYLE_USAGE(.BOTH.,#1401);
#1367=SURFACE_STYLE_USAGE(.BOTH.,#1402);
#1368=SURFACE_STYLE_USAGE(.BOTH.,#1403);
#1369=SURFACE_STYLE_USAGE(.BOTH.,#1404);
#1370=SURFACE_STYLE_USAGE(.BOTH.,#1405);
#1371=SURFACE_STYLE_USAGE(.BOTH.,#1406);
#1372=SURFACE_STYLE_USAGE(.BOTH.,#1407);
#1373=SURFACE_SIDE_STYLE('',(#1408));
#1374=SURFACE_SIDE_STYLE('',(#1409));
#1375=SURFACE_SIDE_STYLE('',(#1410));
#1376=SURFACE_SIDE_STYLE('',(#1411));
#1377=SURFACE_SIDE_STYLE('',(#1412));
#1378=SURFACE_SIDE_STYLE('',(#1413));
#1379=SURFACE_SIDE_STYLE('',(#1414));
#1380=SURFACE_SIDE_STYLE('',(#1415));
#1381=SURFACE_SIDE_STYLE('',(#1416));
#1382=SURFACE_SIDE_STYLE('',(#1417));
#1383=SURFACE_SIDE_STYLE('',(#1418));
#1384=SURFACE_SIDE_STYLE('',(#1419));
#1385=SURFACE_SIDE_STYLE('',(#1420));
#1386=SURFACE_SIDE_STYLE('',(#1421));
#1387=SURFACE_SIDE_STYLE('',(#1422));
#1388=SURFACE_SIDE_STYLE('',(#1423));
#1389=SURFACE_SIDE_STYLE('',(#1424));
#1390=SURFACE_SIDE_STYLE('',(#1425));
#1391=SURFACE_SIDE_STYLE('',(#1426));
#1392=SURFACE_SIDE_STYLE('',(#1427));
#1393=SURFACE_SIDE_STYLE('',(#1428));
#1394=SURFACE_SIDE_STYLE('',(#1429));
#1395=SURFACE_SIDE_STYLE('',(#1430));
#1396=SURFACE_SIDE_STYLE('',(#1431));
#1397=SURFACE_SIDE_STYLE('',(#1432));
#1398=SURFACE_SIDE_STYLE('',(#1433));
#1399=SURFACE_SIDE_STYLE('',(#1434));
#1400=SURFACE_SIDE_STYLE('',(#1435));
#1401=SURFACE_SIDE_STYLE('',(#1436));
#1402=SURFACE_SIDE_STYLE('',(#1437));
#1403=SURFACE_SIDE_STYLE('',(#1438));
#1404=SURFACE_SIDE_STYLE('',(#1439));
#1405=SURFACE_SIDE_STYLE('',(#1440));
#1406=SURFACE_SIDE_STYLE('',(#1441));
#1407=SURFACE_SIDE_STYLE('',(#1442));
#1408=SURFACE_STYLE_FILL_AREA(#1443);
#1409=SURFACE_STYLE_FILL_AREA(#1444);
#1410=SURFACE_STYLE_FILL_AREA(#1445);
#1411=SURFACE_STYLE_FILL_AREA(#1446);
#1412=SURFACE_STYLE_FILL_AREA(#1447);
#1413=SURFACE_STYLE_FILL_AREA(#1448);
#1414=SURFACE_STYLE_FILL_AREA(#1449);
#1415=SURFACE_STYLE_FILL_AREA(#1450);
#1416=SURFACE_STYLE_FILL_AREA(#1451);
#1417=SURFACE_STYLE_FILL_AREA(#1452);
#1418=SURFACE_STYLE_FILL_AREA(#1453);
#1419=SURFACE_STYLE_FILL_AREA(#1454);
#1420=SURFACE_STYLE_FILL_AREA(#1455);
#1421=SURFACE_STYLE_FILL_AREA(#1456);
#1422=SURFACE_STYLE_FILL_AREA(#1457);
#1423=SURFACE_STYLE_FILL_AREA(#1458);
#1424=SURFACE_STYLE_FILL_AREA(#1459);
#1425=SURFACE_STYLE_FILL_AREA(#1460);
#1426=SURFACE_STYLE_FILL_AREA(#1461);
#1427=SURFACE_STYLE_FILL_AREA(#1462);
#1428=SURFACE_STYLE_FILL_AREA(#1463);
#1429=SURFACE_STYLE_FILL_AREA(#1464);
#1430=SURFACE_STYLE_FILL_AREA(#1465);
#1431=SURFACE_STYLE_FILL_AREA(#1466);
#1432=SURFACE_STYLE_FILL_AREA(#1467);
#1433=SURFACE_STYLE_FILL_AREA(#1468);
#1434=SURFACE_STYLE_FILL_AREA(#1469);
#1435=SURFACE_STYLE_FILL_AREA(#1470);
#1436=SURFACE_STYLE_FILL_AREA(#1471);
#1437=SURFACE_STYLE_FILL_AREA(#1472);
#1438=SURFACE_STYLE_FILL_AREA(#1473);
#1439=SURFACE_STYLE_FILL_AREA(#1474);
#1440=SURFACE_STYLE_FILL_AREA(#1475);
#1441=SURFACE_STYLE_FILL_AREA(#1476);
#1442=SURFACE_STYLE_FILL_AREA(#1477);
#1443=FILL_AREA_STYLE('',(#1478));
#1444=FILL_AREA_STYLE('',(#1479));
#1445=FILL_AREA_STYLE('',(#1480));
#1446=FILL_AREA_STYLE('',(#1481));
#1447=FILL_AREA_STYLE('',(#1482));
#1448=FILL_AREA_STYLE('',(#1483));
#1449=FILL_AREA_STYLE('',(#1484));
#1450=FILL_AREA_STYLE('',(#1485));
#1451=FILL_AREA_STYLE('',(#1486));
#1452=FILL_AREA_STYLE('',(#1487));
#1453=FILL_AREA_STYLE('',(#1488));
#1454=FILL_AREA_STYLE('',(#1489));
#1455=FILL_AREA_STYLE('',(#1490));
#1456=FILL_AREA_STYLE('',(#1491));
#1457=FILL_AREA_STYLE('',(#1492));
#1458=FILL_AREA_STYLE('',(#1493));
#1459=FILL_AREA_STYLE('',(#1494));
#1460=FILL_AREA_STYLE('',(#1495));
#1461=FILL_AREA_STYLE('',(#1496));
#1462=FILL_AREA_STYLE('',(#1497));
#1463=FILL_AREA_STYLE('',(#1498));
#1464=FILL_AREA_STYLE('',(#1499));
#1465=FILL_AREA_STYLE('',(#1500));
#1466=FILL_AREA_STYLE('',(#1501));
#1467=FILL_AREA_STYLE('',(#1502));
#1468=FILL_AREA_STYLE('',(#1503));
#1469=FILL_AREA_STYLE('',(#1504));
#1470=FILL_AREA_STYLE('',(#1505));
#1471=FILL_AREA_STYLE('',(#1506));
#1472=FILL_AREA_STYLE('',(#1507));
#1473=FILL_AREA_STYLE('',(#1508));
#1474=FILL_AREA_STYLE('',(#1509));
#1475=FILL_AREA_STYLE('',(#1510));
#1476=FILL_AREA_STYLE('',(#1511));
#1477=FILL_AREA_STYLE('',(#1512));
#1478=FILL_AREA_STYLE_COLOUR('',#1513);
#1479=FILL_AREA_STYLE_COLOUR('',#1514);
#1480=FILL_AREA_STYLE_COLOUR('',#1514);
#1481=FILL_AREA_STYLE_COLOUR('',#1514);
#1482=FILL_AREA_STYLE_COLOUR('',#1514);
#1483=FILL_AREA_STYLE_COLOUR('',#1514);
#1484=FILL_AREA_STYLE_COLOUR('',#1514);
#1485=FILL_AREA_STYLE_COLOUR('',#1514);
#1486=FILL_AREA_STYLE_COLOUR('',#1514);
#1487=FILL_AREA_STYLE_COLOUR('',#1514);
#1488=FILL_AREA_STYLE_COLOUR('',#1514);
#1489=FILL_AREA_STYLE_COLOUR('',#1514);
#1490=FILL_AREA_STYLE_COLOUR('',#1514);
#1491=FILL_AREA_STYLE_COLOUR('',#1514);
#1492=FILL_AREA_STYLE_COLOUR('',#1514);
#1493=FILL_AREA_STYLE_COLOUR('',#1514);
#1494=FILL_AREA_STYLE_COLOUR('',#1514);
#1495=FILL_AREA_STYLE_COLOUR('',#1514);
#1496=FILL_AREA_STYLE_COLOUR('',#1514);
#1497=FILL_AREA_STYLE_COLOUR('',#1514);
#1498=FILL_AREA_STYLE_COLOUR('',#1514);
#1499=FILL_AREA_STYLE_COLOUR('',#1514);
#1500=FILL_AREA_STYLE_COLOUR('',#1514);
#1501=FILL_AREA_STYLE_COLOUR('',#1514);
#1502=FILL_AREA_STYLE_COLOUR('',#1514);
#1503=FILL_AREA_STYLE_COLOUR('',#1514);
#1504=FILL_AREA_STYLE_COLOUR('',#1514);
#1505=FILL_AREA_STYLE_COLOUR('',#1514);
#1506=FILL_AREA_STYLE_COLOUR('',#1514);
#1507=FILL_AREA_STYLE_COLOUR('',#1514);
#1508=FILL_AREA_STYLE_COLOUR('',#1514);
#1509=FILL_AREA_STYLE_COLOUR('',#1514);
#1510=FILL_AREA_STYLE_COLOUR('',#1514);
#1511=FILL_AREA_STYLE_COLOUR('',#1514);
#1512=FILL_AREA_STYLE_COLOUR('',#1514);
#1513=COLOUR_RGB('',0.43921568627451,0.474509803921569,0.501960784313726);
#1514=COLOUR_RGB('',0.8,0.8,0.8);
#1515=MANIFOLD_SOLID_BREP('PJ-35-320D',#1301);
#1516=SHAPE_DEFINITION_REPRESENTATION(#2325,#1517);
#1517=SHAPE_REPRESENTATION('PJ-35-320D',(#1518),#2320);
#1518=AXIS2_PLACEMENT_3D('',#1960,#1618,#1619);
#1519=AXIS2_PLACEMENT_3D('',#1961,#1620,#1621);
#1520=AXIS2_PLACEMENT_3D('',#2004,#1643,#1644);
#1521=AXIS2_PLACEMENT_3D('',#2034,#1660,#1661);
#1522=AXIS2_PLACEMENT_3D('',#2035,#1662,#1663);
#1523=AXIS2_PLACEMENT_3D('',#2037,#1664,#1665);
#1524=AXIS2_PLACEMENT_3D('',#2069,#1683,#1684);
#1525=AXIS2_PLACEMENT_3D('',#2070,#1685,#1686);
#1526=AXIS2_PLACEMENT_3D('',#2072,#1688,#1689);
#1527=AXIS2_PLACEMENT_3D('',#2073,#1690,#1691);
#1528=AXIS2_PLACEMENT_3D('',#2074,#1692,#1693);
#1529=AXIS2_PLACEMENT_3D('',#2081,#1698,#1699);
#1530=AXIS2_PLACEMENT_3D('',#2082,#1700,#1701);
#1531=AXIS2_PLACEMENT_3D('',#2084,#1702,#1703);
#1532=AXIS2_PLACEMENT_3D('',#2085,#1704,#1705);
#1533=AXIS2_PLACEMENT_3D('',#2087,#1706,#1707);
#1534=AXIS2_PLACEMENT_3D('',#2088,#1708,#1709);
#1535=AXIS2_PLACEMENT_3D('',#2090,#1710,#1711);
#1536=AXIS2_PLACEMENT_3D('',#2091,#1712,#1713);
#1537=AXIS2_PLACEMENT_3D('',#2093,#1714,#1715);
#1538=AXIS2_PLACEMENT_3D('',#2095,#1716,#1717);
#1539=AXIS2_PLACEMENT_3D('',#2096,#1718,#1719);
#1540=AXIS2_PLACEMENT_3D('',#2098,#1720,#1721);
#1541=AXIS2_PLACEMENT_3D('',#2099,#1722,#1723);
#1542=AXIS2_PLACEMENT_3D('',#2101,#1724,#1725);
#1543=AXIS2_PLACEMENT_3D('',#2102,#1726,#1727);
#1544=AXIS2_PLACEMENT_3D('',#2104,#1728,#1729);
#1545=AXIS2_PLACEMENT_3D('',#2105,#1730,#1731);
#1546=AXIS2_PLACEMENT_3D('',#2107,#1732,#1733);
#1547=AXIS2_PLACEMENT_3D('',#2115,#1738,#1739);
#1548=AXIS2_PLACEMENT_3D('',#2119,#1742,#1743);
#1549=AXIS2_PLACEMENT_3D('',#2125,#1747,#1748);
#1550=AXIS2_PLACEMENT_3D('',#2134,#1753,#1754);
#1551=AXIS2_PLACEMENT_3D('',#2135,#1755,#1756);
#1552=AXIS2_PLACEMENT_3D('',#2136,#1757,#1758);
#1553=AXIS2_PLACEMENT_3D('',#2137,#1759,#1760);
#1554=AXIS2_PLACEMENT_3D('',#2146,#1765,#1766);
#1555=AXIS2_PLACEMENT_3D('',#2154,#1771,#1772);
#1556=AXIS2_PLACEMENT_3D('',#2158,#1775,#1776);
#1557=AXIS2_PLACEMENT_3D('',#2164,#1780,#1781);
#1558=AXIS2_PLACEMENT_3D('',#2165,#1782,#1783);
#1559=AXIS2_PLACEMENT_3D('',#2166,#1784,#1785);
#1560=AXIS2_PLACEMENT_3D('',#2167,#1786,#1787);
#1561=AXIS2_PLACEMENT_3D('',#2176,#1792,#1793);
#1562=AXIS2_PLACEMENT_3D('',#2184,#1798,#1799);
#1563=AXIS2_PLACEMENT_3D('',#2188,#1802,#1803);
#1564=AXIS2_PLACEMENT_3D('',#2194,#1807,#1808);
#1565=AXIS2_PLACEMENT_3D('',#2195,#1809,#1810);
#1566=AXIS2_PLACEMENT_3D('',#2196,#1811,#1812);
#1567=AXIS2_PLACEMENT_3D('',#2197,#1813,#1814);
#1568=AXIS2_PLACEMENT_3D('',#2205,#1819,#1820);
#1569=AXIS2_PLACEMENT_3D('',#2209,#1823,#1824);
#1570=AXIS2_PLACEMENT_3D('',#2215,#1828,#1829);
#1571=AXIS2_PLACEMENT_3D('',#2224,#1834,#1835);
#1572=AXIS2_PLACEMENT_3D('',#2225,#1836,#1837);
#1573=AXIS2_PLACEMENT_3D('',#2226,#1838,#1839);
#1574=AXIS2_PLACEMENT_3D('',#2227,#1840,#1841);
#1575=AXIS2_PLACEMENT_3D('',#2228,#1842,#1843);
#1576=AXIS2_PLACEMENT_3D('',#2229,#1844,#1845);
#1577=AXIS2_PLACEMENT_3D('',#2230,#1846,#1847);
#1578=AXIS2_PLACEMENT_3D('',#2231,#1848,#1849);
#1579=AXIS2_PLACEMENT_3D('',#2232,#1850,#1851);
#1580=AXIS2_PLACEMENT_3D('',#2233,#1852,#1853);
#1581=AXIS2_PLACEMENT_3D('',#2234,#1854,#1855);
#1582=AXIS2_PLACEMENT_3D('',#2235,#1856,#1857);
#1583=AXIS2_PLACEMENT_3D('',#2236,#1858,#1859);
#1584=AXIS2_PLACEMENT_3D('',#2237,#1860,#1861);
#1585=AXIS2_PLACEMENT_3D('',#2238,#1862,#1863);
#1586=AXIS2_PLACEMENT_3D('',#2239,#1864,#1865);
#1587=AXIS2_PLACEMENT_3D('',#2240,#1866,#1867);
#1588=AXIS2_PLACEMENT_3D('',#2241,#1868,#1869);
#1589=AXIS2_PLACEMENT_3D('',#2242,#1870,#1871);
#1590=AXIS2_PLACEMENT_3D('',#2243,#1872,#1873);
#1591=AXIS2_PLACEMENT_3D('',#2244,#1874,#1875);
#1592=AXIS2_PLACEMENT_3D('',#2245,#1876,#1877);
#1593=AXIS2_PLACEMENT_3D('',#2246,#1878,#1879);
#1594=AXIS2_PLACEMENT_3D('',#2247,#1880,#1881);
#1595=AXIS2_PLACEMENT_3D('',#2248,#1882,#1883);
#1596=AXIS2_PLACEMENT_3D('',#2249,#1884,#1885);
#1597=AXIS2_PLACEMENT_3D('',#2250,#1886,#1887);
#1598=AXIS2_PLACEMENT_3D('',#2251,#1888,#1889);
#1599=AXIS2_PLACEMENT_3D('',#2257,#1893,#1894);
#1600=AXIS2_PLACEMENT_3D('',#2261,#1897,#1898);
#1601=AXIS2_PLACEMENT_3D('',#2265,#1901,#1902);
#1602=AXIS2_PLACEMENT_3D('',#2267,#1904,#1905);
#1603=AXIS2_PLACEMENT_3D('',#2268,#1906,#1907);
#1604=AXIS2_PLACEMENT_3D('',#2274,#1911,#1912);
#1605=AXIS2_PLACEMENT_3D('',#2278,#1915,#1916);
#1606=AXIS2_PLACEMENT_3D('',#2282,#1919,#1920);
#1607=AXIS2_PLACEMENT_3D('',#2284,#1922,#1923);
#1608=AXIS2_PLACEMENT_3D('',#2285,#1924,#1925);
#1609=AXIS2_PLACEMENT_3D('',#2291,#1929,#1930);
#1610=AXIS2_PLACEMENT_3D('',#2295,#1933,#1934);
#1611=AXIS2_PLACEMENT_3D('',#2299,#1937,#1938);
#1612=AXIS2_PLACEMENT_3D('',#2301,#1940,#1941);
#1613=AXIS2_PLACEMENT_3D('',#2302,#1942,#1943);
#1614=AXIS2_PLACEMENT_3D('',#2308,#1947,#1948);
#1615=AXIS2_PLACEMENT_3D('',#2312,#1951,#1952);
#1616=AXIS2_PLACEMENT_3D('',#2316,#1955,#1956);
#1617=AXIS2_PLACEMENT_3D('',#2318,#1958,#1959);
#1618=DIRECTION('',(0.,0.,1.));
#1619=DIRECTION('',(1.,0.,0.));
#1620=DIRECTION('',(0.,0.,1.));
#1621=DIRECTION('',(1.,0.,0.));
#1622=DIRECTION('',(-1.,0.,0.));
#1623=DIRECTION('',(0.,-1.,0.));
#1624=DIRECTION('',(-1.,0.,0.));
#1625=DIRECTION('',(7.2280144832367E-16,-1.,0.));
#1626=DIRECTION('',(-1.,0.,0.));
#1627=DIRECTION('',(-1.80700362080917E-16,-1.,0.));
#1628=DIRECTION('',(-1.,0.,0.));
#1629=DIRECTION('',(-1.80700362080917E-16,-1.,0.));
#1630=DIRECTION('',(-1.,1.73472347597681E-15,0.));
#1631=DIRECTION('',(1.39897054514259E-16,-1.,0.));
#1632=DIRECTION('',(1.39897054514259E-16,-1.,0.));
#1633=DIRECTION('',(-1.,0.,0.));
#1634=DIRECTION('',(1.39897054514259E-16,-1.,0.));
#1635=DIRECTION('',(0.,-1.,0.));
#1636=DIRECTION('',(-1.,0.,0.));
#1637=DIRECTION('',(0.,-1.,0.));
#1638=DIRECTION('',(-1.,0.,0.));
#1639=DIRECTION('',(0.,-1.,0.));
#1640=DIRECTION('',(-1.,0.,0.));
#1641=DIRECTION('',(0.,-1.,0.));
#1642=DIRECTION('',(-1.,0.,0.));
#1643=DIRECTION('',(-1.73472347597681E-15,-1.,0.));
#1644=DIRECTION('',(1.,-1.73472347597681E-15,0.));
#1645=DIRECTION('',(0.,0.,-1.));
#1646=DIRECTION('',(-1.,0.,0.));
#1647=DIRECTION('',(0.,0.,-1.));
#1648=DIRECTION('',(-1.,1.73472347597681E-15,0.));
#1649=DIRECTION('',(0.,0.,-1.));
#1650=DIRECTION('',(0.,0.,-1.));
#1651=DIRECTION('',(-1.,1.73472347597681E-15,0.));
#1652=DIRECTION('',(0.,0.,-1.));
#1653=DIRECTION('',(-1.,0.,0.));
#1654=DIRECTION('',(0.,0.,-1.));
#1655=DIRECTION('',(-1.,1.73472347597681E-15,0.));
#1656=DIRECTION('',(0.,0.,-1.));
#1657=DIRECTION('',(-1.,0.,0.));
#1658=DIRECTION('',(0.,0.,-1.));
#1659=DIRECTION('',(-1.,1.73472347597681E-15,0.));
#1660=DIRECTION('',(0.,0.,1.));
#1661=DIRECTION('',(1.,0.,0.));
#1662=DIRECTION('',(0.,0.,1.));
#1663=DIRECTION('',(1.,0.,0.));
#1664=DIRECTION('',(0.,0.,1.));
#1665=DIRECTION('',(1.,0.,0.));
#1666=DIRECTION('',(-1.,0.,0.));
#1667=DIRECTION('',(0.,1.,0.));
#1668=DIRECTION('',(1.,0.,0.));
#1669=DIRECTION('',(0.,1.,0.));
#1670=DIRECTION('',(-1.,0.,0.));
#1671=DIRECTION('',(1.39897054514259E-16,-1.,0.));
#1672=DIRECTION('',(1.39897054514259E-16,-1.,0.));
#1673=DIRECTION('',(0.,1.,0.));
#1674=DIRECTION('',(1.,0.,0.));
#1675=DIRECTION('',(3.94255335449274E-16,1.,0.));
#1676=DIRECTION('',(4.92819169311593E-17,1.,0.));
#1677=DIRECTION('',(1.,0.,0.));
#1678=DIRECTION('',(1.97127667724637E-16,1.,0.));
#1679=DIRECTION('',(0.,1.,0.));
#1680=DIRECTION('',(1.,0.,0.));
#1681=DIRECTION('',(0.,1.,0.));
#1682=DIRECTION('',(1.39897054514259E-16,-1.,0.));
#1683=DIRECTION('',(1.,1.39897054514259E-16,0.));
#1684=DIRECTION('',(-1.39897054514259E-16,1.,0.));
#1685=DIRECTION('',(1.,-1.39897054514259E-16,0.));
#1686=DIRECTION('',(0.,1.,-1.7347234759768E-16));
#1687=DIRECTION('',(0.,0.,-1.));
#1688=DIRECTION('',(1.,1.39897054514259E-16,0.));
#1689=DIRECTION('',(-1.39897054514259E-16,1.,0.));
#1690=DIRECTION('',(1.,-1.39897054514259E-16,0.));
#1691=DIRECTION('',(0.,1.,-1.7347234759768E-16));
#1692=DIRECTION('',(0.,-1.,0.));
#1693=DIRECTION('',(0.,0.,-1.));
#1694=DIRECTION('',(0.,0.,-1.));
#1695=DIRECTION('',(-1.,0.,0.));
#1696=DIRECTION('',(0.,0.,-1.));
#1697=DIRECTION('',(0.,0.,-1.));
#1698=DIRECTION('',(1.,1.39897054514259E-16,0.));
#1699=DIRECTION('',(-1.39897054514259E-16,1.,0.));
#1700=DIRECTION('',(1.,1.39897054514259E-16,0.));
#1701=DIRECTION('',(-1.39897054514259E-16,1.,0.));
#1702=DIRECTION('',(1.,-1.39897054514259E-16,0.));
#1703=DIRECTION('',(1.39897054514259E-16,1.,0.));
#1704=DIRECTION('',(-1.,1.39897054514259E-16,0.));
#1705=DIRECTION('',(-1.39897054514259E-16,-1.,0.));
#1706=DIRECTION('',(1.,-1.39897054514259E-16,0.));
#1707=DIRECTION('',(1.39897054514259E-16,1.,0.));
#1708=DIRECTION('',(-1.,1.39897054514259E-16,0.));
#1709=DIRECTION('',(-1.39897054514259E-16,-1.,0.));
#1710=DIRECTION('',(-1.,1.39897054514259E-16,0.));
#1711=DIRECTION('',(-1.39897054514259E-16,-1.,0.));
#1712=DIRECTION('',(-1.,1.39897054514259E-16,0.));
#1713=DIRECTION('',(-1.39897054514259E-16,-1.,0.));
#1714=DIRECTION('',(-1.,1.39897054514259E-16,0.));
#1715=DIRECTION('',(-1.39897054514259E-16,-1.,0.));
#1716=DIRECTION('',(0.,0.,1.));
#1717=DIRECTION('',(1.,0.,0.));
#1718=DIRECTION('',(0.,0.,1.));
#1719=DIRECTION('',(1.,0.,0.));
#1720=DIRECTION('',(0.,0.,1.));
#1721=DIRECTION('',(1.,0.,0.));
#1722=DIRECTION('',(0.,0.,1.));
#1723=DIRECTION('',(1.,0.,0.));
#1724=DIRECTION('',(0.,0.,1.));
#1725=DIRECTION('',(1.,0.,0.));
#1726=DIRECTION('',(0.,0.,1.));
#1727=DIRECTION('',(1.,0.,0.));
#1728=DIRECTION('',(0.,0.,1.));
#1729=DIRECTION('',(1.,0.,0.));
#1730=DIRECTION('',(0.,0.,1.));
#1731=DIRECTION('',(1.,0.,0.));
#1732=DIRECTION('',(1.,-4.92819169311593E-17,0.));
#1733=DIRECTION('',(4.92819169311593E-17,1.,0.));
#1734=DIRECTION('',(6.02334540269725E-17,1.,0.));
#1735=DIRECTION('',(0.,0.,1.));
#1736=DIRECTION('',(4.92819169311593E-17,1.,0.));
#1737=DIRECTION('',(0.,0.,1.));
#1738=DIRECTION('',(0.,-1.,0.));
#1739=DIRECTION('',(0.,0.,-1.));
#1740=DIRECTION('',(1.,0.,0.));
#1741=DIRECTION('',(0.,0.,1.));
#1742=DIRECTION('',(1.,-1.97127667724637E-16,0.));
#1743=DIRECTION('',(1.97127667724637E-16,1.,0.));
#1744=DIRECTION('',(1.97127667724637E-16,1.,0.));
#1745=DIRECTION('',(0.,0.,1.));
#1746=DIRECTION('',(1.20466908053945E-16,1.,0.));
#1747=DIRECTION('',(0.,-1.,0.));
#1748=DIRECTION('',(0.,0.,-1.));
#1749=DIRECTION('',(1.,0.,0.));
#1750=DIRECTION('',(0.,0.,1.));
#1751=DIRECTION('',(1.,0.,0.));
#1752=DIRECTION('',(0.,0.,1.));
#1753=DIRECTION('',(0.,0.,1.));
#1754=DIRECTION('',(1.,0.,0.));
#1755=DIRECTION('',(0.,0.,1.));
#1756=DIRECTION('',(1.,0.,0.));
#1757=DIRECTION('',(0.,0.,1.));
#1758=DIRECTION('',(1.,0.,0.));
#1759=DIRECTION('',(0.,-1.,0.));
#1760=DIRECTION('',(0.,0.,-1.));
#1761=DIRECTION('',(1.,0.,0.));
#1762=DIRECTION('',(0.,0.,1.));
#1763=DIRECTION('',(1.,0.,0.));
#1764=DIRECTION('',(0.,0.,1.));
#1765=DIRECTION('',(1.,0.,0.));
#1766=DIRECTION('',(0.,0.,-1.));
#1767=DIRECTION('',(0.,1.,0.));
#1768=DIRECTION('',(0.,0.,1.));
#1769=DIRECTION('',(0.,1.,0.));
#1770=DIRECTION('',(0.,0.,1.));
#1771=DIRECTION('',(0.,-1.,0.));
#1772=DIRECTION('',(0.,0.,-1.));
#1773=DIRECTION('',(1.,0.,0.));
#1774=DIRECTION('',(0.,0.,1.));
#1775=DIRECTION('',(1.,0.,0.));
#1776=DIRECTION('',(0.,0.,-1.));
#1777=DIRECTION('',(0.,1.,0.));
#1778=DIRECTION('',(0.,0.,1.));
#1779=DIRECTION('',(0.,1.,0.));
#1780=DIRECTION('',(0.,0.,1.));
#1781=DIRECTION('',(1.,0.,0.));
#1782=DIRECTION('',(0.,0.,1.));
#1783=DIRECTION('',(1.,0.,0.));
#1784=DIRECTION('',(0.,0.,1.));
#1785=DIRECTION('',(1.,0.,0.));
#1786=DIRECTION('',(0.,-1.,0.));
#1787=DIRECTION('',(0.,0.,-1.));
#1788=DIRECTION('',(1.,0.,0.));
#1789=DIRECTION('',(0.,0.,1.));
#1790=DIRECTION('',(1.,0.,0.));
#1791=DIRECTION('',(0.,0.,1.));
#1792=DIRECTION('',(1.,0.,0.));
#1793=DIRECTION('',(0.,0.,-1.));
#1794=DIRECTION('',(0.,1.,0.));
#1795=DIRECTION('',(0.,0.,1.));
#1796=DIRECTION('',(0.,1.,0.));
#1797=DIRECTION('',(0.,0.,1.));
#1798=DIRECTION('',(0.,-1.,0.));
#1799=DIRECTION('',(0.,0.,-1.));
#1800=DIRECTION('',(1.,0.,0.));
#1801=DIRECTION('',(0.,0.,1.));
#1802=DIRECTION('',(1.,-3.94255335449274E-16,0.));
#1803=DIRECTION('',(3.94255335449274E-16,1.,0.));
#1804=DIRECTION('',(3.94255335449274E-16,1.,0.));
#1805=DIRECTION('',(0.,0.,1.));
#1806=DIRECTION('',(0.,1.,0.));
#1807=DIRECTION('',(0.,0.,1.));
#1808=DIRECTION('',(1.,0.,0.));
#1809=DIRECTION('',(0.,0.,1.));
#1810=DIRECTION('',(1.,0.,0.));
#1811=DIRECTION('',(0.,0.,1.));
#1812=DIRECTION('',(1.,0.,0.));
#1813=DIRECTION('',(1.,0.,0.));
#1814=DIRECTION('',(0.,0.,-1.));
#1815=DIRECTION('',(0.,1.,0.));
#1816=DIRECTION('',(0.,0.,1.));
#1817=DIRECTION('',(0.,1.,0.));
#1818=DIRECTION('',(0.,0.,1.));
#1819=DIRECTION('',(0.,-1.,0.));
#1820=DIRECTION('',(0.,0.,-1.));
#1821=DIRECTION('',(1.,0.,0.));
#1822=DIRECTION('',(0.,0.,1.));
#1823=DIRECTION('',(1.,0.,0.));
#1824=DIRECTION('',(0.,0.,-1.));
#1825=DIRECTION('',(0.,1.,0.));
#1826=DIRECTION('',(0.,0.,1.));
#1827=DIRECTION('',(0.,1.,0.));
#1828=DIRECTION('',(0.,-1.,0.));
#1829=DIRECTION('',(0.,0.,-1.));
#1830=DIRECTION('',(1.,0.,0.));
#1831=DIRECTION('',(0.,0.,1.));
#1832=DIRECTION('',(1.,0.,0.));
#1833=DIRECTION('',(0.,0.,1.));
#1834=DIRECTION('',(0.,0.,1.));
#1835=DIRECTION('',(1.,0.,0.));
#1836=DIRECTION('',(0.,0.,1.));
#1837=DIRECTION('',(1.,0.,0.));
#1838=DIRECTION('',(0.,0.,1.));
#1839=DIRECTION('',(1.,0.,0.));
#1840=DIRECTION('',(0.,0.,1.));
#1841=DIRECTION('',(1.,0.,0.));
#1842=DIRECTION('',(0.,0.,1.));
#1843=DIRECTION('',(1.,0.,0.));
#1844=DIRECTION('',(0.,0.,1.));
#1845=DIRECTION('',(1.,0.,0.));
#1846=DIRECTION('',(0.,0.,1.));
#1847=DIRECTION('',(1.,0.,0.));
#1848=DIRECTION('',(0.,0.,1.));
#1849=DIRECTION('',(1.,0.,0.));
#1850=DIRECTION('',(0.,0.,1.));
#1851=DIRECTION('',(1.,0.,0.));
#1852=DIRECTION('',(0.,0.,1.));
#1853=DIRECTION('',(1.,0.,0.));
#1854=DIRECTION('',(0.,0.,1.));
#1855=DIRECTION('',(1.,0.,0.));
#1856=DIRECTION('',(0.,0.,1.));
#1857=DIRECTION('',(1.,0.,0.));
#1858=DIRECTION('',(0.,0.,1.));
#1859=DIRECTION('',(1.,0.,0.));
#1860=DIRECTION('',(0.,0.,1.));
#1861=DIRECTION('',(1.,0.,0.));
#1862=DIRECTION('',(0.,0.,1.));
#1863=DIRECTION('',(1.,0.,0.));
#1864=DIRECTION('',(0.,0.,-1.));
#1865=DIRECTION('',(-1.,0.,0.));
#1866=DIRECTION('',(0.,0.,1.));
#1867=DIRECTION('',(1.,0.,0.));
#1868=DIRECTION('',(0.,0.,1.));
#1869=DIRECTION('',(1.,0.,0.));
#1870=DIRECTION('',(0.,0.,-1.));
#1871=DIRECTION('',(-1.,0.,0.));
#1872=DIRECTION('',(0.,0.,-1.));
#1873=DIRECTION('',(-1.,0.,0.));
#1874=DIRECTION('',(0.,0.,1.));
#1875=DIRECTION('',(1.,0.,0.));
#1876=DIRECTION('',(0.,0.,-1.));
#1877=DIRECTION('',(-1.,0.,0.));
#1878=DIRECTION('',(0.,0.,1.));
#1879=DIRECTION('',(1.,0.,0.));
#1880=DIRECTION('',(0.,0.,1.));
#1881=DIRECTION('',(1.,0.,0.));
#1882=DIRECTION('',(0.,0.,1.));
#1883=DIRECTION('',(1.,0.,0.));
#1884=DIRECTION('',(-1.,1.39897054514259E-16,0.));
#1885=DIRECTION('',(-1.39897054514259E-16,-1.,0.));
#1886=DIRECTION('',(-1.,1.39897054514259E-16,0.));
#1887=DIRECTION('',(-1.39897054514259E-16,-1.,0.));
#1888=DIRECTION('',(0.,1.,0.));
#1889=DIRECTION('',(0.,0.,1.));
#1890=DIRECTION('',(0.,0.,1.));
#1891=DIRECTION('',(-1.,0.,0.));
#1892=DIRECTION('',(0.,0.,1.));
#1893=DIRECTION('',(-1.,0.,0.));
#1894=DIRECTION('',(0.,0.,1.));
#1895=DIRECTION('',(0.,0.,1.));
#1896=DIRECTION('',(0.,-1.,0.));
#1897=DIRECTION('',(0.,1.,0.));
#1898=DIRECTION('',(0.,0.,1.));
#1899=DIRECTION('',(0.,0.,1.));
#1900=DIRECTION('',(-1.,0.,0.));
#1901=DIRECTION('',(-1.,0.,0.));
#1902=DIRECTION('',(0.,0.,1.));
#1903=DIRECTION('',(0.,-1.,0.));
#1904=DIRECTION('',(0.,0.,1.));
#1905=DIRECTION('',(1.,0.,0.));
#1906=DIRECTION('',(0.,1.,0.));
#1907=DIRECTION('',(0.,0.,1.));
#1908=DIRECTION('',(0.,0.,1.));
#1909=DIRECTION('',(-1.,0.,0.));
#1910=DIRECTION('',(0.,0.,1.));
#1911=DIRECTION('',(-1.,1.80700362080917E-16,0.));
#1912=DIRECTION('',(-1.80700362080917E-16,-1.,0.));
#1913=DIRECTION('',(0.,0.,1.));
#1914=DIRECTION('',(-1.80700362080917E-16,-1.,0.));
#1915=DIRECTION('',(0.,1.,0.));
#1916=DIRECTION('',(0.,0.,1.));
#1917=DIRECTION('',(0.,0.,1.));
#1918=DIRECTION('',(-1.,0.,0.));
#1919=DIRECTION('',(-1.,1.80700362080917E-16,0.));
#1920=DIRECTION('',(-1.80700362080917E-16,-1.,0.));
#1921=DIRECTION('',(-1.80700362080917E-16,-1.,0.));
#1922=DIRECTION('',(0.,0.,1.));
#1923=DIRECTION('',(1.,0.,0.));
#1924=DIRECTION('',(0.,1.,0.));
#1925=DIRECTION('',(0.,0.,1.));
#1926=DIRECTION('',(0.,0.,1.));
#1927=DIRECTION('',(-1.,0.,0.));
#1928=DIRECTION('',(0.,0.,1.));
#1929=DIRECTION('',(-1.,-7.2280144832367E-16,0.));
#1930=DIRECTION('',(7.2280144832367E-16,-1.,0.));
#1931=DIRECTION('',(0.,0.,1.));
#1932=DIRECTION('',(7.2280144832367E-16,-1.,0.));
#1933=DIRECTION('',(0.,1.,0.));
#1934=DIRECTION('',(0.,0.,1.));
#1935=DIRECTION('',(0.,0.,1.));
#1936=DIRECTION('',(-1.,0.,0.));
#1937=DIRECTION('',(-1.,0.,0.));
#1938=DIRECTION('',(0.,0.,1.));
#1939=DIRECTION('',(0.,-1.,0.));
#1940=DIRECTION('',(0.,0.,1.));
#1941=DIRECTION('',(1.,0.,0.));
#1942=DIRECTION('',(0.,1.,0.));
#1943=DIRECTION('',(0.,0.,1.));
#1944=DIRECTION('',(0.,0.,1.));
#1945=DIRECTION('',(-1.,0.,0.));
#1946=DIRECTION('',(0.,0.,1.));
#1947=DIRECTION('',(-1.,0.,0.));
#1948=DIRECTION('',(0.,0.,1.));
#1949=DIRECTION('',(0.,0.,1.));
#1950=DIRECTION('',(0.,-1.,0.));
#1951=DIRECTION('',(0.,1.,0.));
#1952=DIRECTION('',(0.,0.,1.));
#1953=DIRECTION('',(0.,0.,1.));
#1954=DIRECTION('',(-1.,0.,0.));
#1955=DIRECTION('',(-1.,0.,0.));
#1956=DIRECTION('',(0.,0.,1.));
#1957=DIRECTION('',(0.,-1.,0.));
#1958=DIRECTION('',(0.,0.,1.));
#1959=DIRECTION('',(1.,0.,0.));
#1960=CARTESIAN_POINT('',(0.,0.,0.));
#1961=CARTESIAN_POINT('',(0.000738314539194106,0.00655,0.005));
#1962=CARTESIAN_POINT('',(0.0047,0.0148,0.005));
#1963=CARTESIAN_POINT('',(0.00475,0.0148,0.005));
#1964=CARTESIAN_POINT('',(0.00355,0.0148,0.005));
#1965=CARTESIAN_POINT('',(0.00475,0.0145,0.005));
#1966=CARTESIAN_POINT('',(0.00475,0.0142,0.005));
#1967=CARTESIAN_POINT('',(0.0047,0.0142,0.005));
#1968=CARTESIAN_POINT('',(0.00355,0.0142,0.005));
#1969=CARTESIAN_POINT('',(0.00355,0.0145,0.005));
#1970=CARTESIAN_POINT('',(0.00015,0.0148,0.005));
#1971=CARTESIAN_POINT('',(0.00075,0.0148,0.005));
#1972=CARTESIAN_POINT('',(-0.00045,0.0148,0.005));
#1973=CARTESIAN_POINT('',(0.00075,0.0145,0.005));
#1974=CARTESIAN_POINT('',(0.00075,0.0142,0.005));
#1975=CARTESIAN_POINT('',(0.00015,0.0142,0.005));
#1976=CARTESIAN_POINT('',(-0.00045,0.0142,0.005));
#1977=CARTESIAN_POINT('',(-0.00045,0.0145,0.005));
#1978=CARTESIAN_POINT('',(0.00525,0.0153,0.005));
#1979=CARTESIAN_POINT('',(0.00605,0.0153,0.005));
#1980=CARTESIAN_POINT('',(-0.00605,0.0153,0.005));
#1981=CARTESIAN_POINT('',(-0.00605,0.0122,0.005));
#1982=CARTESIAN_POINT('',(-0.00605,0.0122,0.005));
#1983=CARTESIAN_POINT('',(-0.00605,0.0122,0.005));
#1984=CARTESIAN_POINT('',(-0.00605,0.0091,0.005));
#1985=CARTESIAN_POINT('',(-0.0047,0.0091,0.005));
#1986=CARTESIAN_POINT('',(0.00605,0.0091,0.005));
#1987=CARTESIAN_POINT('',(0.00605,0.0122,0.005));
#1988=CARTESIAN_POINT('',(-0.00225,0.0145,0.005));
#1989=CARTESIAN_POINT('',(-0.00225,0.0148,0.005));
#1990=CARTESIAN_POINT('',(-0.00225,0.0142,0.005));
#1991=CARTESIAN_POINT('',(-0.00285,0.0142,0.005));
#1992=CARTESIAN_POINT('',(-0.00345,0.0142,0.005));
#1993=CARTESIAN_POINT('',(-0.00345,0.0145,0.005));
#1994=CARTESIAN_POINT('',(-0.00345,0.0148,0.005));
#1995=CARTESIAN_POINT('',(-0.00285,0.0148,0.005));
#1996=CARTESIAN_POINT('',(0.00585,0.0099,0.005));
#1997=CARTESIAN_POINT('',(0.00585,0.0102,0.005));
#1998=CARTESIAN_POINT('',(0.00585,0.0096,0.005));
#1999=CARTESIAN_POINT('',(0.0047,0.0096,0.005));
#2000=CARTESIAN_POINT('',(0.00465,0.0096,0.005));
#2001=CARTESIAN_POINT('',(0.00465,0.0099,0.005));
#2002=CARTESIAN_POINT('',(0.00465,0.0102,0.005));
#2003=CARTESIAN_POINT('',(0.0047,0.0102,0.005));
#2004=CARTESIAN_POINT('',(0.00525,0.0153,0.005));
#2005=CARTESIAN_POINT('',(-0.00235,0.0153,0.0001));
#2006=CARTESIAN_POINT('',(-0.00235,0.0153,0.0001));
#2007=CARTESIAN_POINT('',(-0.00235,0.0153,0.));
#2008=CARTESIAN_POINT('',(-0.00285,0.0153,0.0001));
#2009=CARTESIAN_POINT('',(-0.00335,0.0153,0.0001));
#2010=CARTESIAN_POINT('',(-0.00335,0.0153,0.0001));
#2011=CARTESIAN_POINT('',(-0.00335,0.0153,0.));
#2012=CARTESIAN_POINT('',(0.00525,0.0153,0.));
#2013=CARTESIAN_POINT('',(-0.00605,0.0153,0.));
#2014=CARTESIAN_POINT('',(-0.00605,0.0153,0.005));
#2015=CARTESIAN_POINT('',(0.00605,0.0153,0.005));
#2016=CARTESIAN_POINT('',(0.00605,0.0153,0.));
#2017=CARTESIAN_POINT('',(0.00525,0.0153,0.));
#2018=CARTESIAN_POINT('',(0.00465,0.0153,0.));
#2019=CARTESIAN_POINT('',(0.00465,0.0153,0.0001));
#2020=CARTESIAN_POINT('',(0.00465,0.0153,0.0001));
#2021=CARTESIAN_POINT('',(0.00415,0.0153,0.0001));
#2022=CARTESIAN_POINT('',(0.00365,0.0153,0.0001));
#2023=CARTESIAN_POINT('',(0.00365,0.0153,0.0001));
#2024=CARTESIAN_POINT('',(0.00365,0.0153,0.));
#2025=CARTESIAN_POINT('',(0.00525,0.0153,0.));
#2026=CARTESIAN_POINT('',(0.00065,0.0153,0.));
#2027=CARTESIAN_POINT('',(0.00065,0.0153,0.0001));
#2028=CARTESIAN_POINT('',(0.00065,0.0153,0.0001));
#2029=CARTESIAN_POINT('',(0.00015,0.0153,0.0001));
#2030=CARTESIAN_POINT('',(-0.00035,0.0153,0.0001));
#2031=CARTESIAN_POINT('',(-0.00035,0.0153,0.0001));
#2032=CARTESIAN_POINT('',(-0.00035,0.0153,0.));
#2033=CARTESIAN_POINT('',(0.00525,0.0153,0.));
#2034=CARTESIAN_POINT('',(0.000738314539194106,0.00655,0.));
#2035=CARTESIAN_POINT('',(0.00255,0.0122,0.));
#2036=CARTESIAN_POINT('',(0.00305,0.0122,0.));
#2037=CARTESIAN_POINT('',(-0.00445,0.0122,0.));
#2038=CARTESIAN_POINT('',(-0.00395,0.0122,0.));
#2039=CARTESIAN_POINT('',(-0.0047,0.0091,0.));
#2040=CARTESIAN_POINT('',(0.00605,0.0091,0.));
#2041=CARTESIAN_POINT('',(0.00575,0.0091,0.));
#2042=CARTESIAN_POINT('',(0.00575,0.00865,0.));
#2043=CARTESIAN_POINT('',(0.00575,0.0102,0.));
#2044=CARTESIAN_POINT('',(0.00525,0.0102,0.));
#2045=CARTESIAN_POINT('',(0.00475,0.0102,0.));
#2046=CARTESIAN_POINT('',(0.00475,0.00865,0.));
#2047=CARTESIAN_POINT('',(0.00475,0.0091,0.));
#2048=CARTESIAN_POINT('',(-0.0047,0.0091,0.));
#2049=CARTESIAN_POINT('',(-0.00605,0.0091,0.));
#2050=CARTESIAN_POINT('',(-0.00605,0.0122,0.));
#2051=CARTESIAN_POINT('',(-0.00605,0.0122,0.));
#2052=CARTESIAN_POINT('',(-0.00605,0.0122,0.));
#2053=CARTESIAN_POINT('',(-0.00335,0.01475,0.));
#2054=CARTESIAN_POINT('',(-0.00335,0.0142,0.));
#2055=CARTESIAN_POINT('',(-0.00285,0.0142,0.));
#2056=CARTESIAN_POINT('',(-0.00235,0.0142,0.));
#2057=CARTESIAN_POINT('',(-0.00235,0.01475,0.));
#2058=CARTESIAN_POINT('',(-0.00035,0.01475,0.));
#2059=CARTESIAN_POINT('',(-0.00035,0.0142,0.));
#2060=CARTESIAN_POINT('',(0.00015,0.0142,0.));
#2061=CARTESIAN_POINT('',(0.00065,0.0142,0.));
#2062=CARTESIAN_POINT('',(0.00065,0.01475,0.));
#2063=CARTESIAN_POINT('',(0.00365,0.01575,0.));
#2064=CARTESIAN_POINT('',(0.00365,0.0142,0.));
#2065=CARTESIAN_POINT('',(0.00415,0.0142,0.));
#2066=CARTESIAN_POINT('',(0.00465,0.0142,0.));
#2067=CARTESIAN_POINT('',(0.00465,0.01575,0.));
#2068=CARTESIAN_POINT('',(0.00605,0.0122,0.));
#2069=CARTESIAN_POINT('',(-0.00605,0.0122,0.005));
#2070=CARTESIAN_POINT('',(-0.00605,0.0122,0.0025));
#2071=CARTESIAN_POINT('',(-0.00605,0.0091,0.005));
#2072=CARTESIAN_POINT('',(-0.00605,0.0122,0.005));
#2073=CARTESIAN_POINT('',(-0.00605,0.0122,0.0025));
#2074=CARTESIAN_POINT('',(-0.0047,0.0091,0.005));
#2075=CARTESIAN_POINT('',(0.00475,0.0091,0.0001));
#2076=CARTESIAN_POINT('',(0.00475,0.0091,0.0001));
#2077=CARTESIAN_POINT('',(0.00525,0.0091,0.0001));
#2078=CARTESIAN_POINT('',(0.00575,0.0091,0.0001));
#2079=CARTESIAN_POINT('',(0.00575,0.0091,0.0001));
#2080=CARTESIAN_POINT('',(0.00605,0.0091,0.005));
#2081=CARTESIAN_POINT('',(0.00605,0.0122,0.005));
#2082=CARTESIAN_POINT('',(0.00605,0.0122,0.0025));
#2083=CARTESIAN_POINT('',(0.00605,0.014,0.0025));
#2084=CARTESIAN_POINT('',(-0.00805,0.0122,0.0025));
#2085=CARTESIAN_POINT('',(-0.00785,0.0122,0.0025));
#2086=CARTESIAN_POINT('',(-0.00785,0.0097,0.0025));
#2087=CARTESIAN_POINT('',(-0.00805,0.0122,0.0025));
#2088=CARTESIAN_POINT('',(-0.00785,0.0122,0.0025));
#2089=CARTESIAN_POINT('',(-0.00785,0.0104,0.0025));
#2090=CARTESIAN_POINT('',(-0.00805,0.0061,0.004));
#2091=CARTESIAN_POINT('',(-0.00805,0.0122,0.0025));
#2092=CARTESIAN_POINT('',(-0.00805,0.0102,0.0025));
#2093=CARTESIAN_POINT('',(-0.00805,0.0122,0.0025));
#2094=CARTESIAN_POINT('',(-0.00805,0.0099,0.0025));
#2095=CARTESIAN_POINT('',(0.00255,0.0122,-0.0008));
#2096=CARTESIAN_POINT('',(0.00255,0.0122,-0.0005));
#2097=CARTESIAN_POINT('',(0.00305,0.0122,-0.0005));
#2098=CARTESIAN_POINT('',(0.000738314539194106,0.00655,-0.0008));
#2099=CARTESIAN_POINT('',(0.00255,0.0122,-0.0008));
#2100=CARTESIAN_POINT('',(0.00275,0.0122,-0.0008));
#2101=CARTESIAN_POINT('',(-0.00445,0.0122,-0.0008));
#2102=CARTESIAN_POINT('',(-0.00445,0.0122,-0.0005));
#2103=CARTESIAN_POINT('',(-0.00395,0.0122,-0.0005));
#2104=CARTESIAN_POINT('',(0.000738314539194106,0.00655,-0.0008));
#2105=CARTESIAN_POINT('',(-0.00445,0.0122,-0.0008));
#2106=CARTESIAN_POINT('',(-0.00425,0.0122,-0.0008));
#2107=CARTESIAN_POINT('',(-0.00035,0.01475,-0.0001));
#2108=CARTESIAN_POINT('',(-0.00035,0.01575,0.0001));
#2109=CARTESIAN_POINT('',(-0.00035,0.01575,0.0001));
#2110=CARTESIAN_POINT('',(-0.00035,0.01575,-0.0001));
#2111=CARTESIAN_POINT('',(-0.00035,0.01575,-0.0001));
#2112=CARTESIAN_POINT('',(-0.00035,0.01475,-0.0001));
#2113=CARTESIAN_POINT('',(-0.00035,0.0142,-0.0001));
#2114=CARTESIAN_POINT('',(-0.00035,0.0142,-0.0001));
#2115=CARTESIAN_POINT('',(0.00015,0.0142,-0.0001));
#2116=CARTESIAN_POINT('',(0.00015,0.0142,-0.0001));
#2117=CARTESIAN_POINT('',(0.00065,0.0142,-0.0001));
#2118=CARTESIAN_POINT('',(0.00065,0.0142,-0.0001));
#2119=CARTESIAN_POINT('',(0.00065,0.01475,-0.0001));
#2120=CARTESIAN_POINT('',(0.00065,0.01475,-0.0001));
#2121=CARTESIAN_POINT('',(0.00065,0.01575,-0.0001));
#2122=CARTESIAN_POINT('',(0.00065,0.01575,0.0001));
#2123=CARTESIAN_POINT('',(0.00065,0.01575,0.0001));
#2124=CARTESIAN_POINT('',(0.00065,0.01575,0.0001));
#2125=CARTESIAN_POINT('',(0.00015,0.0162,-0.0001));
#2126=CARTESIAN_POINT('',(0.00015,0.0162,-0.0001));
#2127=CARTESIAN_POINT('',(0.0001,0.0162,-0.0001));
#2128=CARTESIAN_POINT('',(0.0002,0.0162,-0.0001));
#2129=CARTESIAN_POINT('',(0.0001,0.0162,-0.0001));
#2130=CARTESIAN_POINT('',(0.0001,0.0162,0.0001));
#2131=CARTESIAN_POINT('',(0.00015,0.0162,0.0001));
#2132=CARTESIAN_POINT('',(0.0002,0.0162,0.0001));
#2133=CARTESIAN_POINT('',(0.0002,0.0162,-0.0001));
#2134=CARTESIAN_POINT('',(0.000738314539194106,0.00655,-0.0001));
#2135=CARTESIAN_POINT('',(0.0001,0.01575,-0.0001));
#2136=CARTESIAN_POINT('',(0.0002,0.01575,-0.0001));
#2137=CARTESIAN_POINT('',(0.00415,0.0162,-0.0001));
#2138=CARTESIAN_POINT('',(0.00415,0.0162,0.0001));
#2139=CARTESIAN_POINT('',(0.0041,0.0162,0.0001));
#2140=CARTESIAN_POINT('',(0.0042,0.0162,0.0001));
#2141=CARTESIAN_POINT('',(0.0042,0.0162,-0.0001));
#2142=CARTESIAN_POINT('',(0.0042,0.0162,-0.0001));
#2143=CARTESIAN_POINT('',(0.00415,0.0162,-0.0001));
#2144=CARTESIAN_POINT('',(0.0041,0.0162,-0.0001));
#2145=CARTESIAN_POINT('',(0.0041,0.0162,-0.0001));
#2146=CARTESIAN_POINT('',(0.00365,0.01575,-0.0001));
#2147=CARTESIAN_POINT('',(0.00365,0.01575,0.0001));
#2148=CARTESIAN_POINT('',(0.00365,0.01575,0.0001));
#2149=CARTESIAN_POINT('',(0.00365,0.01575,-0.0001));
#2150=CARTESIAN_POINT('',(0.00365,0.01575,-0.0001));
#2151=CARTESIAN_POINT('',(0.00365,0.01575,-0.0001));
#2152=CARTESIAN_POINT('',(0.00365,0.0142,-0.0001));
#2153=CARTESIAN_POINT('',(0.00365,0.0142,-0.0001));
#2154=CARTESIAN_POINT('',(0.00415,0.0142,-0.0001));
#2155=CARTESIAN_POINT('',(0.00415,0.0142,-0.0001));
#2156=CARTESIAN_POINT('',(0.00465,0.0142,-0.0001));
#2157=CARTESIAN_POINT('',(0.00465,0.0142,-0.0001));
#2158=CARTESIAN_POINT('',(0.00465,0.01575,-0.0001));
#2159=CARTESIAN_POINT('',(0.00465,0.01575,-0.0001));
#2160=CARTESIAN_POINT('',(0.00465,0.01575,-0.0001));
#2161=CARTESIAN_POINT('',(0.00465,0.01575,0.0001));
#2162=CARTESIAN_POINT('',(0.00465,0.01575,0.0001));
#2163=CARTESIAN_POINT('',(0.00465,0.01575,0.0001));
#2164=CARTESIAN_POINT('',(0.000738314539194106,0.00655,-0.0001));
#2165=CARTESIAN_POINT('',(0.0042,0.01575,-0.0001));
#2166=CARTESIAN_POINT('',(0.0041,0.01575,-0.0001));
#2167=CARTESIAN_POINT('',(-0.00285,0.0162,-0.0001));
#2168=CARTESIAN_POINT('',(-0.00285,0.0162,0.0001));
#2169=CARTESIAN_POINT('',(-0.0029,0.0162,0.0001));
#2170=CARTESIAN_POINT('',(-0.0028,0.0162,0.0001));
#2171=CARTESIAN_POINT('',(-0.0028,0.0162,-0.0001));
#2172=CARTESIAN_POINT('',(-0.0028,0.0162,-0.0001));
#2173=CARTESIAN_POINT('',(-0.00285,0.0162,-0.0001));
#2174=CARTESIAN_POINT('',(-0.0029,0.0162,-0.0001));
#2175=CARTESIAN_POINT('',(-0.0029,0.0162,-0.0001));
#2176=CARTESIAN_POINT('',(-0.00335,0.01475,-0.0001));
#2177=CARTESIAN_POINT('',(-0.00335,0.01575,0.0001));
#2178=CARTESIAN_POINT('',(-0.00335,0.01575,0.0001));
#2179=CARTESIAN_POINT('',(-0.00335,0.01575,-0.0001));
#2180=CARTESIAN_POINT('',(-0.00335,0.01575,-0.0001));
#2181=CARTESIAN_POINT('',(-0.00335,0.01475,-0.0001));
#2182=CARTESIAN_POINT('',(-0.00335,0.0142,-0.0001));
#2183=CARTESIAN_POINT('',(-0.00335,0.0142,-0.0001));
#2184=CARTESIAN_POINT('',(-0.00285,0.0142,-0.0001));
#2185=CARTESIAN_POINT('',(-0.00285,0.0142,-0.0001));
#2186=CARTESIAN_POINT('',(-0.00235,0.0142,-0.0001));
#2187=CARTESIAN_POINT('',(-0.00235,0.0142,-0.0001));
#2188=CARTESIAN_POINT('',(-0.00235,0.01475,-0.0001));
#2189=CARTESIAN_POINT('',(-0.00235,0.01475,-0.0001));
#2190=CARTESIAN_POINT('',(-0.00235,0.01575,-0.0001));
#2191=CARTESIAN_POINT('',(-0.00235,0.01575,0.0001));
#2192=CARTESIAN_POINT('',(-0.00235,0.01575,0.0001));
#2193=CARTESIAN_POINT('',(-0.00235,0.01575,0.0001));
#2194=CARTESIAN_POINT('',(0.000738314539194106,0.00655,-0.0001));
#2195=CARTESIAN_POINT('',(-0.0028,0.01575,-0.0001));
#2196=CARTESIAN_POINT('',(-0.0029,0.01575,-0.0001));
#2197=CARTESIAN_POINT('',(0.00575,0.00865,-0.0001));
#2198=CARTESIAN_POINT('',(0.00575,0.00865,0.0001));
#2199=CARTESIAN_POINT('',(0.00575,0.00865,0.0001));
#2200=CARTESIAN_POINT('',(0.00575,0.00865,-0.0001));
#2201=CARTESIAN_POINT('',(0.00575,0.00865,-0.0001));
#2202=CARTESIAN_POINT('',(0.00575,0.00865,-0.0001));
#2203=CARTESIAN_POINT('',(0.00575,0.0102,-0.0001));
#2204=CARTESIAN_POINT('',(0.00575,0.0102,-0.0001));
#2205=CARTESIAN_POINT('',(0.00525,0.0102,-0.0001));
#2206=CARTESIAN_POINT('',(0.00525,0.0102,-0.0001));
#2207=CARTESIAN_POINT('',(0.00475,0.0102,-0.0001));
#2208=CARTESIAN_POINT('',(0.00475,0.0102,-0.0001));
#2209=CARTESIAN_POINT('',(0.00475,0.00865,-0.0001));
#2210=CARTESIAN_POINT('',(0.00475,0.00865,-0.0001));
#2211=CARTESIAN_POINT('',(0.00475,0.00865,-0.0001));
#2212=CARTESIAN_POINT('',(0.00475,0.00865,0.0001));
#2213=CARTESIAN_POINT('',(0.00475,0.00865,0.0001));
#2214=CARTESIAN_POINT('',(0.00475,0.00865,0.0001));
#2215=CARTESIAN_POINT('',(0.00525,0.0082,-0.0001));
#2216=CARTESIAN_POINT('',(0.00525,0.0082,0.0001));
#2217=CARTESIAN_POINT('',(0.0052,0.0082,0.0001));
#2218=CARTESIAN_POINT('',(0.0053,0.0082,0.0001));
#2219=CARTESIAN_POINT('',(0.0052,0.0082,-0.0001));
#2220=CARTESIAN_POINT('',(0.0052,0.0082,-0.0001));
#2221=CARTESIAN_POINT('',(0.00525,0.0082,-0.0001));
#2222=CARTESIAN_POINT('',(0.0053,0.0082,-0.0001));
#2223=CARTESIAN_POINT('',(0.0053,0.0082,-0.0001));
#2224=CARTESIAN_POINT('',(0.000738314539194106,0.00655,-0.0001));
#2225=CARTESIAN_POINT('',(0.0052,0.00865,-0.0001));
#2226=CARTESIAN_POINT('',(0.0053,0.00865,-0.0001));
#2227=CARTESIAN_POINT('',(0.000738314539194106,0.00655,0.0001));
#2228=CARTESIAN_POINT('',(0.0052,0.00865,0.0001));
#2229=CARTESIAN_POINT('',(0.0053,0.00865,0.0001));
#2230=CARTESIAN_POINT('',(0.000738314539194106,0.00655,0.0001));
#2231=CARTESIAN_POINT('',(0.0042,0.01575,0.0001));
#2232=CARTESIAN_POINT('',(0.0041,0.01575,0.0001));
#2233=CARTESIAN_POINT('',(0.000738314539194106,0.00655,0.0001));
#2234=CARTESIAN_POINT('',(0.0001,0.01575,0.0001));
#2235=CARTESIAN_POINT('',(0.0002,0.01575,0.0001));
#2236=CARTESIAN_POINT('',(0.000738314539194106,0.00655,0.0001));
#2237=CARTESIAN_POINT('',(-0.0028,0.01575,0.0001));
#2238=CARTESIAN_POINT('',(-0.0029,0.01575,0.0001));
#2239=CARTESIAN_POINT('',(-0.0028,0.01575,-0.0001));
#2240=CARTESIAN_POINT('',(-0.0029,0.01575,-0.0001));
#2241=CARTESIAN_POINT('',(0.0001,0.01575,-0.0001));
#2242=CARTESIAN_POINT('',(0.0002,0.01575,-0.0001));
#2243=CARTESIAN_POINT('',(0.0042,0.01575,-0.0001));
#2244=CARTESIAN_POINT('',(0.0041,0.01575,-0.0001));
#2245=CARTESIAN_POINT('',(0.0052,0.00865,-0.0001));
#2246=CARTESIAN_POINT('',(0.0053,0.00865,-0.0001));
#2247=CARTESIAN_POINT('',(0.00255,0.0122,-0.0008));
#2248=CARTESIAN_POINT('',(-0.00445,0.0122,-0.0008));
#2249=CARTESIAN_POINT('',(-0.00785,0.0122,0.0025));
#2250=CARTESIAN_POINT('',(-0.00785,0.0122,0.0025));
#2251=CARTESIAN_POINT('',(-0.00285,0.0142,0.0049));
#2252=CARTESIAN_POINT('',(-0.00225,0.0142,0.0049));
#2253=CARTESIAN_POINT('',(-0.00225,0.0142,0.0049));
#2254=CARTESIAN_POINT('',(-0.00285,0.0142,0.0049));
#2255=CARTESIAN_POINT('',(-0.00345,0.0142,0.0049));
#2256=CARTESIAN_POINT('',(-0.00345,0.0142,0.0049));
#2257=CARTESIAN_POINT('',(-0.00225,0.0145,0.0049));
#2258=CARTESIAN_POINT('',(-0.00225,0.0148,0.0049));
#2259=CARTESIAN_POINT('',(-0.00225,0.0148,0.0049));
#2260=CARTESIAN_POINT('',(-0.00225,0.0145,0.0049));
#2261=CARTESIAN_POINT('',(-0.00285,0.0148,0.0049));
#2262=CARTESIAN_POINT('',(-0.00345,0.0148,0.0049));
#2263=CARTESIAN_POINT('',(-0.00345,0.0148,0.0049));
#2264=CARTESIAN_POINT('',(-0.00285,0.0148,0.0049));
#2265=CARTESIAN_POINT('',(-0.00345,0.0145,0.0049));
#2266=CARTESIAN_POINT('',(-0.00345,0.0145,0.0049));
#2267=CARTESIAN_POINT('',(0.000738314539194106,0.0061,0.0049));
#2268=CARTESIAN_POINT('',(0.00015,0.0148,0.0049));
#2269=CARTESIAN_POINT('',(-0.00045,0.0148,0.0049));
#2270=CARTESIAN_POINT('',(-0.00045,0.0148,0.0049));
#2271=CARTESIAN_POINT('',(0.00015,0.0148,0.0049));
#2272=CARTESIAN_POINT('',(0.00075,0.0148,0.0049));
#2273=CARTESIAN_POINT('',(0.00075,0.0148,0.0049));
#2274=CARTESIAN_POINT('',(-0.00045,0.0145,0.0049));
#2275=CARTESIAN_POINT('',(-0.00045,0.0142,0.0049));
#2276=CARTESIAN_POINT('',(-0.00045,0.0142,0.0049));
#2277=CARTESIAN_POINT('',(-0.00045,0.0145,0.0049));
#2278=CARTESIAN_POINT('',(0.00015,0.0142,0.0049));
#2279=CARTESIAN_POINT('',(0.00075,0.0142,0.0049));
#2280=CARTESIAN_POINT('',(0.00075,0.0142,0.0049));
#2281=CARTESIAN_POINT('',(0.00015,0.0142,0.0049));
#2282=CARTESIAN_POINT('',(0.00075,0.0145,0.0049));
#2283=CARTESIAN_POINT('',(0.00075,0.0145,0.0049));
#2284=CARTESIAN_POINT('',(0.000738314539194106,0.0061,0.0049));
#2285=CARTESIAN_POINT('',(0.0047,0.0148,0.0049));
#2286=CARTESIAN_POINT('',(0.00355,0.0148,0.0049));
#2287=CARTESIAN_POINT('',(0.00355,0.0148,0.0049));
#2288=CARTESIAN_POINT('',(0.0047,0.0148,0.0049));
#2289=CARTESIAN_POINT('',(0.00475,0.0148,0.0049));
#2290=CARTESIAN_POINT('',(0.00475,0.0148,0.0049));
#2291=CARTESIAN_POINT('',(0.00355,0.0145,0.0049));
#2292=CARTESIAN_POINT('',(0.00355,0.0142,0.0049));
#2293=CARTESIAN_POINT('',(0.00355,0.0142,0.0049));
#2294=CARTESIAN_POINT('',(0.00355,0.0145,0.0049));
#2295=CARTESIAN_POINT('',(0.0047,0.0142,0.0049));
#2296=CARTESIAN_POINT('',(0.00475,0.0142,0.0049));
#2297=CARTESIAN_POINT('',(0.00475,0.0142,0.0049));
#2298=CARTESIAN_POINT('',(0.0047,0.0142,0.0049));
#2299=CARTESIAN_POINT('',(0.00475,0.0145,0.0049));
#2300=CARTESIAN_POINT('',(0.00475,0.0145,0.0049));
#2301=CARTESIAN_POINT('',(0.000738314539194106,0.0061,0.0049));
#2302=CARTESIAN_POINT('',(0.0047,0.0096,0.0049));
#2303=CARTESIAN_POINT('',(0.00585,0.0096,0.0049));
#2304=CARTESIAN_POINT('',(0.00585,0.0096,0.0049));
#2305=CARTESIAN_POINT('',(0.0047,0.0096,0.0049));
#2306=CARTESIAN_POINT('',(0.00465,0.0096,0.0049));
#2307=CARTESIAN_POINT('',(0.00465,0.0096,0.0049));
#2308=CARTESIAN_POINT('',(0.00585,0.0099,0.0049));
#2309=CARTESIAN_POINT('',(0.00585,0.0102,0.0049));
#2310=CARTESIAN_POINT('',(0.00585,0.0102,0.0049));
#2311=CARTESIAN_POINT('',(0.00585,0.0099,0.0049));
#2312=CARTESIAN_POINT('',(0.0047,0.0102,0.0049));
#2313=CARTESIAN_POINT('',(0.00465,0.0102,0.0049));
#2314=CARTESIAN_POINT('',(0.00465,0.0102,0.0049));
#2315=CARTESIAN_POINT('',(0.0047,0.0102,0.0049));
#2316=CARTESIAN_POINT('',(0.00465,0.0099,0.0049));
#2317=CARTESIAN_POINT('',(0.00465,0.0099,0.0049));
#2318=CARTESIAN_POINT('',(0.000738314539194106,0.0061,0.0049));
#2319=MECHANICAL_DESIGN_GEOMETRIC_PRESENTATION_REPRESENTATION('',(#1302,
#16,#17,#18,#19,#20,#21,#22,#23,#24,#25,#26,#27,#28,#29,#30,#31,#32,#33,
#34,#35,#36,#37,#38,#39,#40,#41,#42,#43,#44,#45,#46,#47,#48,#49),#2320);
#2320=(
GEOMETRIC_REPRESENTATION_CONTEXT(3)
GLOBAL_UNCERTAINTY_ASSIGNED_CONTEXT((#2321))
GLOBAL_UNIT_ASSIGNED_CONTEXT((#2324,#2323,#2322))
REPRESENTATION_CONTEXT('PJ-35-320D','TOP_LEVEL_ASSEMBLY_PART')
);
#2321=UNCERTAINTY_MEASURE_WITH_UNIT(LENGTH_MEASURE(1.E-8),#2324,
'DISTANCE_ACCURACY_VALUE','Maximum Tolerance applied to model');
#2322=(
NAMED_UNIT(*)
SI_UNIT($,.STERADIAN.)
SOLID_ANGLE_UNIT()
);
#2323=(
NAMED_UNIT(*)
PLANE_ANGLE_UNIT()
SI_UNIT($,.RADIAN.)
);
#2324=(
LENGTH_UNIT()
NAMED_UNIT(*)
SI_UNIT($,.METRE.)
);
#2325=PRODUCT_DEFINITION_SHAPE('','',#2326);
#2326=PRODUCT_DEFINITION('','',#2328,#2327);
#2327=PRODUCT_DEFINITION_CONTEXT('',#2334,'design');
#2328=PRODUCT_DEFINITION_FORMATION_WITH_SPECIFIED_SOURCE('','',#2330,
 .NOT_KNOWN.);
#2329=PRODUCT_RELATED_PRODUCT_CATEGORY('','',(#2330));
#2330=PRODUCT('PJ-35-320D','PJ-35-320D','PJ-35-320D',(#2332));
#2331=PRODUCT_CATEGORY('','');
#2332=PRODUCT_CONTEXT('',#2334,'mechanical');
#2333=APPLICATION_PROTOCOL_DEFINITION('international standard',
'ap242_managed_model_based_3d_engineering',2020,#2334);
#2334=APPLICATION_CONTEXT('managed model based 3d engineering');
ENDSEC;
END-ISO-10303-21;
